<svg width="48" height="48" viewBox="0 0 48 48" fill="none" xmlns="http://www.w3.org/2000/svg">
<g clip-path="url(#clip0_2145_403)">
<path d="M24.3702 9.31895C24.3597 9.22769 24.387 8.90024 24.391 8.80609C24.456 8.88311 24.4249 9.31431 24.397 9.38959C24.3925 9.40198 24.3878 9.40307 24.3832 9.38968C24.3786 9.37856 24.374 9.35524 24.3702 9.31895ZM29.6855 20.9152C29.8604 20.694 30.0937 20.4109 30.3595 19.9386C29.8478 20.7316 29.3687 21.1062 29.2594 21.2308C29.1348 21.3551 29.0291 21.4516 29.0133 21.4649C29.0112 21.4663 29.0163 21.461 29.0423 21.4332C29.0732 21.3974 29.1074 21.3731 29.2664 21.1651C29.3137 21.1006 29.3567 21.0428 29.4384 20.9092C29.5228 20.7573 29.6139 20.642 29.769 20.1688C29.8429 19.8907 30.2823 18.5515 29.1745 17.1127C28.0767 15.8963 27.2861 15.991 27.0366 15.9105C26.8667 15.8879 26.7227 15.8824 26.6179 15.882C26.5327 15.8818 26.4597 15.8848 26.3956 15.889C26.3315 15.8933 26.2761 15.8989 26.2271 15.9048C26.1875 15.9096 26.1547 15.9143 26.1234 15.9192C25.9948 15.9398 25.935 15.9549 25.8835 15.9674C25.7493 16.0034 25.8388 15.9974 25.9395 15.9933C25.9878 15.9919 26.028 15.9932 25.9787 16.0102C25.9332 16.0259 25.8111 16.0608 25.7562 16.0792C25.6679 16.1089 25.7029 16.0748 25.6977 16.0503C25.7025 16.0227 25.7131 15.9915 25.7905 15.955C25.8066 15.9474 25.8269 15.9388 25.8563 15.9269C26.2173 15.7791 27.2134 15.4354 27.5783 15.2921C29.0718 14.7012 30.6095 14.0735 32.3052 13.6404C30.6133 14.2076 32.3443 13.7604 32.8364 13.6109C32.95 13.5873 32.8584 13.3733 34.7119 13.062C35.8981 12.9075 34.8417 13.2757 36.7937 12.9442C35.2576 12.9299 36.7638 12.7518 37.9357 12.7072C38.0441 12.702 38.5744 12.6906 39.1334 12.6967C39.585 12.7028 40.1692 12.7321 40.9114 12.9978C41.6501 13.2438 42.4682 13.8808 42.8494 14.4098C43.123 14.7588 43.3685 15.1863 43.5233 15.5397C43.7006 15.9266 43.8412 16.3774 43.8937 16.7898C43.954 17.3007 43.9171 17.6912 43.8336 18.3442C43.5996 19.8628 43.0201 20.8272 42.4752 21.6515C41.9165 22.4715 41.2393 23.2049 40.5007 23.8212C41.1959 22.9088 39.7701 24.3177 39.6768 24.3263C39.29 24.5561 40.8676 23.2832 40.2169 23.7571C39.3539 24.4783 38.428 25.0394 37.5092 25.4872C38.2837 25.1501 36.5808 26.1434 36.2292 26.1639C36.3952 26.325 33.4557 27.0302 32.1653 27.2032C31.6564 27.2979 31.3626 27.3169 31.2116 27.3464C31.1259 27.3623 31.3689 27.3669 31.3042 27.395C31.2508 27.4193 30.8069 27.4972 29.7593 27.4848C29.5358 27.4816 29.6205 27.4187 29.5054 27.425C29.4381 27.4293 29.0209 27.6254 28.638 27.5148C28.5675 27.4947 28.7581 27.4528 28.7185 27.4218C28.6996 27.4064 28.6173 27.3932 28.432 27.3882C28.3399 27.3859 28.222 27.3856 28.0964 27.3904C28.035 27.3927 27.9706 27.3966 27.9248 27.4016C27.8844 27.4048 27.836 27.4179 27.9502 27.4018C27.8793 27.4357 27.895 27.4498 27.8934 27.4655C27.8993 27.4795 27.8952 27.4941 27.9741 27.4896C28.1404 27.4562 28.3516 27.4561 28.8714 27.1439C29.3501 26.8855 29.9535 26.0646 30.0498 25.5068C30.1718 24.9706 30.1053 24.7348 30.0959 24.6502C30.0778 24.5627 30.0781 24.5958 30.0983 24.6582C30.1854 24.9517 30.5008 25.6008 30.591 25.8018C30.5556 25.6816 30.5261 25.5704 30.4967 25.4566C30.7002 25.992 30.8286 26.067 30.8931 26.1895C31.1582 26.683 31.5248 27.4233 31.8278 27.9134C32.1815 28.4873 32.2912 28.4234 32.6627 29.1473C32.5881 28.9662 32.514 28.7873 32.4396 28.6088C32.7188 29.0897 33.0004 29.5818 33.281 30.095C32.4745 29.0131 33.4165 30.3436 33.4729 30.4498C33.5622 30.6008 33.3824 30.4121 33.5296 30.6655C33.5451 30.6924 33.581 30.6192 33.8029 31.0255C34.2632 31.8899 34.1188 31.8 34.301 32.1842C34.3165 32.2236 34.3166 32.0565 34.6324 32.7658C35.5838 35.2546 34.601 32.7238 34.5434 32.6874C34.48 32.5975 34.61 33.3778 33.8412 31.5626C34.1046 32.156 34.0338 32.2752 34.0626 32.3409C34.0941 32.3901 34.5684 33.5063 34.5901 33.5978C34.8316 34.2022 34.7191 33.6368 34.7716 33.7528C34.796 33.8095 34.9792 34.442 35.1223 35.1351C35.1903 35.4377 35.2655 35.7129 35.3625 35.829C35.2717 36.3671 35.2048 35.8877 35.0632 35.1451C35.0005 34.8085 34.9092 34.4498 34.8049 34.1253C34.7384 34.0035 34.907 34.6411 34.975 35.1602C34.9977 35.3324 35.0136 35.4657 35.0167 35.4859C35.2228 37.1078 35.2682 36.1952 35.4143 36.5435C35.4883 36.7307 35.4133 37.4208 35.5237 36.7809C35.6117 38.3073 35.4791 37.3839 35.4742 37.4827C35.462 37.6326 35.5041 38.1671 35.4948 38.2362C35.4842 38.3351 35.4407 37.9901 35.4132 38.3793C35.4091 38.4417 35.4736 39.0805 35.5445 38.2655C35.4925 39.3549 35.5479 39.2799 35.3624 39.6358C35.5498 40.4434 35.1172 40.1691 35.0525 40.4646C34.8534 41.2623 35.1074 41.0875 35.1129 41.1307C35.1106 41.2383 35.0464 41.5546 34.9027 41.9955C34.7297 42.4575 34.6352 42.915 33.9603 43.8539C32.7903 45.2564 31.7391 45.3182 31.4154 45.4464C31.5625 45.2775 32.6707 45.2772 33.9121 43.8169C34.632 42.8255 34.7076 42.4168 34.7995 42.1784C34.9628 41.5084 34.8193 41.9432 34.5762 42.47C34.3672 42.9676 33.735 43.8608 34.0854 43.0873C34.011 43.255 33.9158 43.4497 33.7512 43.6936C33.2204 44.4557 32.4876 44.9 31.9513 45.1323C31.5747 45.2293 31.4572 45.2164 31.3871 45.2117C31.3199 45.2036 31.3156 45.1861 31.2502 45.1872C31.1441 45.1778 30.641 45.3127 29.637 45.297C29.4778 45.3449 29.8058 45.3652 30.2118 45.3462C30.6066 45.3336 31.1333 45.2371 30.8837 45.3192C30.7344 45.3691 30.2847 45.4238 29.9456 45.4309C29.6003 45.4417 29.3308 45.4284 29.3178 45.4419C29.3065 45.4576 29.5426 45.4747 29.7934 45.4809C30.0405 45.4886 30.3097 45.4804 30.2115 45.5094C29.5334 45.7059 26.6583 45.1473 28.9491 45.3994C28.3935 45.3414 28.1278 45.1531 27.784 45.0791C27.5706 45.04 27.347 44.993 27.0976 44.9291C26.7038 44.8265 27.5302 45.1768 27.7548 45.2632C27.7766 45.2873 27.779 45.3077 27.7458 45.3201C27.6292 45.3211 27.3169 45.3155 26.6991 45.0957C26.0971 44.8891 25.165 44.3271 24.5077 43.4817C24.5154 43.401 24.8368 43.8318 25.3858 44.2775C25.9206 44.7338 26.696 45.0681 26.7312 45.0701C26.8356 45.1026 26.4128 44.6739 26.3463 44.6163C26.2596 44.5687 25.347 44.0647 24.7477 43.3121C24.132 42.5843 23.7621 41.7545 23.6078 41.4468C23.2339 40.6255 23.257 40.3896 23.1971 40.1126C23.1585 39.8588 23.1494 39.6919 23.152 39.5798C23.008 39.7753 22.9389 37.3266 22.9062 37.1245C22.8918 37.0589 22.82 37.3099 22.8081 37.2396C22.7346 36.7979 22.8407 35.6367 22.8253 35.1125C22.8077 34.5226 22.7387 34.6004 22.7376 34.5672C22.7316 34.3103 22.7881 34.5138 22.7818 34.3563C22.7744 34.1147 22.7102 32.4961 22.693 32.4184C22.6885 32.3949 22.621 32.6612 22.5866 32.3126C22.5814 32.2635 22.6485 32.2754 22.6147 31.7128C22.6149 31.7137 22.6144 31.7306 22.6216 31.7887C22.6243 31.8121 22.6331 31.8714 22.6518 31.9502C22.6614 31.9904 22.6739 32.0377 22.6915 32.0937C22.7003 32.122 22.7101 32.1512 22.7224 32.1854C22.7382 32.2288 22.7569 32.2763 22.7796 32.3283C22.8571 32.5045 22.9659 32.7031 23.1358 32.9185C23.3409 33.1797 23.632 33.4375 23.9478 33.6189C24.6027 34.0026 25.2686 34.0331 25.5885 34.0126C26.1791 33.9623 26.2499 33.8933 26.2193 33.9221C26.1587 33.9368 25.9893 34.0498 25.3504 34.0638C24.6742 34.1243 23.4412 33.5562 23.0246 32.9176C22.8347 32.6756 22.7209 32.4559 22.6472 32.2878C22.578 32.1268 22.5547 32.0537 22.5284 31.9735C22.4807 31.8171 22.4714 31.7866 22.456 31.7574C22.4301 31.7173 22.4063 31.7113 22.3853 31.7597C22.4594 31.8275 22.3778 32.1965 23.0655 33.0784C23.4709 33.5715 24.1709 33.9779 24.7851 34.0929C25.0856 34.1556 25.351 34.1648 25.5609 34.1552C25.7434 34.147 25.8921 34.1253 26.0166 34.1015C26.5184 33.9927 26.6344 33.9154 26.7664 33.8647C26.8875 33.8112 26.979 33.7584 27.0316 33.7172C27.0516 33.702 27.0992 33.6555 27.12 33.6219C27.1375 33.5913 27.132 33.5735 27.0983 33.5863C27.0302 33.6117 26.8735 33.7449 26.7165 33.9481C26.8244 33.7974 26.9234 33.665 26.9908 33.5772C27.0256 33.532 27.0489 33.5024 27.0457 33.4987C27.0389 33.496 27.0134 33.5247 26.8427 33.6307C27.0102 33.5151 27.0404 33.4705 27.0273 33.4839C27.0138 33.4952 26.9543 33.558 26.8929 33.6296C26.76 33.783 26.5994 33.9878 26.492 34.1069C26.3845 34.2277 26.3912 34.0524 26.1777 34.3394C26.1288 34.4096 26.1601 34.7609 26.6114 33.9969C26.7228 33.9953 26.4276 34.281 26.3191 34.4685C26.3017 34.4983 26.3511 34.674 26.1133 34.8444C26.052 34.8932 26.1563 34.0226 25.2784 35.7535C25.2496 35.8101 25.4207 35.6649 25.3936 35.7209C25.3752 35.7592 25.0652 36.1491 25.0373 36.1997C25.0104 36.2505 25.2006 36.0881 25.1699 36.1495C25.0109 36.4676 24.5564 36.6983 24.9944 36.1292C24.8285 36.3085 24.6662 36.4819 24.4972 36.6624C24.7911 36.5566 24.3108 36.998 24.1078 37.2741C22.7797 39.0507 23.7749 37.9453 23.587 38.2836C23.2663 38.8323 23.3453 38.2715 22.8093 39.0552C22.746 39.1284 23.6417 38.3252 22.0527 40.0063C22.2876 39.7465 22.5097 39.4883 22.7228 39.2319C22.48 39.2666 21.9131 40.1595 21.8493 40.2208C21.1837 40.9184 21.662 40.4142 20.5771 41.4879C20.4855 41.5738 20.2486 41.7241 20.025 41.9015C20.0028 41.9191 19.9808 41.9369 19.959 41.955C19.5285 42.3015 19.7014 42.2034 20.0632 41.953C20.5836 41.5974 21.2971 40.9394 21.3516 40.9381C21.3722 40.9387 20.83 41.4883 20.1122 42.0192C19.4559 42.512 18.7373 42.8795 18.6867 42.8965C18.2299 43.086 19.9962 42.0953 19.6112 42.211C19.5491 42.235 18.5167 42.9478 17.2695 43.389C16.028 43.8556 14.6649 44.0168 14.2244 44.0278C13.1898 44.0604 12.7676 43.7872 12.7497 44.0487C12.4789 43.7891 12.2342 43.9435 12.1076 43.9321C11.5815 43.8826 11.2482 43.8292 11.0216 43.7966C9.75581 43.6387 8.28498 42.8056 7.55549 41.1465C7.31856 40.6086 7.31967 40.2194 7.27053 40.0677C7.24625 39.9831 7.19041 40.1509 7.09206 39.743C6.8521 39.0074 7.12011 36.5719 7.21657 36.4626C7.27784 36.294 7.12588 37.4323 7.22416 37.238C7.30789 36.3916 7.4152 35.6564 7.57427 34.9074C7.64155 34.5985 7.65948 34.7683 7.68854 34.6356C7.69762 34.5755 7.89606 33.524 7.86941 33.566C7.76497 33.6118 7.16938 36.9994 7.24615 36.0972C7.254 35.9127 7.48059 35.3212 7.32087 35.3929C7.68186 33.5583 8.19903 31.8616 8.70281 30.2793C9.4947 28.0032 10.8624 27.0699 11.9833 26.2621C10.9685 27.1001 9.58402 28.0027 8.77546 30.3013C8.59603 30.8584 8.40555 31.4558 8.24341 32.0452C8.18016 32.2671 7.95783 33.0448 8.05503 32.9679C8.28513 32.1291 8.55999 31.1682 8.82156 30.3153C9.23907 28.9871 9.95698 28.1669 10.5454 27.5899C10.5921 27.5452 10.4718 27.7596 10.6497 27.5959C10.9784 27.2616 11.9648 26.3763 12.1585 26.2998C12.1917 26.2796 11.6455 26.7747 11.8596 26.69C12.4008 26.4773 12.3423 26.146 12.7492 25.9024C13.0655 25.6674 15.2112 24.8178 15.7149 24.5759C16.2434 24.2568 14.1267 25.1374 14.2531 25.0202C14.8832 24.6897 15.539 24.4315 16.2055 24.2202C17.1862 23.9092 18.1151 23.784 18.9737 23.7052C19.0013 23.7029 18.7558 23.6568 19.1048 23.6198C19.7129 23.5626 19.8686 23.6595 20.1568 23.6702C20.47 23.6743 21.5463 23.7137 21.6772 23.7661C21.6951 23.7718 21.4776 23.8473 21.444 23.8479C20.9817 23.8549 20.8191 23.7344 20.7753 23.7307C20.6164 23.7211 20.4538 23.7642 20.3088 23.761C20.066 23.7564 19.9298 23.7148 19.6036 23.7234C19.3786 23.7309 19.6002 23.8016 19.3822 23.8092C19.3086 23.8047 18.411 23.7002 18.3491 23.9071C18.3435 23.9252 18.8471 23.8662 19.571 23.8503C19.9337 23.8421 20.3522 23.8451 20.7922 23.8664C21.0122 23.8769 21.24 23.892 21.4676 23.9112C21.5789 23.9207 21.6956 23.9316 21.8037 23.9425C21.8562 23.9478 21.9098 23.9534 21.9554 23.9581C21.976 23.9603 21.9976 23.9625 22.0046 23.9634C22.008 23.9639 22.0088 23.964 21.9968 23.9634C21.9872 23.9634 21.9618 23.9596 21.8403 23.959C21.9328 23.9601 21.9872 23.9609 22.0504 23.9607C22.0731 23.9609 22.101 23.9599 22.0655 23.9622C22.0548 23.963 22.0382 23.9642 22.011 23.9668C21.9974 23.9681 21.981 23.9697 21.9604 23.9721C21.9589 23.9727 21.8747 23.98 21.7385 24.007C21.6662 24.0219 21.5742 24.0411 21.4238 24.0891C21.2706 24.1439 21.0647 24.1989 20.6758 24.4585C20.4832 24.5941 20.2309 24.7903 19.9642 25.1605C19.7501 25.4004 19.2909 26.4212 19.4632 27.2663C19.6024 28.1263 20.0244 28.6192 20.2868 28.884C20.565 29.1542 20.7615 29.2662 20.9092 29.3514C21.201 29.5094 21.3322 29.5431 21.4356 29.5786C21.4857 29.5944 21.5248 29.6053 21.5576 29.614C21.5925 29.6232 21.5852 29.6212 21.5982 29.6244C21.6342 29.6333 21.6613 29.6392 21.6835 29.6439C21.8453 29.6751 21.7879 29.6612 21.7831 29.6615C21.7611 29.6582 21.7362 29.6548 21.7037 29.6507C21.6303 29.6417 21.5677 29.6344 21.4845 29.6253C21.1733 29.5913 20.8646 29.5611 20.583 29.534C20.0275 29.4808 19.5986 29.443 19.4655 29.4411C19.9531 29.5125 20.441 29.5813 20.914 29.649C19.9515 29.5041 18.7252 29.5322 18.6641 29.299C16.608 29.0336 14.8325 28.9553 12.216 28.1311C10.0986 27.3603 8.37146 25.943 7.07749 24.5538C6.59914 24.0125 6.94764 24.1852 6.18468 23.3868C6.33283 23.6246 6.49121 23.8738 6.66047 24.1285C6.54429 23.9865 6.30321 23.6964 6.04721 23.3866C5.34848 22.6219 4.89852 21.3547 4.84951 20.5033C4.77753 19.6334 4.87552 19.0995 4.88271 18.9091C4.88724 18.8571 4.81109 18.7496 4.84154 18.3418C4.89541 17.9909 5.00298 17.5596 5.30596 17.0534C6.02957 15.9568 6.63462 15.8 6.97313 15.6374C7.32004 15.5064 7.57009 15.459 7.87813 15.3936C8.40506 15.2855 8.83929 15.2442 8.95631 15.2424C9.04371 15.2429 9.09357 15.2994 9.28411 15.3079C9.88942 15.3483 9.42217 15.1659 9.97544 15.3875C9.83738 15.3856 9.70987 15.3865 9.56155 15.39C10.2756 15.4373 11.0749 15.642 10.1557 15.5831C9.99076 15.577 10.1375 15.5308 10.0118 15.5212C8.82848 15.4216 7.74321 15.6316 7.1521 15.9338C6.87303 16.0687 6.74567 16.1653 6.79528 16.1394C6.8383 16.12 7.0486 16.0011 7.31007 15.9005C8.49968 15.427 9.92472 15.5722 10.704 15.626C11.1316 15.7349 13.1831 16.1447 13.2317 16.1937C13.3164 16.2415 12.9625 16.2182 13.3884 16.3929C13.4935 16.409 16.0543 17.1725 15.1031 16.9882C14.911 16.9445 13.6911 16.5478 13.3827 16.4748C14.052 16.8323 15.7319 17.1105 15.9103 17.1869C16.6242 17.4644 14.4688 16.8558 16.0904 17.4394C17.329 17.9059 16.202 17.3663 16.6993 17.4933C16.98 17.5584 18.3272 18.2396 18.3553 18.0702C18.8406 18.2542 18.5256 18.2213 18.5818 18.252C18.6374 18.2787 19.5991 18.6447 19.895 18.8326C19.9306 18.8547 19.7734 18.8792 19.8092 18.9044C19.8455 18.9291 20.1301 19.0629 20.3878 19.1909C20.4137 19.203 20.4873 19.2466 20.5124 19.2603C20.6676 19.3493 20.8399 19.4382 20.855 19.4427C20.8751 19.4481 20.7436 19.2835 20.8228 19.3063C20.8942 19.3246 21.6667 19.765 21.7407 19.7825C21.8014 19.7751 20.8298 19.27 21.0399 19.2839C21.326 19.462 21.8301 19.697 22.2733 19.9123C22.4394 19.9927 22.5908 20.0672 22.7015 20.1169C22.6481 20.0945 22.4689 19.9854 22.2914 19.8821C22.1347 19.7904 21.9845 19.7042 21.9078 19.6572C21.9611 19.6316 22.141 19.6976 22.3398 19.8012C22.6742 19.9734 23.0244 20.2472 22.7403 20.1316C23.0221 20.2553 22.8673 20.1155 23.0378 20.1703C23.0851 20.1849 23.4275 20.4331 23.4988 20.4623C23.5133 20.4658 23.196 20.1687 23.2799 20.199C23.4707 20.2648 24.3502 20.9998 24.3901 21.0573C24.5568 21.2444 23.8591 20.7097 23.7507 20.6973C23.7469 20.7011 24.2612 21.2694 24.2567 21.2807C24.2306 21.3881 23.6319 20.7933 23.6434 20.9236C23.7991 21.0746 23.945 21.2221 24.0856 21.367C23.645 21.0722 22.8194 20.3995 22.1791 20.0698C21.9423 19.9423 21.7639 19.8639 21.6565 19.8378C21.8159 19.9209 21.9828 20.0108 22.1546 20.1107C23.1739 20.7056 23.8103 21.3553 23.6784 21.4912C23.6164 21.5672 23.185 21.2882 23.1819 21.32C23.1923 21.4402 23.7847 21.8084 23.797 21.8273C23.8091 21.845 23.8129 21.8553 23.8095 21.8592C23.7826 21.9012 22.9955 21.2959 22.9242 21.2801C22.8311 21.2606 23.0811 21.6837 23.0519 21.7122C23.0416 21.7085 22.4333 21.2914 22.5895 21.4977C22.7548 21.7055 23.2193 22.0939 23.2289 22.1128C23.2977 22.2184 22.4426 21.5697 22.3854 21.5704C22.3692 21.5696 22.7866 21.9908 22.7809 22.0178C22.7799 22.0438 22.4072 21.8061 22.2213 21.7572C22.0861 21.7202 22.3672 21.9793 22.3082 21.9456C22.2807 21.9207 21.6143 21.4503 21.4132 21.3502C21.3866 21.3353 21.3689 21.3259 21.3633 21.3238C21.3262 21.31 21.3563 21.3511 21.3876 21.3928C21.4163 21.4309 21.4457 21.4694 21.4278 21.467C21.4151 21.4654 21.3908 21.4538 21.3609 21.4376C21.2642 21.3849 21.1127 21.2881 21.1318 21.319C21.137 21.3275 21.2165 21.3952 21.3275 21.4934C21.623 21.743 22.0761 22.2286 22.0418 22.2573C21.9801 22.3155 21.0392 21.3985 21.8064 22.3976C21.812 22.4037 22.0571 22.5584 22.0614 22.5657C22.1553 22.73 21.3752 22.2449 22.2582 22.9286C20.5462 21.762 21.9742 22.8764 21.6306 22.8185C21.5045 22.7877 20.857 22.3853 20.8434 22.3979C20.8671 22.5032 21.1035 22.5813 21.1496 22.6604C21.1679 22.69 20.8609 22.5441 20.7172 22.5137C20.6608 22.5009 20.6312 22.5041 20.6609 22.5395C20.6656 22.5452 20.6749 22.5532 20.6876 22.563C20.8242 22.6598 21.3077 22.9834 21.3254 23.0089C21.5199 23.2194 21.2107 23.0557 21.2387 23.1226C21.2566 23.1632 21.5943 23.4307 21.6008 23.4438C21.608 23.4581 21.0888 23.1768 20.977 23.1471C20.8908 23.1179 21.1328 23.3435 21.0763 23.3176C20.7485 23.1515 20.179 22.6088 20.6775 23.2103C20.7067 23.2459 20.9355 23.3986 20.9404 23.4075C21.0369 23.5636 20.6225 23.2734 20.5151 23.2795C20.3366 23.2805 20.9533 23.6207 20.4268 23.3584C20.7585 23.649 20.9425 23.788 21.4074 24.1501C20.7629 23.6378 20.3626 23.4912 20.2271 23.4889C20.1071 23.5076 20.283 23.6398 20.9198 24.14C20.5087 23.8121 20.4796 23.9835 20.362 23.9018C20.324 23.8757 20.171 23.725 20.0331 23.6572C19.913 23.5974 19.822 23.6024 19.8819 23.8115C19.8845 23.821 19.8985 23.8342 19.9183 23.8491C20.0168 23.9215 20.2377 24.0389 20.1154 24.0408C20.0243 23.9781 19.9494 23.9313 19.8904 23.8958C19.6247 23.7395 19.7363 23.8264 19.8714 23.9275C19.9683 24.0007 20.0666 24.0801 20.0648 24.0838C20.0415 24.1138 19.9574 24.0865 19.8165 24.0193C19.5296 23.8756 18.9192 23.5584 18.1943 23.1123L18.3314 23.1887C17.8191 22.9088 17.2752 22.6487 17.0855 22.5753C16.5358 22.3625 15.9921 22.3092 15.8703 22.2612C15.477 22.107 15.8312 22.1638 15.7535 22.1032C15.6744 22.0374 14.4902 21.7552 14.4356 21.7323C14.2262 21.6249 14.4794 21.6175 14.4581 21.6053C14.203 21.4476 12.6433 21.0221 12.2244 20.8984C12.223 20.9559 13.0781 21.2081 12.5164 21.1437C11.8669 21.0747 11.902 20.8233 11.8871 20.8063C11.123 20.6102 10.3503 20.4532 9.71607 20.4011C9.40746 20.3726 9.10934 20.3882 9.06259 20.4025C9.04506 20.4005 9.1091 20.4178 9.35731 20.2556C9.60276 20.1168 9.96233 19.6026 9.99885 19.2438C9.92817 19.6339 9.91753 19.8977 9.93205 20.0003C9.95239 20.1097 9.92912 20.003 9.90527 19.9876C10.2551 20.3849 10.5732 20.7444 10.8927 21.0758C10.9389 20.9992 10.3933 20.431 9.95268 19.9458C9.96682 19.9728 9.97884 20.0162 9.98362 20.0123C10.0191 20.012 10.0225 19.9566 9.99744 19.9063C10.6787 20.6663 11.7161 21.7102 11.8887 21.8699C11.7059 21.6761 11.5274 21.4718 11.3494 21.256C11.7936 21.4829 12.4093 22.2744 12.9636 22.5152C13.1387 22.5951 12.8573 22.3519 12.8671 22.3509C13.0799 22.4171 13.3495 22.6205 13.0882 22.5669C13.5778 22.7495 13.4697 22.7864 13.8232 22.9503C13.8411 22.9572 13.7145 22.8386 14.0038 22.9256C14.0247 22.9317 14.059 22.9431 14.103 22.9574C14.2217 23.0027 14.8864 23.1561 15.0049 23.1282C15.0538 23.1159 14.6662 22.7757 14.5716 22.969C14.2011 22.8248 14.188 22.8221 14.1605 22.8462C14.1407 22.8703 14.1564 22.9236 14.1148 22.925C14.0978 22.9229 14.0742 22.9164 14.0414 22.9034C13.9979 22.8759 14.1377 22.846 13.3991 22.5413C13.5475 22.47 13.8846 22.6522 14.1692 22.776C14.2617 22.8245 14.4385 22.891 14.4989 22.8965C14.5839 22.9049 14.5637 22.8824 14.4857 22.8457C14.4049 22.8085 14.2654 22.7533 14.1903 22.7182C13.9037 22.6026 13.5561 22.4454 13.4078 22.4585C13.5874 22.3629 13.3355 22.4011 13.0781 22.2338C12.7985 22.0466 12.9498 22.0836 12.7981 21.9803C12.3864 21.6802 12.4826 21.8998 12.2097 21.5406C12.3327 22.0794 11.5917 21.0723 11.3917 20.714C11.8388 21.1506 12.2766 21.5203 12.7161 21.8201C12.7017 21.7882 12.6876 21.7562 12.6737 21.7242C12.7843 21.8099 12.8958 21.8916 13.007 21.9683C12.9797 21.9701 12.9523 21.9718 12.9249 21.9733C13.5659 22.2654 13.6503 22.4066 13.7002 22.4396C13.8623 22.522 14.0331 22.5978 14.2099 22.6643C14.5398 22.7942 15.4011 22.971 16.0974 23.0807C16.2457 23.1021 16.146 22.9881 17.2328 23.2231C17.5822 23.2962 17.237 23.3362 17.6412 23.3752C18.1743 23.2115 18.1435 23.3898 18.295 23.4081C18.7296 23.4586 19.0029 23.4306 19.0447 23.4346C19.5888 23.485 20.3805 23.5727 20.9961 23.6223C21.0078 23.6225 20.6922 23.5221 21.0912 23.5808C21.149 23.5896 21.3997 23.6695 21.7729 23.7615C21.9726 23.8093 22.1575 23.8539 22.4506 23.9097C22.4903 23.9171 22.5404 23.926 22.5886 23.9351C22.614 23.9399 22.6367 23.9443 22.6688 23.9504C22.7151 23.9588 22.7659 23.9681 22.8374 23.9833C22.8735 23.9911 22.915 24.0003 22.969 24.0138C22.9825 24.0172 22.9969 24.0209 23.0123 24.025C23.0302 24.0296 23.1023 24.0487 23.1695 24.0701C23.3245 24.1352 23.4872 24.1224 24.078 24.5431C24.347 24.7728 24.9371 25.2016 25.1649 26.3564C25.2662 26.9138 25.1638 27.5669 24.9455 28.0276C24.7627 28.4186 24.5907 28.6251 24.4169 28.8143C23.7165 29.4911 23.408 29.4884 23.198 29.5828C22.992 29.6477 22.8831 29.6654 22.7945 29.6816C22.7145 29.6955 22.6269 29.7057 22.6183 29.7064C22.4656 29.7216 22.3885 29.7221 22.3118 29.7241C22.2241 29.7245 22.1183 29.7237 22.054 29.7226C21.9878 29.7215 21.9172 29.7207 21.8403 29.7205C21.6101 29.7172 21.6092 29.7111 21.5538 29.7083C21.518 29.7056 21.4879 29.7032 21.4644 29.7014C21.4167 29.6979 21.3791 29.6955 21.3392 29.6936C21.267 29.6902 21.1963 29.6893 21.1308 29.6914C21.1961 29.7022 21.266 29.7139 21.3373 29.7261C21.3766 29.7325 21.4138 29.7388 21.461 29.7459C21.4847 29.7495 21.5143 29.7535 21.5505 29.7578C21.6061 29.7622 21.607 29.7699 21.8403 29.7746C21.9197 29.7789 21.9924 29.7829 22.0611 29.7865C22.1389 29.7899 22.225 29.7933 22.3489 29.7922C22.269 29.793 22.2148 29.7928 22.1135 29.7936C22.0297 29.7939 21.9538 29.7943 21.8403 29.795C21.7062 29.7947 21.6395 29.7888 21.6128 29.7875C21.5793 29.7854 21.5463 29.783 21.5293 29.7817C21.4898 29.7788 21.4571 29.7761 21.43 29.7741C21.3726 29.7697 21.3263 29.7665 21.2775 29.7634C21.1817 29.7575 21.0875 29.7532 20.9915 29.7507C20.802 29.7456 20.6115 29.7483 20.4541 29.7576C20.1379 29.7764 19.952 29.8165 20.13 29.8451C20.3949 29.8843 21.0854 29.7277 21.1548 29.9236C20.7212 29.8195 18.8921 29.8574 18.1599 30.1644C17.6811 30.3246 17.3309 30.4705 17.2504 30.4893C17.2129 30.4978 17.4045 30.3547 17.3536 30.3672C17.3095 30.372 16.5884 30.7062 16.4922 30.7364C16.43 30.7509 16.7255 30.5666 16.6919 30.5596C16.6532 30.5491 15.785 30.9773 15.7947 31.0741C15.9639 30.9291 16.5707 30.6466 16.2907 30.8636C16.2547 30.8907 16.0317 30.9569 15.9915 30.9923C15.6056 31.309 16.8876 30.5831 17.1392 30.5069C16.2879 30.935 14.8855 31.718 14.7481 32.0999C14.6866 32.1319 14.6869 32.0874 14.708 32.0239C14.7303 31.96 14.7675 31.886 14.6686 31.9614C14.4951 32.098 14.5562 32.069 14.5812 32.0904C14.6146 32.104 14.6777 32.0995 14.6798 32.1039C14.6858 32.1516 14.6138 32.1401 14.592 32.066C14.4635 32.3494 14.3772 32.5893 14.4964 32.6226C14.324 33.064 14.3344 32.9083 14.1857 33.5461C14.2263 33.4691 14.2669 33.3926 14.3086 33.3134C14.2406 34.0533 13.5157 35.4 13.5184 35.2865C13.509 34.979 13.823 34.25 13.8401 34.1818C13.8635 34.085 13.6735 33.751 14.2176 32.7426C14.1744 32.2541 13.613 34.4062 13.7761 33.4013C13.5764 34.0706 12.8443 36.6895 12.9144 37.0324C12.9205 37.0736 13.1126 36.9131 12.9513 37.4922C12.877 37.766 12.9546 37.091 12.9007 37.2129C12.856 37.3087 12.7614 37.8179 12.7524 38.3555C12.7438 38.6111 12.7869 38.8943 12.7929 38.891C12.7889 38.8897 12.7655 38.7692 12.5682 38.5606C12.3792 38.3481 11.9835 38.1717 11.7834 38.1569C13.266 38.3844 14.4296 38.1607 14.8152 38.0489C14.8691 38.0349 14.863 38.0927 14.9165 38.0779C15.0876 38.0382 15.6244 37.7618 15.8841 37.6459C15.3414 37.8034 16.2259 37.3754 16.5019 37.1467C16.5196 37.1342 16.5357 37.1228 16.5497 37.113C16.9304 36.8354 16.9791 36.9053 17.1614 36.7701C17.8887 36.2269 18.7521 34.8264 19.4244 34.2898C19.2299 34.2041 20.3855 33.19 20.8062 32.6058C21.1326 32.1581 21.5097 31.4035 20.9896 31.9734C21.6039 31.1715 22.0533 30.3712 23.0607 29.3303C23.2676 29.1373 23.0006 29.4554 23.389 29.1113C23.4105 29.0933 23.4249 29.0605 23.4927 28.9881C23.5727 28.9144 23.6387 28.8107 24.085 28.5767C24.2977 28.4691 24.7736 28.2696 25.351 28.2603C26.02 28.2261 26.8301 28.5504 27.2596 28.9487C27.7419 29.3879 27.8534 29.6508 27.9894 29.9083C28.1166 30.1794 28.1529 30.3133 28.1944 30.4536C28.2326 30.5901 28.2573 30.7075 28.2761 30.8127C28.291 30.897 28.3008 30.9671 28.3088 31.0335C28.3244 31.165 28.3312 31.2708 28.3348 31.3595C28.3422 31.8128 28.2433 31.4173 28.2308 31.6698C28.2208 31.8658 28.218 32.0107 28.2202 32.1157C28.2044 31.8724 28.1866 31.6196 28.1676 31.3698C28.1604 31.2651 28.1501 31.1591 28.1355 31.0497C28.1202 30.9401 28.104 30.8327 28.0656 30.6651C27.9769 30.3752 27.943 29.9531 27.3273 29.2587C26.9863 28.8907 26.4178 28.5577 25.8334 28.4711C25.225 28.3837 24.8754 28.4795 24.5733 28.5678C24.4993 28.5913 24.4308 28.6164 24.3668 28.6421C24.3119 28.6643 24.2671 28.6841 24.2212 28.7054C24.1308 28.7476 24.0505 28.7904 23.9774 28.8326C23.9051 28.8743 23.8361 28.918 23.7801 28.9557C23.731 28.9888 23.6854 29.0213 23.6425 29.053C23.0105 29.5514 22.8768 29.7793 22.7478 29.9094C22.8748 29.8475 23.0253 29.6232 23.6577 29.1225C23.8251 29.0069 24.0417 28.8188 24.5912 28.6311C24.8942 28.5419 25.2625 28.4431 25.876 28.5443C26.4698 28.6458 27.0154 28.9951 27.3368 29.3622C27.6433 29.7128 27.7495 29.9496 27.8558 30.199C27.9399 30.4102 27.9781 30.5516 28.0149 30.7071C28.0821 31.0118 28.0963 31.1647 28.1146 31.3731C28.158 31.8306 28.1924 32.2483 28.1906 32.4715C28.1903 32.4929 28.1123 32.4223 28.1129 32.444C28.1129 32.4445 28.1129 32.4449 28.1129 32.4454C28.1213 32.6789 28.2112 34.1435 28.2867 33.8379C28.3068 33.7553 28.2806 33.0823 28.2304 32.2762C28.2583 32.4936 28.3331 32.3264 28.3387 32.3647C28.4053 32.8309 28.3723 33.9722 28.3758 34.3715C28.3769 34.4638 28.43 34.455 28.4307 34.4701C28.4323 34.8328 28.2745 34.6921 28.4452 35.0563C28.2798 35.7212 28.3711 33.826 28.2518 33.9611C28.163 34.086 28.366 38.2331 28.5392 38.1359C28.5243 38.1501 28.5082 38.2059 28.494 38.3103C28.4786 38.424 28.4959 38.7327 28.5303 38.9639C28.547 39.0799 28.5688 39.1723 28.5775 39.1876C28.5881 39.2101 28.5689 39.1125 28.5133 38.9887C28.5178 38.9961 28.5219 39.0025 28.5256 39.0082C28.5487 39.0426 28.6719 38.9639 28.6951 39.0078C28.7284 39.0685 28.8741 39.4462 28.9625 39.6265C29.0083 39.7218 29.0433 39.7749 29.0479 39.7772C29.0539 39.7807 29.0245 39.7383 28.9944 39.6925C29.0975 39.7395 29.1179 39.7548 29.0938 39.6843C29.1584 39.7666 29.0823 39.6638 29.0001 39.6138C28.917 39.5573 28.8533 39.5288 28.8373 39.5139C28.7971 39.484 28.9362 39.5 29.0682 39.5626C29.0798 39.5698 29.0932 39.5725 29.103 39.579C29.1921 39.6247 29.2235 39.6474 29.219 39.6192C29.2159 39.5943 29.1924 39.5376 29.1973 39.5343C29.2019 39.5201 29.2944 39.6267 29.2589 39.5736C29.2403 39.5501 29.1728 39.4836 29.0565 39.4211C28.9423 39.3579 28.7951 39.3164 28.6995 39.3085C29.0876 39.3839 29.2935 39.438 29.1135 39.4635C29.0868 39.467 28.8945 39.4344 28.6853 39.3982C28.8712 39.4226 29.0692 39.5279 28.8229 39.4883C28.8019 39.4867 28.7386 39.4681 28.6759 39.4576C28.961 39.502 29.3105 39.5388 29.3321 39.548C29.4593 39.6019 29.0814 39.6019 28.6561 39.5821C28.8134 39.6476 28.9267 39.779 28.8615 39.7929C28.8212 39.724 28.7197 39.6711 28.6445 39.6552C28.9455 39.695 29.2386 39.75 29.4837 39.7616C29.6705 39.7701 29.7103 39.6981 29.7314 39.6986C30.0139 39.6961 29.8517 39.7627 29.9386 39.7643C29.9604 39.7648 30.0901 39.7227 30.1162 39.7055C30.1503 39.6871 30.0703 39.7184 30.1254 39.8213C30.0687 39.8042 29.6262 39.9556 29.3465 40.3163C29.2524 40.4292 29.26 40.4169 29.2522 40.4113C29.249 40.4011 29.2521 40.3782 29.2529 40.3603C29.2557 40.3217 29.2527 40.3002 29.242 40.3047C29.232 40.3073 29.2133 40.337 29.197 40.3606C29.1901 40.3746 29.1384 40.4279 29.2621 40.2516C29.4216 40.0372 29.6463 39.8634 29.8075 39.7798C29.9713 39.693 30.0695 39.6732 30.1028 39.6658C30.1694 39.657 30.0221 39.6787 29.8373 39.6687C29.967 39.6459 30.1353 39.623 30.1101 39.6175C30.096 39.6183 30.0211 39.6238 29.8513 39.7015C29.6863 39.7752 29.4144 39.9608 29.2201 40.2194C29.1035 40.3793 29.1335 40.3516 29.1309 40.3398C29.1417 40.2979 29.0589 40.3073 29.0883 40.1891C29.225 40.031 29.5627 37.7197 29.4552 37.0998C29.5072 37.4715 29.5824 37.3583 29.5552 37.0674C29.5241 36.777 29.4374 37.0311 29.4207 36.9754C29.4116 36.9435 29.3859 36.5305 29.3251 36.1212C29.3065 35.9449 29.223 35.6523 29.1885 35.5739C29.3438 35.9845 29.3708 36.0624 29.3971 36.0407C29.4169 36.0135 29.4135 35.8414 29.2887 35.4682C29.3485 35.5686 29.4026 35.6613 29.4534 35.7543C29.3365 35.3876 28.977 34.2879 28.7829 34.006C28.7546 33.9628 28.7764 34.1585 28.7603 34.134C28.6154 33.8945 28.1904 32.9702 28.1418 32.9379C28.1056 32.9121 28.2682 33.3222 28.1647 33.194C28.1431 33.1668 28.0193 32.7542 27.785 32.3974C27.6983 32.265 27.6904 32.3797 27.6671 32.3472C27.4714 32.0752 27.6676 32.1918 27.3372 31.6705C27.0936 31.2876 26.8255 31.0505 26.5226 30.4791C27.4897 32.3458 26.6349 30.8214 26.1337 30.0638C26.0524 29.9379 26.0183 30.1193 25.6182 29.3181C26.7526 30.8283 25.4431 28.825 25.1938 28.3198C25.1806 28.2927 25.2423 28.2471 25.121 28.0088C25.1103 27.9872 25.0804 28.0467 24.9616 27.817C24.401 26.7191 24.3201 26.23 24.347 26.2974C24.3726 26.3327 24.5174 26.6864 24.4424 26.3713C24.4227 26.2182 24.2219 25.8588 24.1878 24.9103C24.181 24.4199 24.2927 23.6579 24.7767 22.9757C25.2672 22.2849 25.8557 22.0008 26.1297 21.8807C26.3385 21.8025 26.3159 21.8224 26.8652 21.7096C26.9234 21.6999 26.9895 21.6893 27.0599 21.6787C27.8709 21.5759 28.188 21.551 28.5084 21.5383C28.5402 21.5381 28.5576 21.623 29.0806 21.5976C29.2256 21.5904 29.384 21.5602 29.1821 21.5351C28.9638 21.5086 28.6763 21.5025 28.3247 21.5096C27.9461 21.5266 27.6452 21.5055 26.8522 21.642C26.247 21.7482 25.2622 22.1585 24.6745 23.0742C24.1257 23.9435 24.1268 24.6356 24.112 25.049C24.1127 25.3912 24.1253 25.4786 24.1081 25.4301C24.0951 25.3727 24.056 25.194 24.0602 24.8103C24.0779 24.4277 24.1039 23.7175 24.7064 22.8671C25.3386 21.9955 26.2737 21.6473 26.8337 21.5456C27.2767 21.4639 27.4886 21.4614 27.6655 21.4487C27.8343 21.4395 27.9357 21.4374 27.9623 21.4365C28.018 21.4339 27.4568 21.4947 28.0243 21.4858C28.4936 21.4816 29.2002 21.347 29.7079 21.373C29.7502 21.376 30.1431 21.4922 30.1233 21.4991C30.1171 21.5075 29.4956 21.5438 29.5834 21.5781C29.5975 21.5829 29.994 21.5765 30.0405 21.601C30.1016 21.6324 30.275 21.9489 30.3533 21.9525C30.5496 21.9609 30.4197 21.8952 30.541 21.8918C30.6541 21.8889 30.8999 21.8851 31.0187 21.8705C31.3768 21.8097 31.71 21.7327 31.7148 21.6681C31.5371 21.7031 31.3578 21.7369 31.1768 21.7698C32.165 21.535 31.7285 21.5818 31.8637 21.5298C32.006 21.4716 31.9891 21.5783 32.3155 21.5045C32.3965 21.4967 33.6983 21.0902 33.6511 21.0503C32.967 21.3409 33.1888 21.1373 33.157 21.1468C33.0299 21.1772 32.8876 21.2899 32.7148 21.3365C31.4867 21.6507 32.697 21.2212 32.4001 21.2706C32.2991 21.2879 32.114 21.3951 32.0703 21.4028C31.9289 21.428 31.9084 21.3544 31.8169 21.3829C31.6021 21.449 31.882 21.493 31.8661 21.5025C31.6887 21.6171 30.8893 21.7085 31.3486 21.4858C31.1369 21.5026 31.0719 21.5809 30.9655 21.6232C30.9528 21.6338 30.9319 21.6384 30.8965 21.6276C30.6986 21.5765 30.8696 21.5448 30.944 21.5232C31.0436 21.4997 31.1415 21.4768 31.1951 21.4593C31.8416 21.2422 32.0556 21.2559 32.9319 20.9867C33.246 20.8884 33.5827 20.7036 33.7181 20.6516C33.8069 20.6257 34.6933 20.5365 34.5576 20.1764C34.8608 20.087 35.4079 20.0917 35.6702 19.9216C35.9026 19.7707 35.7544 19.7021 35.774 19.6846C35.8038 19.6584 36.0763 19.4915 36.1479 19.4135C36.2331 19.3231 36.156 19.3188 36.2919 19.1868C36.6162 18.8563 36.6835 18.9583 36.7275 18.9336C37.1824 18.6241 36.8698 18.6558 36.9386 18.5617C36.9612 18.5277 37.1267 18.3553 37.2997 18.1165C37.4454 17.9182 37.5689 17.7036 37.6165 17.5842C37.6665 17.4591 37.6536 17.4521 37.6382 17.468C37.6675 17.452 37.6934 17.4776 37.7047 17.5322C37.8138 17.4558 37.6632 17.4823 37.8174 17.4951C37.6189 17.4732 37.6846 17.6394 37.7651 17.7477C37.7905 17.7932 37.8301 17.865 37.861 17.9224C37.9286 18.0401 37.8799 18.0549 38.0218 18.2345C38.1897 18.4574 38.5988 18.7332 38.8417 18.7971C39.0904 18.8727 39.152 18.8503 39.1384 18.8517C38.9123 18.8492 38.7262 18.8522 38.642 18.8621C38.1532 18.9237 38.5849 18.9721 39.1385 19.0237C39.1562 19.0392 38.9359 19.1031 38.4507 18.8667C37.9588 18.6191 37.6824 18.1958 37.6501 18.1446C37.7179 18.2749 38.0843 18.7429 38.5338 18.9488C38.971 19.1535 39.1392 19.1242 39.1386 19.1432C38.6128 19.1722 38.2431 19.2309 38.7636 19.2838C38.8662 19.2946 39.0201 19.246 39.1386 19.2133C39.1352 19.1981 39.1249 19.1859 39.1171 19.1841C39.0728 19.1755 38.9894 19.1638 38.9492 19.1608C38.9066 19.1575 38.9034 19.1666 38.922 19.1822C38.9615 19.2143 39.0413 19.2529 39.0215 19.2547C38.9915 19.2568 38.895 19.2295 38.6981 19.1403C38.5058 19.0578 38.2276 18.8674 38.1149 18.7812C38.0759 18.7538 38.1651 18.8505 38.1076 18.8361C38.0793 18.8282 38.01 18.7953 37.8785 18.6839C37.7518 18.5785 37.5502 18.3553 37.4263 18.1168C37.4501 18.1859 37.5067 18.3146 37.6498 18.5013C37.7885 18.6853 38.0379 18.919 38.3003 19.0681C38.8569 19.3747 39.1296 19.3256 39.1387 19.3313C38.764 19.3262 38.44 19.3275 38.3557 19.3391C38.2897 19.3538 38.7163 19.5018 37.464 19.3995C37.4796 19.4156 37.4952 19.4316 37.5107 19.4477C36.826 19.5058 36.1676 19.6026 35.5004 19.7434C35.5654 19.6898 35.9277 19.5392 35.4555 19.6481C35.1844 19.7138 35.4045 19.7585 35.38 19.7662C35.1949 19.7109 30.6359 21.1703 29.6806 21.6303C29.3659 21.7574 28.5262 22.1754 28.4545 22.207C28.4488 22.2094 28.4429 22.2119 28.4367 22.2146C28.3772 22.2396 28.307 22.2683 28.2092 22.3062C28.1043 22.3457 28.0152 22.3836 27.7517 22.4675C27.6772 22.49 27.6016 22.5149 27.4202 22.5572C27.3338 22.5759 27.2128 22.6052 26.9731 22.6314C26.9023 22.6387 26.8223 22.645 26.7284 22.6483C26.6814 22.65 26.6309 22.6509 26.576 22.6504C26.5036 22.6498 26.4203 22.6469 26.3282 22.6396C26.2359 22.6323 26.1333 22.6206 26.0177 22.601C25.8999 22.5797 25.7877 22.5604 25.5615 22.4912C25.1285 22.3308 24.6719 22.2121 23.9593 21.4275C23.6498 21.0676 23.404 20.5942 23.2847 20.1763C23.168 19.7807 23.1365 19.4105 23.1453 19.1036C23.1497 18.9494 23.1638 18.8095 23.183 18.6831C23.2012 18.5653 23.2165 18.4929 23.2361 18.4083C23.2744 18.2461 23.3182 18.1105 23.3616 17.9937C23.4572 17.7436 23.5127 17.6452 23.5727 17.5324C23.629 17.4292 23.6907 17.3318 23.7234 17.2826C23.8825 17.0466 23.9603 16.9646 24.0242 16.8892C24.1472 16.7502 24.1987 16.7025 24.2471 16.6542C24.4147 16.4931 24.4442 16.4705 24.4608 16.456C24.7522 16.1802 24.7924 16.1275 24.6923 16.2578C24.5905 16.3728 24.3447 16.865 24.291 17.1854C24.2311 17.4808 24.2254 17.5589 24.2065 17.5655C24.1907 17.5761 24.1745 17.5322 24.1618 17.6668C24.159 17.6602 24.1578 17.6501 24.1586 17.6349C24.1632 17.548 24.2332 17.6392 24.2365 17.6133C24.2524 17.5074 24.2338 17.0243 24.0925 16.3331C23.9591 15.6541 23.726 14.8064 23.6712 14.4683C23.7895 14.9187 24.3166 16.6804 24.3272 16.5985C24.3354 16.5945 24.319 16.1774 24.2729 16.0909C24.3072 15.9357 24.009 15.4573 23.9686 15.1489C23.9632 15.1125 24.1033 15.2275 23.9813 14.6775C23.939 14.4875 23.7253 14.0076 23.6688 13.4559C23.617 13.3015 23.5347 13.0085 23.4337 12.6289C23.0098 10.9896 22.5104 8.55737 22.362 8.55084C22.3539 8.5393 22.4505 8.97783 22.3161 8.70446C22.1403 8.37404 22.4401 8.59532 22.3239 8.23395C22.3231 8.21507 22.1864 7.94336 22.2122 8.01054C22.2273 8.03945 22.3271 8.17755 22.5098 8.31447C22.6875 8.45177 22.9009 8.54204 22.919 8.55221C23.1271 8.66141 23.1367 8.68142 23.0075 8.66472C22.8824 8.64816 22.623 8.5533 22.4395 8.43417C22.0517 8.16823 22.0567 8.10375 22.0436 8.11652C22.0443 8.12508 22.0003 8.196 22.3979 8.51422C22.5905 8.66165 22.9082 8.80722 23.1511 8.86182C23.3994 8.92101 23.5494 8.91898 23.5723 8.91935C23.6213 8.9239 23.1736 8.84351 23.0038 8.73929C22.921 8.69387 22.9063 8.67551 23.049 8.71506C23.1735 8.75083 23.5675 8.84124 23.9265 8.79738C23.777 8.83855 23.5418 8.86788 23.2737 8.83679C23.7947 8.93369 23.9498 8.84526 24.0437 8.81333C24.0913 8.77841 24.0939 8.74364 24.1118 8.73451C24.1598 8.70778 24.1851 8.73129 24.1892 8.74435C24.1911 8.75883 24.1694 8.75925 24.0604 8.72698C24.0006 8.71236 23.9945 8.6334 23.987 8.63009C23.903 8.61258 24.0164 8.77169 23.8616 8.74738C23.8497 8.74837 23.8724 8.60563 23.7725 8.71885C23.7393 8.76521 23.7861 8.69126 23.8225 8.58614C23.8222 8.62943 23.8108 8.69008 23.8063 8.72798C23.8193 8.72017 23.8605 8.65185 23.8874 8.58614C23.9146 8.52052 23.9148 8.51332 23.91 8.58112C23.898 8.71468 23.8916 9.03886 23.888 9.1042C23.8695 9.42029 23.8129 9.29832 23.7888 9.39413C23.7807 9.43396 23.7771 9.50626 23.7812 9.6437C23.9129 9.30168 23.9452 10.9197 23.8287 10.8303C23.9766 11.0555 23.8811 12.4329 23.8885 13.0822C23.8928 13.4947 23.9713 14.323 23.9665 14.4558C23.9604 14.6149 23.8598 14.5638 23.8433 14.8541C23.8385 14.9357 23.9284 15.7861 23.8428 16.5353C23.8262 16.6764 23.6647 16.9917 23.6161 16.7198C23.533 16.2613 23.6504 15.386 23.551 15.3992C23.4443 15.4138 23.5334 16.5878 23.5273 16.9052C23.4982 18.3653 23.3645 17.528 23.3309 17.5638C23.2499 17.6671 23.2726 18.4624 23.2661 18.4974C23.2363 18.6358 23.1558 18.0733 23.1047 18.064C23.0381 18.0571 22.9383 18.8303 22.9114 18.6558C22.873 18.4015 22.955 17.6967 22.9491 17.6488C22.8705 17.0671 22.7369 17.8722 22.6674 18.094C22.6459 18.1616 22.6011 17.8952 22.5957 17.9512C22.5143 18.8032 22.8154 18.122 22.8087 18.6897C22.8028 19.1915 22.6854 18.5496 22.6804 18.5679C22.6749 18.5934 22.685 19.1942 22.6519 19.29C22.6352 19.3389 22.3989 17.7738 22.3131 17.8454C22.345 18.3441 22.3773 18.8423 22.4097 19.3417C22.2962 19.3812 22.3618 18.6631 22.3481 18.5893C22.3206 18.4402 22.2734 18.8585 22.2368 18.8402C22.2135 18.8329 22.1187 18.3465 22.0963 18.7878C22.0885 18.9407 22.1772 19.258 22.1097 19.8142C21.9545 17.8867 21.9252 19.2285 21.8861 19.2836C21.847 19.3393 21.7276 18.425 21.7736 19.5394C21.5522 19.5926 21.7027 19.5197 21.6551 19.2004C21.597 18.8152 21.5468 19.7135 21.5657 18.292C21.4633 18.3729 21.5006 19.5191 21.4938 19.5772C21.4877 19.6293 21.4298 19.3787 21.4147 19.4691C21.2412 20.5419 21.314 19.8071 21.1934 20.121C21.1828 20.1467 21.1607 21.1615 21.1224 20.3919C21.0519 18.9901 21.1841 18.3965 20.8624 18.1701C20.7516 19.2129 20.9892 20.4644 21.0001 20.7814C21.0168 21.2614 20.9402 20.766 20.9236 20.8255C20.9183 20.8446 20.9336 21.2628 20.9285 21.2666C20.6958 21.5722 20.8781 19.4151 20.818 18.7387C20.7866 18.9166 20.7554 19.1062 20.724 19.2848C20.7161 19.0413 20.7082 18.7939 20.7004 18.5466C20.6584 19.7237 20.6739 18.589 20.4714 18.3019C20.4259 18.2373 20.5208 19.0044 20.3765 18.1289C20.3648 18.7771 20.3197 18.5723 20.39 19.1593C20.3113 19.144 20.1889 17.8282 20.1364 17.3054C20.0943 19.1525 20.3548 18.0899 20.2445 19.6878C20.3491 19.9814 20.3103 19.2229 20.3278 19.2822C20.3911 19.5058 20.3139 20.0291 20.531 20.6489C20.5666 20.7503 20.6576 20.3149 20.6686 20.9553C20.6698 21.0291 20.5921 21.4367 20.5856 21.4316C20.5164 21.3783 20.5325 20.9762 20.5035 20.958C20.4764 20.945 20.5031 21.3926 20.4956 21.3956C20.4106 21.4104 20.4543 21.0218 20.4288 21.0783C20.3739 21.2019 20.2266 22.8215 20.2318 20.7106C20.3694 22.4608 20.3328 20.935 20.2773 20.2509C20.2636 20.0781 20.2114 20.0323 20.1872 19.7861C20.1559 19.4658 20.1706 19.0934 20.1569 18.925C20.142 18.7481 20.0477 19.763 20.0459 18.2987C19.9447 19.0447 20.1084 20.3605 20.0414 21.0902C19.905 22.5591 19.8108 20.0696 19.7857 19.8087C19.7794 19.7395 19.7167 19.9737 19.7113 19.9274C19.7027 19.849 19.6974 18.4294 19.637 18.2903C19.5765 18.1515 19.653 18.8127 19.5948 18.8561C19.5553 18.8879 19.4412 17.1735 19.4372 18.1008C19.4347 18.7463 19.6265 19.9198 19.459 20.1223C19.4202 19.1832 19.3806 18.2404 19.3437 17.2967C19.2904 17.8127 19.2379 18.333 19.1856 18.8502C19.1372 17.7907 19.189 16.8776 19.0732 15.87C18.9169 18.292 18.8873 15.0902 18.8627 15.0539C18.8469 15.0414 18.6958 15.9978 18.6682 16.1529C18.582 15.3072 18.5055 12.7422 18.321 14.2471C18.3635 13.9768 18.2349 13.3159 18.2263 13.3247C18.1338 13.4092 18.2202 14.8516 18.132 14.6174C18.0291 14.3459 18.1547 13.9618 18.1372 13.5432C18.0492 11.393 17.5699 11.9893 17.6259 9.8284C17.6089 9.87141 17.5919 9.91432 17.575 9.95719C17.5755 9.78663 17.5761 9.61451 17.5768 9.44082C17.5801 8.98337 17.5846 8.51583 17.658 7.88748C17.698 7.57016 17.7555 7.19683 17.8992 6.73199C18.0336 6.27379 18.3187 5.72004 18.4961 5.45069C19.3984 4.07642 20.5969 2.93443 22.6585 2.43558C23.3527 2.27646 24.3912 2.26871 25.3056 2.65601C26.2267 3.0353 26.824 3.63645 27.1986 4.11223C28.791 5.98365 29.1518 8.45466 29.4678 9.56866C29.5155 9.78431 29.6811 10.71 29.718 10.9162C29.722 10.9384 29.7245 10.9539 29.7253 10.9615C29.7298 11.0039 29.7168 10.9777 29.6959 10.9223C29.6399 10.7796 29.5284 10.4106 29.5638 10.6893C29.5661 10.7065 29.5883 10.8039 29.6229 10.9422C29.7579 11.4751 30.076 12.6583 30.1087 12.5352C30.0574 12.3053 29.8297 11.634 29.8187 11.5204C29.6962 10.6942 31.227 15.9107 31.0125 17.8537C30.9965 18.3939 30.904 18.7001 30.8787 18.8213C30.9687 18.5361 31.0359 18.2056 31.0564 17.855C31.0754 17.739 31.0924 17.6228 31.1077 17.5078C31.1055 17.6227 31.1015 17.7393 31.0956 17.856C30.9195 19.9076 30.0031 20.5122 29.6855 20.9152ZM24.1571 8.62295C24.2109 8.58614 24.2148 8.5656 24.2029 8.6502C24.1915 8.72878 24.1732 8.88042 24.182 9.00409C24.1894 9.1103 24.2266 9.25219 24.2659 9.39058C24.3526 9.76221 24.438 10.0624 24.2146 9.82826C24.2081 9.68368 24.2016 9.53796 24.1951 9.3911C24.1833 9.16249 24.1771 8.94921 24.1771 8.78821C24.1744 8.63052 24.1912 8.52236 24.1571 8.62295ZM23.0546 12.0746C22.9755 11.5792 23.2422 11.9075 23.2755 12.3283C23.2795 12.3753 23.169 12.7537 23.0546 12.0746ZM22.0481 8.10786C22.0451 8.09395 22.0974 8.21285 22.1008 8.23087C22.1013 8.32507 22.0443 8.22387 22.0204 8.17017C21.9954 8.11449 22.0137 8.11136 22.0481 8.10786ZM36.7943 19.3781C36.3664 19.4391 36.6967 19.5602 36.9543 19.4648C36.9708 19.4586 36.8227 19.3742 36.7943 19.3781ZM36.4887 19.4123C36.1325 19.3097 35.5167 19.7232 36.0394 19.6017C36.0896 19.5887 36.5041 19.4161 36.4887 19.4123ZM22.7148 10.3902C22.7812 10.4255 22.8672 10.8984 22.9046 11.1092C22.8531 11.1151 22.7667 10.5776 22.7148 10.3902ZM29.7357 21.532C29.7391 21.4929 28.8275 21.8506 28.3756 22.0656C28.2184 22.1385 28.0788 22.2033 28.0438 22.2303C28.1216 22.1958 28.2466 22.1445 28.3845 22.0873C28.8543 21.8911 29.735 21.5657 29.7357 21.532ZM33.5188 20.1132C33.4798 20.1157 32.9826 20.2837 33.0082 20.3174C33.2713 20.2852 33.6926 20.0969 33.5188 20.1132ZM37.2747 17.6779C37.278 17.669 37.3511 17.7114 37.3907 17.69C37.4325 17.6783 37.4264 17.5594 37.358 17.4367C37.3477 17.4225 37.3235 17.4327 37.3013 17.4635C37.2789 17.4927 37.2622 17.5469 37.2574 17.5355C37.2388 17.4886 37.2328 17.459 37.2329 17.4393C37.1954 17.545 37.2449 17.8519 37.2914 17.9293C37.3021 17.9538 37.3123 17.9737 37.318 17.981C37.3919 18.0785 37.3669 17.9984 37.3383 17.9113C37.3108 17.8256 37.2713 17.6812 37.2747 17.6779ZM36.4644 18.7857C36.4506 18.8586 36.1247 19.1012 36.0346 19.1422C36.0194 19.149 36.014 19.023 35.8677 19.1379C35.7466 19.2296 35.999 19.1901 35.7385 19.3442C35.4692 19.4968 35.7742 19.2087 35.746 19.2187C35.7185 19.2338 35.3332 19.5271 35.3107 19.463C35.3022 19.4186 35.7522 19.1783 35.8384 19.0981C35.9546 18.9984 35.7624 19.0438 35.9717 18.908C36.1001 18.8215 36.1176 18.9814 36.1479 18.9666C36.1816 18.9553 36.523 18.542 36.4635 18.786C36.4638 18.7859 36.4641 18.7858 36.4644 18.7857ZM37.2421 17.4096C37.2366 17.416 37.233 17.4251 37.2329 17.4393C37.2357 17.4274 37.239 17.4176 37.2421 17.4096ZM24.0689 8.76218C24.1203 8.76554 24.0989 8.86182 24.0388 8.88382C24.034 8.88699 24.0303 8.88808 24.027 8.88775C24.021 8.88387 24.0159 8.88056 24.0164 8.86996C24.0074 8.82984 24.0614 8.7602 24.0689 8.76218ZM37.3543 17.4113C37.3257 17.4469 37.2939 17.4687 37.2866 17.4327C37.2781 17.403 37.2678 17.3488 37.2421 17.4096C37.2723 17.3804 37.3697 17.3997 37.3543 17.4113ZM24.2729 16.0909C24.2677 16.117 24.2549 16.1352 24.2295 16.1421C24.2454 16.0738 24.2592 16.0646 24.2729 16.0909ZM24.3895 17.2927C24.4878 17.6487 24.4435 16.9108 24.3761 16.9072C24.3577 16.916 24.3885 17.283 24.3895 17.2927ZM37.3502 19.3305C37.3051 19.3276 37.9711 19.0257 36.9918 19.2957C37.5225 19.2728 36.9678 19.3521 36.979 19.3733C37.0041 19.4265 37.8876 19.2966 38.0954 19.3199C38.2474 19.2026 37.4936 19.34 37.3512 19.3304C37.3509 19.3304 37.3505 19.3305 37.3502 19.3305ZM30.7226 21.0564C30.7502 21.0225 30.8103 21.0015 30.8302 20.9937C30.9899 20.9558 31.174 20.9218 31.3185 20.8907C31.2455 20.9495 31.0484 21.0002 30.8407 21.0429C30.8232 21.0458 30.7742 21.051 30.7226 21.0564ZM21.4792 23.5971C21.9212 23.6289 22.2017 23.649 22.6883 23.7245C22.7309 23.7315 22.7995 23.7428 22.885 23.7604C22.9293 23.7695 22.9807 23.7807 23.0504 23.7983C23.0601 23.8008 23.0647 23.802 23.0807 23.8062C23.1095 23.8137 23.1416 23.8224 23.1786 23.8333C23.2532 23.8556 23.3448 23.8837 23.485 23.9404C23.6276 24.0021 23.8132 24.0717 24.1476 24.3087C24.4373 24.5508 25.148 24.9991 25.4016 26.3832C25.5133 27.0426 25.3294 27.8324 25.0774 28.2806C24.8836 28.6483 24.6618 28.9024 24.4716 29.0853C24.0849 29.4462 23.8158 29.5695 23.6204 29.6646C23.2345 29.8355 23.0743 29.8563 22.9413 29.8882C22.814 29.9143 22.736 29.9243 22.6713 29.9324C22.6304 29.9373 22.6215 29.9379 22.5994 29.9401C22.5226 29.9472 22.4694 29.9501 22.422 29.9522C22.318 29.9566 22.2865 29.9554 22.2428 29.9552C22.2012 29.9547 22.1622 29.9538 22.1243 29.9526C21.9973 29.9473 21.9177 29.9389 21.8403 29.9302C21.6053 29.924 21.6056 29.9148 21.5594 29.9096C21.5198 29.9034 21.5089 29.8992 21.4923 29.8946C21.4625 29.8857 21.4515 29.8784 21.4521 29.8723C21.4523 29.8663 21.4637 29.8615 21.4942 29.8588C21.5113 29.8575 21.5218 29.856 21.5617 29.8566C21.6084 29.8564 21.6067 29.8601 21.8403 29.8613C21.899 29.8567 21.9705 29.8529 22.0506 29.8497C22.0827 29.8482 22.1534 29.8464 22.2154 29.8442C22.2477 29.8432 22.2813 29.8419 22.3181 29.8404C22.3795 29.8377 22.4451 29.8349 22.5518 29.8253C22.5798 29.8226 22.6064 29.82 22.648 29.8151C22.7528 29.7989 22.8575 29.7983 23.2003 29.6975C23.3818 29.6303 23.6248 29.5889 24.1488 29.2045C24.4106 28.9861 24.7468 28.7325 25.0784 27.9964C25.5165 27.0996 25.2484 25.7432 24.8325 25.2038C24.4325 24.6123 24.1087 24.4283 23.8976 24.2858C23.6816 24.1531 23.5431 24.0954 23.4336 24.05C23.2232 23.9661 23.1016 23.9375 23.0398 23.9207C22.8229 23.8665 22.7301 23.8563 22.662 23.8444C22.5583 23.8279 22.4565 23.8144 22.3896 23.8047C22.3108 23.7937 22.2339 23.783 22.1617 23.7726C22.0842 23.7616 22.0073 23.7504 21.9313 23.7389C21.8826 23.7316 21.3481 23.611 21.4792 23.5971ZM13.5383 36.3401C13.3943 36.4894 13.4843 35.9216 13.6187 35.5503C13.6483 35.4668 13.8339 35.1755 13.7716 35.5424C13.64 35.4997 13.4635 36.0504 13.5383 36.3401ZM37.3971 17.5068C37.4547 17.5781 37.2728 17.8182 37.1438 17.9812C37.1696 17.8406 37.3563 17.5633 37.3971 17.5068ZM17.6799 30.1927C17.5075 30.2472 17.4316 30.3838 17.4633 30.38C17.6041 30.3637 17.8908 30.1752 17.6799 30.1927ZM37.546 17.9594C37.5607 17.9646 37.5407 17.898 37.5275 17.8388C37.5007 17.7128 37.4889 17.5116 37.4091 17.5092C37.41 17.5414 37.4307 17.7532 37.4859 17.8548C37.5077 17.9042 37.5374 17.9571 37.546 17.9594ZM31.0415 21.0278C31.0992 21.026 30.9986 21.0633 30.8541 21.1049C30.8318 21.123 30.7045 21.1479 30.6377 21.1419C30.6412 21.1097 30.8205 21.0723 30.8452 21.0637C30.9388 21.0432 31.0157 21.0287 31.0415 21.0278ZM15.2893 31.4588C15.1755 31.5288 14.9533 31.7131 14.9642 31.7599C14.9619 31.8233 15.2665 31.5454 15.2893 31.4588ZM14.9833 22.375C14.998 22.3984 14.2857 22.2744 13.9985 22.1436C13.4514 21.8881 14.9643 22.3465 14.9833 22.375ZM19.0697 29.7761C19.5237 29.8139 19.0198 29.784 19.0548 29.8805C19.3364 29.8347 20.1249 29.8021 19.581 29.7363C19.475 29.724 19.2065 29.7624 19.0697 29.7761ZM18.6718 29.8096C18.6304 29.849 18.3728 30.0116 18.6145 29.9494C18.7263 29.9214 18.9017 29.7762 18.6718 29.8096ZM10.8554 21.1783C10.3955 20.9737 12.5657 21.5439 12.64 21.6087C12.6716 21.6265 12.6917 21.6404 12.7024 21.6503C12.7918 21.6472 13.219 21.7742 13.2466 21.8571C13.1214 21.8105 12.7722 21.7099 12.7347 21.6911C12.7183 21.6828 12.7064 21.676 12.6984 21.6703C12.5255 21.6676 10.9274 21.1924 10.8554 21.1783ZM10.4857 19.3849C10.484 19.3658 10.4828 19.3469 10.4821 19.3284C10.4038 19.6443 10.2518 19.9441 10.1147 20.1449C9.97667 20.3481 9.87381 20.4615 9.80932 20.5447C9.67832 20.7049 9.69781 20.7451 9.73954 20.7215C10.0516 20.5238 10.2568 20.2416 10.3336 20.1054C10.415 19.9612 10.4115 19.9296 10.3834 19.9545C10.3291 20.0086 10.1246 20.2406 10.1372 20.2104C10.194 20.1527 10.5104 19.6104 10.532 19.3371C10.5227 19.3911 10.5095 19.4183 10.4859 19.3834C10.4858 19.3838 10.4858 19.3844 10.4857 19.3849ZM10.1672 21.0177C10.1878 21.0158 10.6079 21.0947 10.6288 21.104C10.7992 21.1748 10.577 21.1435 10.3695 21.1051C10.1669 21.0672 9.97463 21.0216 10.1672 21.0177ZM34.5139 20.166C34.2229 20.2652 34.4712 20.0759 34.6625 20.0203C34.6779 20.0159 34.7673 20.0761 34.5139 20.166ZM18.4784 29.8741C18.4593 29.8738 18.2861 29.9038 18.093 29.9609C17.5468 30.1195 16.8012 30.4482 16.906 30.4932C16.9789 30.449 17.6224 30.1922 18.1169 30.0336C18.3978 29.9405 18.6462 29.8814 18.4784 29.8741ZM12.7872 38.2235C13.1675 38.6485 12.8984 38.0855 12.4861 37.915C12.3564 37.8582 12.6855 38.111 12.7872 38.2235ZM39.0873 19.0053C39.1459 19.0332 39.1368 19.0185 39.1384 18.9973C39.1207 18.9839 39.1214 18.9669 39.1384 18.952C39.1366 18.9223 39.1531 18.9049 39.082 18.9284C39.0748 18.9304 39.0803 19.0021 39.0873 19.0053ZM13.2512 37.5828C13.2315 38.1205 13.1702 38.262 13.1025 38.1777C13.04 38.0899 12.9837 37.7076 13.1616 36.9563C13.1702 37.0062 13.1793 37.0546 13.1884 37.1042C13.5487 35.3418 13.2103 37.011 13.1939 37.4093C13.1832 37.5654 13.2582 37.4436 13.2517 37.5818C13.2515 37.5821 13.2514 37.5825 13.2512 37.5828ZM12.9547 37.8776C13.747 38.0908 12.6826 38.0495 11.8188 37.8949C12.0366 37.9154 12.335 38.0378 12.497 38.1602C12.2805 37.9792 11.9963 37.8726 11.8264 37.838C12.2518 37.8498 12.4858 37.8653 11.8433 37.7129C11.8977 37.716 11.9621 37.723 12.0369 37.7375C11.9659 37.7186 11.9017 37.7064 11.8453 37.6983C12.5561 37.7863 12.6744 37.7971 12.7103 37.8265C12.7348 37.8517 12.6117 37.8701 12.6381 37.876C12.7026 37.8908 12.915 37.8661 12.9547 37.8776ZM13.1501 38.7025C13.1377 38.6971 13.1703 38.4014 13.1681 38.254C13.2094 38.352 13.2173 38.5522 13.2146 38.6469C13.2107 38.7384 13.1866 38.7734 13.1501 38.7025ZM11.3455 20.7384C11.2675 20.7562 11.1615 20.7244 10.9044 20.4065C11.0158 20.4773 11.2119 20.6437 11.3455 20.7384ZM23.8022 8.56778C23.7783 8.65928 23.7391 9.1693 23.8159 9.01975C23.8191 9.01246 23.8222 8.86826 23.8237 8.75461C23.825 8.63818 23.8226 8.56915 23.8022 8.56778ZM14.5218 31.9759C14.5048 31.985 14.4469 32.094 14.4838 32.0332C14.4032 32.3277 14.3668 32.5092 14.4737 32.2729C14.4883 32.2397 14.5172 32.1556 14.5501 32.0533C14.5406 32.0964 14.5349 32.0875 14.5546 32.0368C14.5727 31.9889 14.5856 31.94 14.5218 31.9759ZM20.1857 29.6418C20.0701 29.6388 19.6177 29.6719 19.6121 29.6911C19.5833 29.7461 20.1328 29.692 20.1857 29.6418ZM23.7043 9.77286C23.6972 9.81222 23.7191 10.7756 23.7516 10.6674C23.8126 10.47 23.7276 9.62974 23.7043 9.77286ZM33.4902 20.725C33.4254 20.7492 33.3149 20.7061 33.2918 20.7125C33.2489 20.7361 31.9939 21.1142 32.4518 20.8881C32.5508 20.8663 34.286 20.3409 34.463 20.2424C34.5859 20.3064 33.862 20.4913 33.6847 20.5577C33.6543 20.5703 33.6636 20.6591 33.4906 20.7244C33.4905 20.7246 33.4904 20.7247 33.4902 20.725ZM10.3918 19.8596C10.3708 19.8788 10.3687 20.0214 10.348 19.9229C10.3304 19.8411 10.3746 19.5546 10.4141 19.5684C10.3649 19.9441 10.4443 20.0408 10.3918 19.8596ZM10.36 19.7813C10.4633 19.9336 10.3716 19.8529 10.2294 19.702C10.2563 19.7405 10.306 19.8177 10.3292 19.8464C10.3634 19.8365 10.3056 19.71 10.2656 19.6701C10.3159 19.727 10.3522 19.7697 10.36 19.7813ZM17.7898 29.7778C17.6579 29.8399 18.1113 29.7859 18.0223 29.8361C17.9659 29.8658 17.648 29.9389 17.5624 30.0039C17.5387 30.0221 17.8774 29.9942 17.9656 29.9615C18.0815 29.9175 17.9661 29.8922 18.0571 29.8519C18.0626 29.8493 18.0693 29.8466 18.0772 29.844C18.4237 29.7312 18.7914 29.7085 19.1915 29.6592C19.2281 29.6544 18.939 29.6393 19.2507 29.6027C19.3003 29.5975 19.5966 29.6377 19.9928 29.6168C20.2568 29.5405 20.5097 29.5165 20.7628 29.5207C20.8893 29.5229 21.0152 29.5322 21.1465 29.5464C21.2102 29.5533 21.28 29.5618 21.3508 29.5711C21.3901 29.576 21.4269 29.581 21.474 29.5867C21.4968 29.5895 21.527 29.593 21.5615 29.5965C21.616 29.6002 21.6158 29.607 21.8403 29.6109C21.9829 29.6147 22.084 29.6193 22.2731 29.6167C22.3015 29.6165 22.3967 29.6142 22.4998 29.6061C22.5275 29.6039 22.5584 29.6012 22.5953 29.5972C22.6026 29.5964 22.6584 29.5905 22.7329 29.5787C22.8087 29.5661 22.9014 29.5516 23.0677 29.5053C23.2412 29.4417 23.4658 29.4296 24.0302 29.0155C24.1711 28.9043 24.3359 28.7558 24.5084 28.5347C24.5941 28.4243 24.681 28.2953 24.7615 28.1454C24.8429 27.999 24.9646 27.7148 25.0218 27.4513C25.3108 26.2731 24.6615 25.2259 24.3152 24.907C23.9389 24.5302 23.71 24.4322 23.5466 24.3438C23.3838 24.2638 23.2808 24.2277 23.1982 24.199C23.1164 24.1713 23.0573 24.1548 23.0078 24.1415C22.9672 24.1309 22.9696 24.1316 22.952 24.1272C22.8434 24.1007 22.7807 24.0896 22.7245 24.0794C22.6668 24.0693 22.6299 24.0637 22.6064 24.0601C22.5531 24.0519 22.5046 24.0453 22.4549 24.0389C22.1353 23.999 21.8876 23.9811 21.5974 23.9695C21.6269 23.9833 21.8971 24.0282 22.2104 24.0788C22.2918 24.0919 22.3721 24.1049 22.4676 24.1208C22.5216 24.1295 22.5737 24.1384 22.6311 24.1489C22.6759 24.1567 22.7284 24.166 22.7968 24.1803C22.8315 24.1876 22.8709 24.1963 22.9208 24.2087C22.9333 24.2118 22.9465 24.2151 22.9606 24.2188C22.9679 24.2207 23.0386 24.2392 23.0959 24.2572C23.2294 24.3084 23.3773 24.3172 23.842 24.6189C24.0648 24.7904 24.4698 25.0375 24.8145 25.8406C24.9765 26.2348 25.0575 26.7868 24.9645 27.2921C24.9211 27.5437 24.8422 27.778 24.7479 27.9777C24.6633 28.1545 24.598 28.258 24.5188 28.373C23.8617 29.2141 23.4823 29.2317 23.2672 29.3466C22.843 29.4955 22.7506 29.4819 22.6393 29.5026C22.526 29.5161 22.5094 29.5155 22.4624 29.5189C22.3863 29.5234 22.3235 29.5247 22.2945 29.525C22.2407 29.5252 22.2065 29.5247 22.1947 29.5248C22.0403 29.5253 21.9756 29.5225 21.8403 29.5203C21.6368 29.5172 21.6265 29.5108 21.5766 29.5077C21.5391 29.5044 21.5146 29.5017 21.4886 29.499C21.4434 29.494 21.4043 29.4896 21.365 29.4852C21.2916 29.4769 21.2178 29.469 21.1471 29.4621C21.0018 29.4478 20.8552 29.4363 20.7037 29.4278C20.4007 29.4107 20.0858 29.4069 19.7801 29.419C19.1673 29.4412 18.6089 29.5362 18.2413 29.6388C18.0383 29.6963 18.1513 29.715 18.0674 29.7425C18.0377 29.7526 18.032 29.7352 18.0148 29.723C17.9896 29.7101 17.9422 29.7055 17.7898 29.7778ZM23.7597 8.51432C23.6665 8.49932 23.6913 8.81002 23.6854 9.09181C23.7647 8.99766 23.7246 8.55491 23.7597 8.51432ZM15.1485 23.1344C15.2934 23.1616 15.7496 23.2712 15.7939 23.2503C15.8471 23.2254 15.1877 23.0827 15.1485 23.1344ZM24.1267 25.7198C24.1301 25.7357 24.1743 25.973 24.2253 26.1628C24.2725 26.3457 24.3274 26.5156 24.3301 26.5285C24.3933 26.8178 24.2586 26.5077 24.1649 26.1398C24.0596 25.7405 24.0244 25.2376 24.1267 25.7198ZM28.8451 34.9471C28.9539 35.1682 29.0642 35.3807 29.0192 35.4717C28.9878 35.3429 28.7891 34.9418 28.8451 34.9471ZM29.147 39.495C29.0932 39.5695 28.9633 39.2603 28.7852 38.8525C28.8503 38.9774 28.8656 39.0222 28.8754 39.0436C28.8777 39.0279 28.8827 38.9949 28.8155 38.8374C29.0183 39.1809 29.1902 39.469 29.147 39.495ZM11.1701 20.9886C10.8342 20.6317 10.7994 20.8022 10.6273 20.5179C10.5986 20.4685 10.7093 20.1468 11.0019 20.63C11.0543 20.714 10.7388 20.4894 11.1701 20.9886ZM13.2052 36.7079C13.1627 36.5756 13.2538 36.1865 13.3165 35.9181C13.3481 35.9889 13.2297 36.5245 13.2052 36.7079ZM23.6498 11.5091C23.5633 11.7726 23.6473 13.0005 23.7019 12.6957C23.7087 12.6489 23.6483 11.6814 23.6498 11.5091ZM37.2808 18.2701C37.2059 18.4362 37.3063 18.3486 37.4139 18.1945C37.4983 18.0736 37.5696 17.9283 37.5776 17.85C37.558 17.8942 37.4537 18.0466 37.3646 18.1608C37.3191 18.2199 37.2838 18.2632 37.2808 18.2701ZM29.6941 39.5398C29.6873 39.5449 29.2775 39.4924 29.2504 39.4833C29.0697 39.4212 29.3066 39.442 29.5037 39.4668C29.7027 39.492 29.8566 39.5202 29.6941 39.5398ZM27.6051 32.3433C27.7548 32.4773 28.3026 33.542 28.3621 33.793C28.1877 33.6205 27.4339 32.1855 27.6051 32.3433ZM12.596 22.1765C12.3489 22.0053 12.1291 21.8064 11.9247 21.5946C12.0021 21.6092 12.5884 22.1378 12.596 22.1765ZM29.0682 39.5626C29.0798 39.5698 29.0932 39.5725 29.103 39.579C29.092 39.5734 29.0802 39.5681 29.0682 39.5626ZM20.0079 23.9249C20.3377 23.9768 20.28 23.8812 20.2588 23.8765C20.0083 23.823 19.6348 23.8656 20.0079 23.9249ZM23.6101 8.65114C23.524 8.69372 23.564 9.10098 23.5534 9.39593C23.5531 9.40302 23.5528 9.40998 23.5524 9.41689C23.5559 9.41154 23.5591 9.40449 23.5621 9.39583C23.6106 9.26326 23.6026 8.77609 23.6101 8.65114ZM13.9882 38.0033C14.3117 38.0682 13.0556 38.2701 12.7576 38.1672C12.7537 38.1339 13.9601 38.0202 13.9882 38.0033ZM37.7932 17.6172C37.8251 17.6228 37.8435 17.5598 37.8359 17.5268C37.8292 17.4915 37.8023 17.4853 37.7873 17.4862C37.7775 17.4868 37.7762 17.501 37.775 17.5348C37.7744 17.567 37.7736 17.6139 37.7932 17.6172ZM12.0662 38.0679C12.0026 38.0695 11.8906 38.0455 11.8022 38.0168C11.9065 38.0128 12.003 38.0131 11.9253 37.9735C11.8901 37.9562 11.8503 37.946 11.8124 37.9422C11.9631 37.9682 12.0938 38.0668 12.0662 38.0679ZM15.8903 30.5544C15.8254 30.5708 15.2398 31.0094 15.5287 30.9056C15.7271 30.835 15.7122 30.7402 15.7548 30.7147C15.7917 30.6803 16.943 30.2129 15.8903 30.5544ZM19.7278 33.5038C19.5386 33.7983 19.2648 34.1122 19.0474 34.3925C19.1064 34.2573 19.5969 33.5953 19.7278 33.5038ZM36.8673 18.9576C36.9172 18.9486 37.4005 18.4229 37.4841 18.2424C37.5146 18.1878 37.5141 18.1735 37.4628 18.2279C37.4334 18.2587 37.3874 18.3113 37.3177 18.3883C37.2998 18.4362 36.6985 19.0299 36.8673 18.9576ZM11.1701 20.9886C11.2125 21.033 11.2595 21.085 11.3124 21.1464C11.2572 21.0881 11.2109 21.0351 11.1701 20.9886ZM15.3163 23.3266C15.1909 23.3506 15.7698 23.4701 15.9566 23.4738C16.0164 23.4285 15.3267 23.3246 15.3163 23.3266ZM19.0813 34.4533C18.9758 34.6312 18.7241 34.9012 18.569 35.093C18.5631 35.0362 18.9928 34.4988 19.0813 34.4533ZM28.6646 38.9283C28.6463 38.6281 28.5998 38.1351 28.5471 38.131C28.5547 38.1222 28.562 38.1032 28.5685 38.0712C28.5743 38.0407 28.5228 37.6124 28.5312 37.4155C28.5577 36.826 28.6156 37.9952 28.6794 38.7118C28.6945 38.8859 28.7101 39.026 28.7155 39.0943C28.7217 39.1659 28.7111 39.1555 28.6976 39.1523C28.6836 39.1442 28.681 39.1898 28.6547 39.1437C28.629 39.0971 28.5792 38.9263 28.5261 38.5695C28.571 38.7001 28.6174 38.8233 28.6646 38.9283ZM26.8456 30.8305C26.773 30.5876 26.3437 30.0275 26.4158 30.1962C26.4681 30.3176 26.9186 31.0755 26.8456 30.8305ZM29.669 38.2043C29.686 38.1461 29.6388 37.6056 29.6016 37.5934C29.5805 37.9042 29.6072 38.467 29.669 38.2043ZM25.9165 29.1218C25.8433 28.9758 25.6481 28.8387 25.6542 28.8585C25.7059 29.0278 26.0035 29.3865 25.9165 29.1218ZM11.6904 21.8645C11.8122 22.0166 12.3151 22.3174 12.4531 22.3263C12.4638 22.35 12.5038 22.3999 12.5843 22.4792C12.584 22.479 12.5837 22.4788 12.5835 22.4786C12.6295 22.5297 13.3511 23.0164 14.0007 23.238C14.3061 23.35 14.8336 23.4562 14.9246 23.4603C14.9747 23.4632 14.9341 23.4458 14.7689 23.3966C14.6253 23.3516 14.2823 23.2578 14.0333 23.1487C14.0215 23.1438 14.0097 23.1388 13.9978 23.1337C13.9174 23.0972 14.0072 23.2039 13.6781 23.0542C13.6564 23.0438 13.6654 22.9938 13.5999 22.9615C13.4434 22.9033 12.6646 22.4154 12.4872 22.3187C12.4912 22.3103 12.4861 22.296 12.4693 22.2741C12.3209 22.0919 11.5987 21.7591 11.6904 21.8645ZM29.5886 39.2422C29.6238 39.1435 29.6432 38.8121 29.6013 38.7727C29.5696 38.9387 29.5114 39.4687 29.5886 39.2422ZM37.0293 19.0501C37.1952 18.9443 37.4408 18.5393 37.3226 18.6258C37.2621 18.6823 36.8511 19.174 37.0293 19.0501ZM29.4665 35.9188C29.4803 35.9954 29.4873 36.0509 29.4915 36.0929C29.5896 36.9456 29.5207 36.1341 29.6057 36.3054C29.5845 36.2322 29.5624 36.1587 29.5395 36.0847C29.5185 36.0364 29.4943 35.9808 29.4665 35.9188ZM9.13036 20.5481C9.07439 20.5416 9.09969 20.4042 9.25142 20.4673C9.29509 20.4875 9.1616 20.5512 9.13036 20.5481ZM18.4507 23.4218C18.3075 23.2151 19.2601 23.8171 18.843 23.6754C18.8279 23.6707 18.4676 23.4375 18.4507 23.4218ZM11.6583 20.8223C11.4925 20.861 11.3891 20.8419 10.9837 20.736C11.5984 20.8494 11.045 20.6532 11.6583 20.8223ZM28.5392 38.1359C28.5421 38.1331 28.5442 38.1308 28.5471 38.131C28.5445 38.134 28.542 38.1355 28.5392 38.1359ZM25.1116 27.6704C25.0656 27.4439 24.7769 26.7756 24.8013 26.9991C24.8009 27.0254 25.0254 27.6124 25.1116 27.6704ZM12.4531 22.3263C12.4436 22.3053 12.4563 22.3051 12.4872 22.3187C12.4835 22.3267 12.4717 22.3284 12.4531 22.3263ZM26.7305 30.4315C26.679 30.44 27.1 31.1743 27.121 31.1986C27.4408 31.5674 26.9161 30.7335 26.7305 30.4315ZM39.0587 18.434C39.0699 18.4386 39.035 18.4668 38.9432 18.4631C38.855 18.4616 38.6872 18.4062 38.5743 18.295C38.4888 18.207 38.5972 18.2659 38.7372 18.3245C38.8812 18.3858 39.0148 18.4141 39.0587 18.434ZM13.1158 21.1966C13.354 21.2694 13.6901 21.3785 13.7332 21.4554C13.5762 21.393 13.0987 21.2361 13.1158 21.1966ZM18.2357 23.2035C17.9634 23.1408 17.3734 22.8638 16.9811 22.6828C17.0167 22.5936 18.0111 23.1045 18.2357 23.2035ZM11.2709 21.4311C11.2809 21.4504 11.672 21.8479 11.6569 21.7489C11.6354 21.614 11.1803 21.2982 11.2709 21.4311ZM38.0373 17.577C38.0565 17.5345 38.1229 17.5633 38.1538 17.5986C38.178 17.6447 38.2705 17.8437 38.3836 18.0139C38.4345 18.089 38.3592 18.0408 38.2613 17.9331C38.1618 17.825 38.0821 17.6802 38.0607 17.6343C38.0437 17.6075 38.0356 17.581 38.0373 17.577ZM24.417 24.9337C24.414 24.6151 24.4211 24.5519 24.3969 24.6895C24.3752 24.834 24.3612 25.0993 24.3852 25.3657C24.4303 25.8918 24.5758 26.3105 24.6394 26.4068C24.5531 26.1599 24.4095 25.3928 24.417 24.9337ZM29.8222 37.2997C29.9234 36.2519 29.6318 36.85 29.6793 37.0242C29.6867 37.0494 29.82 37.324 29.8222 37.2997ZM23.3279 14.5946C23.357 14.7711 23.4378 14.1091 23.3751 14.0293C23.3356 13.9761 23.3093 14.4843 23.3279 14.5946ZM28.2202 32.1157C28.2237 32.1694 28.2272 32.2233 28.2304 32.2762C28.2254 32.2367 28.2216 32.1841 28.2202 32.1157ZM29.9567 22.0625C29.1564 21.8124 29.2185 22.0063 29.15 22.0068C28.9895 22.0038 28.6081 21.9294 28.2623 21.944C28.656 21.9113 29.0116 21.8864 29.352 21.8568C29.266 21.8511 28.973 21.8353 28.5712 21.8198C28.141 21.8154 27.7521 21.7558 26.8986 21.8837C26.2198 21.9632 25.1842 22.5829 24.8088 23.3027C24.4345 23.9625 24.4412 24.3327 24.4316 24.3559C24.4638 24.5234 24.4331 23.7976 25.1388 22.9357C25.4899 22.5228 25.9184 22.2703 26.2178 22.1421C26.4924 22.0238 26.6749 21.9846 26.695 21.9793C26.7359 21.9714 26.8207 21.9742 26.918 21.9851C27.0482 22.013 27.1845 22.0662 27.2654 22.0612C27.6819 21.9896 29.7041 22.0411 29.9567 22.0625ZM29.4656 35.3888C29.4963 35.538 29.4422 35.5909 29.4768 35.6482C29.4882 35.6675 29.5507 35.6535 29.5865 35.7189C29.5511 35.6122 29.5117 35.5053 29.4656 35.3888ZM31.0636 21.7271C31.1375 21.7348 31.0961 21.7579 31.0005 21.7861C30.9397 21.8241 30.5311 21.8495 30.5069 21.8422C30.3743 21.8065 30.9166 21.7153 30.9879 21.7276C31.0181 21.7253 31.0438 21.725 31.0636 21.7271ZM26.558 30.0348C26.5427 30.0025 26.1106 29.2246 26.0766 29.2489C26.1706 29.4803 26.7612 30.4844 26.558 30.0348ZM29.6133 35.8009C29.631 35.8799 29.642 35.9936 29.647 36.0664C29.6671 36.2355 29.6887 36.367 29.7376 36.3298C29.7376 36.3294 29.7375 36.329 29.7375 36.3287C29.721 36.239 29.7037 36.1503 29.685 36.06C29.6679 35.9873 29.6427 35.8938 29.6133 35.8009ZM38.2198 17.583C38.3072 17.5307 38.2945 17.5266 38.2594 17.5302C38.2231 17.5359 38.1629 17.5512 38.1201 17.6163C38.173 17.6808 38.1925 17.598 38.2198 17.583ZM38.6121 17.8994C38.6531 17.9358 38.8694 18.1027 39.0284 18.1543C39.1886 18.2106 39.1996 18.1957 39.1378 18.2082C38.8313 18.2237 38.6033 18.2548 38.7025 18.2883C38.7397 18.3006 38.9299 18.29 39.1379 18.2782C39.1735 18.2709 39.1771 18.2652 39.1475 18.2537C39.1196 18.243 39.0653 18.2232 39.0574 18.2219C39.0341 18.219 39.0662 18.2545 39.0626 18.2752C39.0499 18.2855 39.0601 18.3441 38.7713 18.1785C38.8163 18.1856 38.5394 17.8575 38.6121 17.8994ZM38.3272 17.514C38.4407 17.4621 38.2341 17.5432 38.2292 17.508C38.2286 17.4981 38.3104 17.5214 38.3272 17.514ZM37.8832 18.456C37.9808 18.3522 38.1911 18.0535 38.1907 17.8583C38.1113 18.0362 37.9847 18.2535 37.8264 18.4762C37.7853 18.5341 37.7433 18.5908 37.7003 18.6464C37.7078 18.6948 37.7789 18.5849 37.8515 18.4934C37.8623 18.4799 37.873 18.467 37.8837 18.4551C37.8835 18.4554 37.8834 18.4557 37.8832 18.456ZM20.9733 24.2499C20.7051 23.9532 21.4283 24.5152 21.4561 24.5642C21.5158 24.6799 21.0897 24.3774 20.9733 24.2499ZM21.4655 18.0667C21.4445 18.1919 21.3671 18.2723 21.4157 18.5404C21.4673 18.2691 21.519 17.9964 21.5709 17.7242C21.4314 17.5152 21.4888 17.9356 21.4655 18.0667ZM21.0016 19.1147C20.9973 19.0762 20.7963 19.2917 20.9213 18.7925C21.0054 18.4529 21.1441 20.2725 21.0605 20.5994C21.009 20.2382 21.0367 19.4439 21.0016 19.1147ZM20.1821 22.3057C20.1666 22.33 20.1304 21.6471 20.1396 21.5647C20.1921 21.1487 20.2702 22.1941 20.1821 22.3057ZM20.1729 20.1166C20.1412 20.4416 20.0967 19.7246 20.1142 19.5112C20.152 19.4891 20.1774 20.0631 20.1729 20.1166ZM18.7675 19.5401C18.492 19.2633 18.0731 19.4117 18.6093 19.58C18.6349 19.5881 18.7787 19.5525 18.7675 19.5401ZM19.9619 21.6435C19.9952 21.3186 20.0363 22.0331 20.0157 22.2426C19.9781 22.2643 19.9574 21.6919 19.9619 21.6435ZM18.6681 19.1301C18.2643 18.8441 18.2871 19.2247 18.3367 19.2604C18.5435 19.4049 19.3695 19.6343 19.5516 19.6894C18.3529 19.184 18.8621 19.272 18.6681 19.1301ZM16.5338 18.4846C16.1061 18.3624 17.1412 18.8257 17.3773 18.8226C17.1684 18.7429 16.6555 18.5181 16.5338 18.4846ZM14.0036 17.5132C13.7781 17.4304 13.0877 17.2074 12.9561 17.2302C13.2172 17.2864 13.8928 17.5354 14.0036 17.5132ZM13.5209 17.2061C13.1731 17.0338 13.0287 17.2136 13.4687 17.2701C13.4856 17.2724 13.5332 17.2137 13.5209 17.2061ZM11.419 16.6259C11.1708 16.4943 10.8446 16.6483 11.2607 16.7251C11.3849 16.7487 11.445 16.6407 11.419 16.6259ZM18.2515 18.5545C17.9376 18.3842 17.4529 18.3447 18.1527 18.6503C17.8977 18.568 17.644 18.4891 17.3865 18.4114C18.277 18.8565 18.2845 18.6486 18.5471 18.7681C18.9078 18.9374 18.8155 19.0816 18.7188 19.0961C18.9367 19.1204 19.5417 19.3604 20.1483 19.6565C20.1679 19.6657 20.2235 19.6986 20.2424 19.709C20.4973 19.8532 20.7955 20.009 21.0429 20.1362C20.8096 19.9887 20.5276 19.8106 20.285 19.6383C20.265 19.6273 20.2066 19.5927 20.186 19.5832C19.6928 19.2921 19.1746 19.0201 18.8009 18.8383C18.6186 18.7497 18.4254 18.7169 18.2676 18.6449C18.0221 18.5328 18.2688 18.5643 18.2528 18.555C18.2524 18.5549 18.2519 18.5547 18.2515 18.5545ZM8.05518 16.5476C7.42987 16.6739 7.25946 16.8574 7.4365 16.7922C7.59312 16.7472 7.99386 16.6398 8.30053 16.5668C8.32863 16.5571 8.08638 16.5398 8.05518 16.5476ZM19.3525 22.563C19.4249 21.6495 19.5546 22.3236 19.3343 20.3812C19.4774 21.1972 19.4235 20.4252 19.4768 20.5839C19.5192 20.7106 19.4985 21.1879 19.5704 20.9105C19.4963 21.2825 19.5476 22.8562 19.5281 22.9094C19.5281 22.9088 19.5281 22.9082 19.5281 22.9076C19.5197 22.9473 19.3278 22.8491 19.3525 22.563ZM14.1547 16.9978C13.9896 16.6888 13.7857 17.039 13.3711 16.7104C12.6704 16.8192 15.0925 17.2059 15.2779 17.5579C12.8092 16.7231 16.8303 18.3385 15.2262 17.4054C16.5997 18.0214 15.7067 17.5206 15.9419 17.55C16.1947 17.5818 16.9714 17.9302 16.9625 17.8292C16.9621 17.829 16.9616 17.8289 16.9612 17.8287C16.4728 17.6504 15.9818 17.4808 15.4856 17.3194C15.9026 17.6729 14.9194 17.2735 14.6193 17.0125C14.4651 17.0069 14.3091 17.0016 14.1547 16.9978ZM16.8751 18.1241C16.8324 18.099 15.7643 17.7406 15.8193 17.8058C15.9554 17.8731 17.4553 18.406 16.8751 18.1241ZM21.4144 20.2003C21.0492 19.9985 20.5735 19.6962 20.3866 19.671C20.6676 19.8377 21.1791 20.155 21.4144 20.2003ZM9.15961 25.1482C9.62202 25.4688 8.34083 24.318 8.66439 24.7018C8.6766 24.7219 9.13333 25.1341 9.15961 25.1482ZM12.9945 16.7115C12.4871 16.5045 12.6803 16.8014 13.0785 16.8401C13.1017 16.8423 13.0176 16.721 12.9945 16.7115ZM19.3118 21.8236C19.253 21.7941 19.2627 20.4498 19.2553 20.2081C19.3149 20.3448 19.3822 21.8639 19.3118 21.8236ZM22.1961 20.3976C22.1519 20.3541 22.1059 20.3123 22.0581 20.272C21.3496 19.6878 20.5273 19.5034 20.4657 19.4501C20.3882 19.3976 20.5618 19.3922 20.5449 19.3791C20.5385 19.3744 20.5101 19.3571 20.4691 19.3323C20.445 19.3191 20.3743 19.2771 20.3494 19.2656C20.0361 19.0972 19.1927 18.7145 19.1436 18.7013C19.1013 18.6879 19.2581 18.9019 19.0008 18.832C19.2155 18.8926 19.7414 19.1175 20.2832 19.3943C20.3064 19.4051 20.3721 19.4441 20.3944 19.4563C20.8976 19.752 21.62 20.1445 21.685 20.178C21.7753 20.218 21.2441 19.7678 22.0453 20.2935C22.0907 20.3241 22.1402 20.3581 22.1947 20.3967C22.1952 20.397 22.1957 20.3973 22.1961 20.3976ZM20.1043 19.2247C20.3818 19.4233 19.53 19.0099 19.348 18.9096C18.9192 18.6615 20.0627 19.1883 20.1043 19.2247ZM18.1271 18.2785C18.0337 18.2237 17.1868 17.8754 17.0891 17.9061C17.4651 18.1322 18.3309 18.3931 18.1271 18.2785ZM6.74618 16.7101C6.40926 16.9154 5.72228 17.7778 5.64888 18.483C5.61848 18.648 5.60169 18.7941 5.62108 18.815C5.63091 18.7324 5.65265 18.6113 5.67758 18.488C5.74985 18.0536 5.98317 17.5534 6.24856 17.2306C6.50333 16.9114 6.73044 16.7488 6.74618 16.7101ZM18.73 17.2194C18.6944 17.6016 18.655 16.7195 18.6708 16.4644C18.7061 16.4498 18.733 17.1896 18.73 17.2194ZM13.0328 16.1931C12.9284 16.1067 9.87045 15.5339 9.1623 15.6801C9.85867 15.6015 12.8643 16.2041 12.9675 16.252C13.0074 16.256 13.0505 16.2003 13.0328 16.1931ZM19.0229 18.2584C19.3074 18.2971 19.4241 18.4545 19.4584 18.4714C19.7569 18.6171 20.4173 18.9229 20.2412 18.9213C19.6927 18.6058 18.4697 18.1884 19.0229 18.2584ZM5.999 16.9316C5.41825 17.6994 5.45802 17.9992 5.48906 17.8661C5.53519 17.7625 5.75959 17.2354 6.17088 16.8239C7.0404 15.9648 7.89891 15.89 7.62122 15.8978C7.59882 15.9051 7.31307 15.975 6.93266 16.1778C6.55588 16.3642 6.11162 16.777 5.999 16.9316ZM13.3621 16.2557C13.617 16.227 16.3927 17.1746 16.8171 17.3614C16.3836 17.3262 16.0987 17.1281 15.562 16.9525C15.4173 16.9056 15.4402 16.965 15.4248 16.9598C15.1741 16.8789 15.379 16.8874 15.2248 16.8356C15.1357 16.7894 13.0451 16.2503 13.3621 16.2557ZM19.1881 18.2715C19.2917 18.2858 20.0087 18.5858 20.5567 18.8626C20.5871 18.8767 20.6733 18.9279 20.7028 18.944C20.908 19.0628 21.1195 19.178 21.1367 19.1929C21.3174 19.3377 20.9825 19.1802 20.6692 18.9997C20.6406 18.984 20.5565 18.9342 20.5269 18.9204C19.9577 18.6332 19.2534 18.3095 19.1881 18.2715ZM13.1233 16.0849C13.4765 16.027 14.8706 16.5332 13.8801 16.3147C13.7872 16.2941 13.4045 16.1257 13.1233 16.0849ZM6.17449 16.5568C6.1302 16.5703 5.30073 17.4098 5.16957 18.3991C5.11407 18.6922 5.07343 19.0549 5.09502 19.0698C5.10861 18.9969 5.15545 18.681 5.20787 18.4058C5.31448 17.6246 5.90491 16.8024 6.24274 16.5291C6.41464 16.3729 6.51628 16.3023 6.51633 16.2957C6.51809 16.2923 6.41791 16.3426 6.17449 16.5568ZM7.47655 15.6228C7.44754 15.6329 7.58175 15.6108 7.57788 15.6331C7.57207 15.6664 7.46911 15.6671 6.85604 15.9749C6.80193 16.0069 6.71345 16.0161 6.43073 16.1935C6.18113 16.3705 5.47624 16.8198 5.12793 18.0331C5.09958 18.1397 5.07623 18.2602 5.06133 18.3802C5.06034 18.5024 5.07677 18.6429 5.08179 18.6305C5.10671 18.5617 5.13038 18.4808 5.15222 18.3961C5.25343 17.7218 5.79393 16.7609 6.43481 16.3033C7.04342 15.8372 7.55558 15.6852 7.8459 15.5839C8.16552 15.4831 8.31772 15.446 8.30051 15.4326C8.27601 15.4295 8.08786 15.4172 7.47655 15.6228ZM19.2502 18.2157C19.1766 18.1397 19.4377 18.1259 19.6197 18.275C19.697 18.3391 19.4993 18.325 19.2502 18.2157ZM5.81494 22.7397C5.49868 22.2729 5.69626 22.7402 6.1572 23.2897C6.40393 23.592 6.80886 24.0433 6.85496 24.0769C6.8458 24.023 6.43443 23.5281 6.20289 23.2494C5.97984 22.9909 5.83696 22.768 5.81494 22.7397ZM18.1577 16.342C18.1577 16.3424 18.1577 16.3429 18.1577 16.3433C18.1634 15.8672 18.2294 16.1605 18.2307 16.1384C18.2961 15.1176 18.1675 15.3867 18.1483 15.2299C18.1072 14.89 18.2718 14.94 18.1931 14.3641C18.3114 15.314 18.2529 14.451 18.3107 14.4211C18.5462 14.3104 18.2237 15.6932 18.2847 16.168C18.293 16.2351 18.3582 15.7417 18.3835 15.912C18.465 16.463 18.1385 18.1827 18.1577 16.342ZM19.7785 18.337C19.8824 18.3513 20.2713 18.5284 20.6282 18.7236C20.6605 18.7386 20.7521 18.793 20.7833 18.8101C21.0645 18.9934 21.4256 19.2262 21.1982 19.1393C21.1745 19.1301 20.9347 19.0086 20.7349 18.8907C20.7047 18.8742 20.6163 18.8217 20.5851 18.8072C20.0899 18.5554 19.5595 18.3045 19.7785 18.337ZM23.2907 38.3527C23.2007 37.9149 23.1974 38.9393 23.2724 39.1557C23.3031 39.2484 23.3265 38.5346 23.2907 38.3527ZM29.9025 45.2798C30.6518 45.2955 31.7842 44.8135 30.5569 45.0321C30.4276 45.0557 29.8111 45.2476 29.9025 45.2798ZM11.8886 43.5762C12.5005 43.7172 12.472 43.5437 12.0224 43.5128C11.8618 43.4997 11.8704 43.5715 11.8886 43.5762ZM22.9274 32.511C22.9245 32.5597 22.963 33.1223 23.0001 33.0998C23.014 32.89 22.9508 32.1938 22.9274 32.511ZM11.6935 43.5809C12.0548 43.5873 11.4554 43.4132 11.0666 43.4636C11.0407 43.4625 11.0148 43.4613 10.9891 43.4599C11.0138 43.4633 11.0394 43.4667 11.0657 43.47C11.2561 43.492 11.6599 43.5814 11.6935 43.5809ZM12.0786 15.4598C11.7882 15.4661 10.9795 15.2959 10.4575 15.2562C10.4372 15.1508 11.7696 15.3965 12.0786 15.4598ZM26.919 44.7317C27.5096 44.89 27.1786 44.7745 26.751 44.5897C26.317 44.4042 25.8568 44.0851 25.9271 44.184C25.9261 44.2237 26.8562 44.7438 26.919 44.7317ZM14.3991 25.1788C14.0632 25.3852 15.2291 24.9517 14.8795 25.0028C14.8625 25.0043 14.4175 25.1655 14.3991 25.1788ZM19.9558 23.8962C19.6536 23.8668 18.3165 23.9937 18.8419 23.998C18.9272 23.9886 19.935 23.9374 19.9558 23.8962ZM18.0836 15.2031C17.9948 15.341 18.0011 14.5538 18.0151 14.4407C18.0209 14.3969 18.1989 15.0247 18.0836 15.2031ZM16.0708 43.3153C16.4093 43.2322 17.2901 42.9607 17.4229 42.8464C17.0222 43.0338 15.9354 43.2588 16.0708 43.3153ZM23.9639 41.839C24.0474 42.3051 24.8269 43.3847 24.7479 43.0419C24.3345 42.4827 24.3746 42.5491 24.3418 42.5433C24.331 42.5536 24.232 42.4461 23.9639 41.839ZM7.94873 41.4821C8.23095 42.018 8.74285 42.3468 8.68471 42.2794C8.1745 41.6766 7.74708 40.9625 7.94873 41.4821ZM25.3104 35.2988C25.3631 35.3164 25.7261 34.7769 25.6476 34.8267C25.6205 34.8437 25.2722 35.2778 25.3104 35.2988ZM7.12116 24.7829C7.32886 25.0705 6.55142 24.3269 6.40555 24.0697C6.36228 23.9039 7.08287 24.7441 7.12116 24.7829ZM7.9639 33.659C7.89224 33.6029 7.68124 34.7248 7.845 34.3008C7.8847 34.1942 7.98633 33.6752 7.9639 33.659ZM15.8842 24.4097C15.6163 24.5414 15.8637 24.4807 16.2553 24.3718C17.1047 24.1093 18.4361 23.923 17.7825 23.951C17.7319 23.9489 16.8065 24.1058 16.2304 24.2961C16.041 24.3541 15.9026 24.401 15.8842 24.4097ZM21.8885 23.8382C21.8332 23.8289 21.8187 23.7788 21.856 23.7341C21.8724 23.7114 21.9117 23.6911 21.9521 23.6768C21.976 23.67 21.9981 23.6645 22.018 23.6608C22.0269 23.6589 22.0342 23.6573 22.0294 23.6554C22.0129 23.654 22.0418 23.6494 21.8403 23.6465C21.9007 23.6461 21.9618 23.6526 22.0115 23.6691C22.0346 23.6753 21.9971 23.6969 21.9515 23.7184C21.9052 23.74 21.8405 23.7616 21.867 23.7696C21.8738 23.7719 21.9491 23.7759 22.0139 23.7797C22.0514 23.7819 22.1075 23.7816 22.0509 23.7871C22.03 23.7892 21.9969 23.7915 21.9207 23.8011C21.8696 23.8078 21.7998 23.8161 21.6693 23.8435C21.5295 23.8814 21.3644 23.8878 20.8772 24.1329C20.6355 24.2734 20.2539 24.4615 19.7964 25.0974C19.6158 25.3365 19.2452 26.0603 19.257 26.8113C19.2482 27.568 19.5409 28.207 19.8025 28.5761C20.3548 29.3152 20.7044 29.4212 20.918 29.5526C21.1355 29.6622 21.2568 29.7012 21.3512 29.7333C21.4393 29.7623 21.5199 29.7832 21.5386 29.7878C21.5552 29.792 21.5702 29.7956 21.5838 29.7987C21.611 29.805 21.633 29.8097 21.6516 29.8134C21.6887 29.8209 21.7125 29.8248 21.7297 29.8276C21.765 29.833 21.767 29.8324 21.7692 29.8321C21.7484 29.8239 21.5955 29.8025 21.5055 29.7907C21.3976 29.7769 21.3363 29.7698 21.3213 29.7699C21.2688 29.7718 21.3219 29.8626 21.2677 29.867C21.2119 29.8718 20.5619 29.7354 20.2071 29.7008C19.545 29.6359 19.4613 29.698 19.4084 29.6931C19.2481 29.6776 18.9859 29.6007 18.6585 29.5662C17.009 29.3927 14.5004 29.1549 12.9313 28.5709C14.316 28.9917 15.4285 29.0718 16.6152 29.214C16.2559 29.3207 18.3455 29.3112 17.1224 29.3353C17.3757 29.3506 18.4907 29.4662 19.6529 29.5698C20.2366 29.6229 20.8238 29.674 21.3212 29.722C21.4375 29.7333 21.559 29.7456 21.6502 29.7558C21.7027 29.7616 21.7343 29.7655 21.7651 29.7695C21.7776 29.7712 21.7822 29.7721 21.7737 29.7709C21.7544 29.7664 21.7443 29.7726 21.5318 29.7195C21.4497 29.6962 21.3459 29.6728 21.1106 29.5723C20.9902 29.5179 20.8343 29.4487 20.5879 29.2773C20.3526 29.0967 19.9572 28.8351 19.5891 28.0689C19.1702 27.3476 19.3289 25.8472 19.7319 25.3203C20.0456 24.7958 20.3716 24.5433 20.6027 24.3773C21.0729 24.0639 21.291 24.0229 21.4547 23.966C21.7634 23.8787 21.853 23.8788 21.9291 23.8668C21.9564 23.8635 21.9775 23.8613 21.9946 23.8597C22.0617 23.8535 22.0758 23.8536 22.077 23.8532C22.0775 23.8529 22.0539 23.8533 22.0211 23.8533C21.9671 23.8533 21.906 23.8525 21.8403 23.8513C21.9797 23.8522 21.9948 23.8559 22.0063 23.8558C22.0178 23.8563 22.016 23.856 22.0129 23.8554C22.0062 23.8543 21.9872 23.852 21.9727 23.8501C21.9389 23.8458 21.9103 23.8417 21.8899 23.8383C21.8895 23.8383 21.889 23.8382 21.8885 23.8382ZM34.2866 42.8696C34.1855 43.1692 34.5171 42.5806 34.6785 42.0647C34.8559 41.5358 34.9427 40.9902 34.9105 40.8917C34.8739 41.0253 34.7842 41.4521 34.6474 41.8976C34.5221 42.3288 34.303 42.8316 34.2866 42.8696ZM22.9629 40.2916C22.9044 40.0678 22.6646 39.8108 22.6753 38.928C22.6753 38.9272 22.6752 38.9265 22.6751 38.9257C22.6797 38.6689 22.7473 38.9554 22.7588 38.9072C22.7611 38.8817 22.7934 38.1238 22.8548 38.7499C22.9682 39.7512 22.7272 38.8452 22.7826 39.4018C22.7872 39.4395 22.8403 39.7165 22.9246 40.0496C22.9992 40.3625 23.1645 40.8458 23.1604 40.7847C23.1602 40.7807 23.1075 40.6147 23.0731 40.4821C23.0365 40.3439 23.009 40.216 23.0069 40.1813C22.9907 39.9099 23.0703 40.0342 23.066 39.9962C23.0148 39.7953 22.784 38.2278 22.8659 38.0369C22.9171 37.9958 22.9631 40.1904 23.553 41.3949C23.5639 41.4198 23.5717 41.4421 23.5771 41.4622C23.5578 41.4984 23.4435 41.5441 23.4486 41.5848C23.4489 41.5918 23.5434 41.7645 23.7049 42.0566C23.8592 42.3392 24.0937 42.7094 24.1471 42.8012C24.1762 42.854 24.1987 42.896 24.2153 42.9271C24.1687 42.8109 24.3337 43.0582 24.5731 43.359C24.8046 43.6591 25.1499 44.0026 25.1109 44.0007C25.0902 43.9973 24.8295 43.7551 24.6302 43.5141C24.4261 43.2725 24.2743 43.0424 24.2649 43.0261C24.2567 43.0115 24.2503 42.9984 24.2439 42.9865C24.2727 43.0636 24.027 42.7368 23.8204 42.3827C23.6087 42.025 23.4334 41.6699 23.3633 41.5693C23.1657 41.1788 23.1201 41.0172 23.0802 40.9348C23.047 40.8591 23.04 40.8829 23.0907 41.0714C22.9432 40.6692 22.9361 40.5726 22.9289 40.5162C22.9261 40.4652 22.948 40.4892 22.9719 40.5214C23.0228 40.5892 23.0696 40.6745 22.9629 40.2916ZM22.5761 37.1627C22.595 37.2215 22.6138 37.2798 22.6326 37.3377C22.547 36.3394 22.5911 35.2358 22.5465 34.1508C22.5353 33.8763 22.4495 34.1963 22.4615 33.835C22.4711 33.5466 22.5481 33.2257 22.5756 33.3805C22.5826 33.4169 22.5485 34.0062 22.5659 34.3005C22.6179 35.1728 22.6937 34.9503 22.6981 35.0011C22.7026 35.0575 22.6632 35.6139 22.6771 35.9192C22.7145 36.6959 22.7727 37.028 22.7688 38.1553C22.6761 37.5115 22.5732 37.8679 22.5761 37.1627ZM9.67974 28.3028C9.67155 28.1973 10.3968 27.4296 10.645 27.2133C10.6428 27.2745 9.91355 27.9474 9.67974 28.3028ZM27.3531 15.4032C27.1953 15.5574 28.604 15.0332 28.2087 15.1086C28.1196 15.1249 27.5276 15.3342 27.3531 15.4032ZM34.0716 13.3088C34.2846 13.238 33.3943 13.3649 33.4122 13.4342C33.4183 13.4532 34.043 13.3158 34.0716 13.3088ZM24.1798 37.5176C24.1594 37.5503 23.7973 37.9887 23.7815 38.0005C23.4824 38.2406 24.6536 36.7947 24.1798 37.5176ZM43.3631 19.8525C43.5478 19.2604 43.3286 19.8696 43.0742 20.3763C42.8216 20.8874 42.5494 21.3289 42.8236 20.9444C42.8571 20.9267 43.3548 19.9342 43.3631 19.8525ZM40.9712 23.336C41.1428 23.1867 41.8587 22.4364 41.8396 22.4004C41.8279 22.3692 41.0138 23.2157 40.9712 23.336ZM7.47626 41.2813C7.47761 41.4037 7.19757 40.8277 7.07786 40.281C6.94363 39.7187 6.91667 39.1927 6.89487 38.9301C6.97991 38.7791 6.98465 40.3372 7.47626 41.2813ZM17.2231 43.5156C14.4881 44.4158 13.4408 44.1174 13.6297 44.1393C13.8105 44.0709 15.239 44.1507 17.5276 43.3527C17.5571 43.4082 17.5618 43.3898 17.2231 43.5156ZM9.551 43.5547C9.83151 43.6654 10.403 43.8814 11.0005 43.9532C11.1759 43.9745 11.4071 44.0099 11.5958 44.0326C11.5525 44.0552 11.2405 44.024 10.9952 43.9921C10.4491 43.926 9.87537 43.7187 9.551 43.5547ZM25.712 15.9191C25.7311 15.8978 25.7672 15.8745 25.8233 15.8465C26.1909 15.6688 26.933 15.4498 26.7863 15.5387C26.757 15.5556 26.1586 15.7908 25.8446 15.8985C25.7465 15.9301 25.7021 15.9363 25.712 15.9191ZM24.0302 37.8521C24.1728 37.8303 23.3353 38.8297 23.2456 38.896C22.9249 39.1578 23.9947 37.9458 24.0302 37.8521ZM7.54022 33.5115C7.52169 33.2671 7.72189 32.6454 7.83338 32.2496C7.8446 32.4459 7.6256 33.162 7.54022 33.5115ZM6.8826 36.6394C6.88091 36.6069 6.97868 35.9626 6.98842 35.9389C7.13508 35.4237 6.86363 37.2434 6.8826 36.6394ZM17.4511 17.0243C17.4482 17.0057 17.4435 16.5962 17.446 16.5821C17.5097 16.2146 17.5236 17.4448 17.4511 17.0243Z" fill="#FF3474"/>
</g>
<defs>
<clipPath id="clip0_2145_403">
<rect width="39.7419" height="44" fill="white" transform="translate(4.5 2)"/>
</clipPath>
</defs>
</svg>
