<svg width="48" height="48" viewBox="0 0 48 48" fill="none" xmlns="http://www.w3.org/2000/svg">
<g clip-path="url(#clip0_2145_410)">
<path d="M26.6335 11.9503C26.63 11.8933 26.7001 11.745 26.6978 11.7359C26.8422 11.7539 26.6491 12.1273 26.6335 11.9503ZM34.0315 15.4972C33.992 15.3708 33.9525 15.2434 33.913 15.1147C33.9007 15.3861 33.9175 15.7192 33.9167 16.0038C33.9201 16.2629 33.9098 16.5065 33.8873 16.7331C33.8731 16.8709 33.7882 16.5072 33.7632 16.8319C33.7299 17.1631 33.8894 17.1067 33.8311 17.6105C33.8688 18.1914 32.7725 20.7074 32.1791 21.2974C31.7706 21.8484 31.3238 22.3182 30.8922 22.7063C30.6774 22.8998 30.4627 23.0755 30.2784 23.2193C30.1895 23.2889 30.1017 23.3554 30.0515 23.3944C30.0261 23.4141 30.0099 23.4274 30.0199 23.4211C30.0332 23.4111 30.0625 23.395 30.2189 23.263C30.2563 23.2313 30.308 23.1867 30.3837 23.1144C30.4216 23.0781 30.4657 23.0346 30.5182 22.9799C30.5786 22.9167 30.7034 22.7826 30.8445 22.5998C30.9942 22.3981 31.1582 22.196 31.419 21.6616C31.6417 21.1595 31.9991 20.3521 31.8995 18.9706C31.8801 17.6142 30.6943 15.7948 29.9136 15.3015C28.1295 14.0299 27.1321 14.2591 26.7655 14.201C26.4842 14.2 26.2946 14.2186 26.1453 14.2358C25.998 14.2535 25.8877 14.2731 25.8103 14.2878C25.7544 14.2985 25.7086 14.3083 25.6699 14.3169C25.5927 14.3343 25.5428 14.3474 25.5078 14.3566C25.4546 14.3706 25.4372 14.3756 25.4361 14.375C25.4441 14.3697 25.6002 14.3123 25.7388 14.26C26.0378 14.1479 26.3911 14.019 26.7518 13.9027C25.5297 14.4791 26.8232 14.1078 27.1874 13.9241C27.2724 13.8844 27.1387 13.628 28.547 13.2113C29.4568 12.9552 28.7353 13.5899 30.1973 12.9306C28.9433 13.035 30.0887 12.6826 31.0521 12.4127C31.2124 12.3612 32.5934 12.0561 33.2526 11.9299C33.4721 11.8838 33.7949 11.6821 34.1045 11.6325C34.3204 11.5983 34.4912 11.6526 34.8202 11.6106C35.1749 11.5661 35.5425 11.5308 35.9192 11.5088C38.3865 11.3231 40.6463 12.5649 41.6199 13.3086C41.0832 13.1636 41.241 13.3166 41.5184 13.5035C41.7963 13.6921 42.1312 13.8871 42.1496 13.9121C42.2469 14.0494 42.011 13.9071 41.7606 13.7574C41.5114 13.6085 41.2632 13.4651 41.5384 13.6966C41.8457 13.911 42.1015 14.1027 42.3258 14.2711C43.1083 14.8681 43.7323 15.5635 44.2067 16.2253C43.6123 15.2943 45.2871 17.2584 45.26 17.6358C45.3607 17.4896 45.8147 18.5406 46.0405 19.4634C46.8583 21.832 46.0622 24.3607 45.3153 25.519C45.1253 25.8372 44.9634 26.0754 44.8788 26.2198C44.8142 26.3316 45.0562 26.0658 45.0268 26.1665C44.9803 26.2324 44.7722 26.8746 43.2533 28.0686C42.9227 28.3081 42.9882 28.1349 42.8236 28.2629C42.7347 28.3355 42.2421 29.0346 41.5073 29.1736C41.3786 29.1991 41.6549 29.0003 41.5854 28.9789C41.551 28.9677 41.4283 29.0078 41.1381 29.1194C40.8651 29.2257 40.3383 29.4178 39.8497 29.5715C39.7886 29.5908 39.7256 29.6101 39.6607 29.6294C40.3073 29.6046 39.2183 30.0054 38.079 30.1404C36.9278 30.2933 35.7401 30.229 35.3803 30.1823C35.5246 30.2273 35.6719 30.2708 35.8204 30.3127C35.089 30.1969 34.9701 30.2909 34.8088 30.2807C34.1672 30.2332 33.3367 30.0531 32.7826 29.9977C32.1348 29.9312 32.1047 30.1272 31.3737 29.9389C31.5434 30.0095 31.7116 30.0786 31.8847 30.1469C31.3687 30.0633 30.8609 29.9692 30.3578 29.8656C31.5745 29.8173 30.1087 29.811 30.0137 29.7934C29.8637 29.7738 30.0985 29.7113 29.8458 29.6749C29.819 29.6714 29.8391 29.7795 29.451 29.7104C28.6429 29.5607 28.7971 29.4608 28.4546 29.3823C28.4258 29.3755 28.4955 29.4642 28.1156 29.4027C28.0437 29.3897 27.9669 29.3738 27.9183 29.3643C27.8314 29.3382 27.8583 29.3988 28.5391 29.4626C28.8871 29.4784 29.467 29.5207 30.4121 29.2253C31.349 28.9599 32.5323 28.078 33.0579 27.2625C33.1828 27.0785 33.1381 27.1221 33.0331 27.245C32.5046 28.0428 31.4444 28.8352 30.6055 29.1156C29.7628 29.4183 29.2078 29.4227 28.8556 29.4256C28.1613 29.4048 28.0368 29.3309 27.9465 29.3135C27.814 29.269 27.9963 29.3024 28.0012 29.3011C28.0692 29.3068 27.8288 29.0556 28.1964 29.0788C28.3559 29.0868 28.6382 29.15 29.1155 29.2987C28.5974 29.1389 28.5809 28.9592 28.5233 28.9417C28.5086 28.937 28.3894 28.9102 28.2466 28.8774C28.0695 28.8341 27.8937 28.7998 28.1126 28.851C28.2234 28.873 28.4632 28.9219 28.868 28.9236C29.2559 28.9339 29.8329 28.826 29.9803 28.7811C30.9158 28.5969 32.1644 27.6954 32.6284 26.9585C32.7894 26.8275 32.7244 27.0869 32.7754 27.0436C32.805 27.0209 32.9138 26.78 32.95 26.7049C32.995 26.6177 33.0224 26.6741 33.1839 26.7379C33.0194 26.7416 32.9534 26.7089 32.9286 26.6553C32.8973 26.6086 32.9251 26.5852 32.7708 26.8175C32.7219 26.8377 32.7679 26.694 32.7683 26.6301C32.7725 26.5603 32.7493 26.5715 32.7492 26.5737C32.7268 26.6439 32.7664 26.7733 32.8519 26.7839C32.9346 26.8076 33.0459 26.796 33.1176 26.8584C33.1934 26.9158 32.9802 27.1042 33.2446 26.9511C33.1854 27.4585 33.1023 27.1402 33.0773 27.1617C33.0397 27.2093 33.0773 27.4466 33.0657 27.4766C33.0476 27.5195 32.9846 27.3557 32.937 27.5286C32.9295 27.5586 33.0377 27.865 33.1425 27.4978C33.0714 27.9954 33.1967 27.986 32.9439 28.1561C33.3673 28.5896 32.6586 28.436 32.6235 28.6031C32.5331 29.0534 32.8945 28.9437 32.9104 28.9671C33.0113 29.1216 32.8395 30.4919 32.8745 30.8782C32.6263 30.716 32.9149 29.7381 32.8738 29.5344C32.7369 28.8246 32.7076 30.5332 32.4071 30.0045C32.4868 30.2296 32.5665 30.4573 32.6454 30.6912C32.421 31.1114 32.3612 30.4849 32.3809 31.6652C32.5501 31.8652 32.3919 30.8318 32.5221 31.0445C32.6003 31.1635 32.5842 31.8544 32.6256 31.8736C32.6779 31.888 32.6471 31.2596 32.7222 31.3628C32.8982 31.5556 32.5641 33.9589 32.5954 32.125C32.5674 32.6264 32.2038 32.8657 32.2686 33.3318C32.2986 33.6572 32.9792 31.9374 32.5844 34.5718C32.4223 34.5973 32.6708 33.4973 32.6548 33.4744C32.6408 33.4334 32.2558 33.5918 32.234 33.6231C32.2039 33.676 31.9653 36.546 31.425 37.3133C31.5032 37.2565 31.4849 37.4096 31.3984 37.6779C31.1857 38.4273 30.3455 39.7773 30.2583 39.9711C30.231 40.0492 30.4995 39.8626 30.4661 39.9428C30.2609 40.4682 29.2348 41.4712 28.8007 41.9257C28.3184 42.4503 28.4517 42.4561 28.4261 42.4863C28.2001 42.7089 28.3229 42.4745 28.1879 42.6113C28.017 42.8365 26.4321 44.1434 26.2946 44.2119C26.2687 44.2358 26.6479 44.1287 26.2532 44.4326C26.2115 44.4632 26.1851 44.4226 25.9149 44.5613C25.5453 44.7682 24.9189 45.1296 23.9246 45.4302C22.5041 45.7809 22.9983 45.7177 23.7269 45.6297C24.4544 45.5383 25.5137 45.1175 24.8821 45.4786C22.8262 45.9374 23.0183 45.9306 22.4984 46.0061C22.3187 46.0195 21.0765 45.8957 19.9033 45.6105C20.7631 45.7813 21.6653 45.8335 22.6227 45.7148C21.6616 45.8136 19.9864 45.6075 19.3509 45.3308C19.2767 45.303 19.2374 45.2773 19.2117 45.2521C19.0786 45.1429 19.161 45.1198 18.3776 44.7573C18.2791 44.7109 18.014 44.653 18.0009 44.7251C17.9812 44.7826 18.2578 45.0702 19.1772 45.3568C19.3194 45.3967 19.4857 45.4358 19.6818 45.47C19.7499 45.5702 19.4768 45.5059 19.1639 45.3976C18.8299 45.2853 18.4627 45.1213 18.1905 44.9991C18.1057 44.9528 17.5776 44.9886 16.9052 44.2674C16.8281 44.1858 17.376 44.3918 17.2799 44.1767C17.2845 43.9961 16.0955 43.2821 15.0122 41.2744C14.9438 41.1495 15.0549 41.6353 14.9861 41.5149C14.91 41.4107 14.6136 40.4297 14.5984 40.362C14.5575 40.2648 14.5909 40.7175 14.54 40.6036C14.2705 39.9904 14.4793 39.2181 14.7284 40.3845C14.6564 39.9532 14.6315 39.5881 14.623 39.2494C14.4112 39.6544 14.4602 38.7208 14.4303 38.3544C14.2509 36.0316 14.1593 37.5949 14.0472 37.1994C13.8907 36.6151 14.3576 37.0347 14.2191 36.2197C14.2097 36.1605 13.9921 37.0719 14.1361 35.2597C14.1376 35.5181 14.1399 35.784 14.1445 36.0622C14.4079 35.8957 14.1443 35.1005 14.143 35.0407C14.1255 34.3683 14.2077 34.8136 14.1011 33.8435C14.0916 33.7549 14.1618 33.5771 14.1345 33.3944C14.0218 32.6479 14.0252 34.3746 13.9161 34.4385C13.8645 34.4398 13.9312 32.5825 13.9536 32.5351C14.0697 32.2721 13.9829 33.3604 14.1238 33.157C14.1566 33.1026 14.1562 31.9965 14.1431 31.1189C14.1347 30.3998 14.186 29.7266 14.2338 29.4391C14.3901 28.5051 14.85 28.1212 14.453 28.0418C14.8923 27.8424 14.6856 27.5489 14.7212 27.4155C15.1867 25.8777 15.2135 25.8513 15.826 24.534C15.9721 24.245 16.2139 24.078 16.255 23.9731C16.2792 23.9118 16.1052 23.9449 16.2431 23.6557C16.3369 23.4531 16.8003 22.8188 17.2326 22.3633C17.6713 21.8938 17.9921 21.6276 18.0475 21.6158C18.1085 21.6009 18.0181 21.7127 17.9076 21.8561C17.7986 21.9974 17.6775 22.1648 17.7788 22.1375C18.0013 21.8931 18.183 21.6898 18.3005 21.5499C18.2187 21.6461 18.3444 21.468 18.6617 21.0667C18.9199 20.7528 18.8531 20.9668 18.971 20.827C18.9745 20.823 18.9819 20.8138 18.9928 20.8001C19.0257 20.7604 19.0808 20.6791 18.9379 20.8486C18.8662 20.9413 18.7374 21.0882 18.5294 21.4827C18.3409 21.8638 17.9813 22.6254 18.0471 23.8361C18.1037 25.0588 18.768 26.1544 19.1918 26.607C19.6308 27.0971 19.9328 27.2857 20.1154 27.4131C20.4908 27.6547 20.5774 27.6823 20.5536 27.6838C20.5183 27.6725 20.4293 27.6453 20.1725 27.499C19.9371 27.3099 19.4198 27.2216 18.5444 25.8161C18.1265 25.1224 17.8478 23.91 17.9739 23.0025C18.082 22.0846 18.365 21.5536 18.5352 21.2384C18.8961 20.6318 18.9941 20.5962 18.8828 20.7056C18.6214 21.0044 18.3937 21.3073 18.2935 21.43C18.1882 21.5599 18.204 21.5203 18.2228 21.4808C18.1404 21.5488 18.1037 21.554 18.1588 21.4376C18.1601 21.4346 18.1618 21.4316 18.1639 21.4285C18.1376 21.4486 18.1482 21.4986 18.188 21.4677C18.2242 21.4411 18.269 21.3586 18.1614 21.319C18.2699 21.1818 18.491 20.8892 18.7507 20.5921C18.8443 20.4942 18.7951 20.5138 18.5222 20.9218C18.3889 21.1398 18.1698 21.4663 17.9599 22.1671C17.7468 22.8331 17.6479 24.107 18.0652 25.1923C19.0202 27.3924 20.0017 27.5448 20.3258 27.7965C20.7152 27.9897 20.8674 28.0218 20.977 28.0555C21.1727 28.1064 21.1586 28.0901 21.1223 28.0822C21.0802 28.0715 20.9933 28.0561 20.8898 28.0418C19.6655 27.8863 18.4273 27.7673 17.1776 27.6794C18.37 27.5627 19.6836 27.8036 20.9025 27.9148C20.9097 27.9155 20.9168 27.9161 20.9238 27.9167C20.98 27.9213 21.0931 27.9399 21.1405 27.9383C21.1939 27.9378 21.165 27.9092 21.1837 27.8537C21.2101 27.8514 21.075 27.8263 20.913 27.8104C20.0231 27.7181 19.045 27.6673 18.2463 27.5606C18.2138 27.5561 18.3399 27.4595 18.2185 27.4357C17.9946 27.3905 17.236 27.52 17.1147 27.4722C17.0928 27.4609 17.5249 27.344 17.3996 27.2509C17.0772 27.012 16.9698 27.5029 16.686 27.4858C16.4672 27.469 14.9798 27.1891 14.6014 27.3385C14.2023 27.4925 15.7041 27.4518 15.5886 27.5833C14.5764 27.6899 13.5513 27.5421 12.5646 27.5615C12.5474 27.5619 12.6983 27.6648 12.4786 27.6798C12.0944 27.7062 11.9888 27.5604 11.8005 27.5377C11.5977 27.5141 10.8405 27.5369 10.7213 27.4817C10.7077 27.4747 10.8693 27.3301 10.8945 27.326C11.2349 27.2667 11.3466 27.4544 11.3775 27.4567C11.4932 27.4636 11.5951 27.391 11.6972 27.3949C11.8623 27.4013 11.952 27.4676 12.1635 27.4727C12.3094 27.4764 12.1675 27.3487 12.3093 27.354C12.3637 27.3563 12.9124 27.648 12.9643 27.3492C12.9661 27.3202 12.5541 27.2886 11.9348 27.2639C11.6265 27.2514 11.2712 27.2408 10.8704 27.2288C10.6743 27.2227 10.4553 27.2164 10.2199 27.2064C9.95802 27.192 9.75785 27.196 9.18626 27.125C7.88844 26.9554 6.61097 26.5149 6.31835 26.4217C6.93894 26.7014 7.55718 26.9115 8.15087 27.0721C6.96391 26.7783 5.25752 26.258 5.32498 25.8703C4.86549 25.6308 4.41075 25.3391 4.07462 25.1006C2.80137 24.1797 2.42918 23.2075 2.20132 22.6355C1.98614 22.0344 1.92501 21.6339 1.875 21.2898C1.78864 20.6182 1.79472 20.1761 1.79939 19.7664C1.81737 18.9637 1.87759 18.3446 1.93025 17.7494C2.29653 14.3436 4.31967 12.6389 5.33331 11.6132C5.79426 11.172 6.29844 10.8183 6.78628 10.5497C7.91792 10.036 7.4716 10.4079 9.04789 9.90962C8.63693 9.92685 8.18882 9.97719 7.69902 10.0914C8.17842 9.91149 9.35824 9.63518 10.2523 9.58835C11.1668 9.52265 11.8839 9.55785 12.084 9.5351C12.1317 9.5307 12.2253 9.32186 12.8018 9.32697C13.301 9.33342 13.3567 9.49267 13.5942 9.5345C13.6917 9.55195 13.793 9.55337 13.8734 9.55151C14.1529 9.54412 14.9119 9.7466 15.1805 9.82505C15.308 9.86682 15.4121 9.90015 15.4498 9.91999C15.5077 9.95086 15.4966 10.0474 15.633 10.1229C16.0412 10.3556 15.8081 9.96227 16.0919 10.4254C15.9888 10.3904 15.8868 10.3569 15.7799 10.3225C16.27 10.5865 16.8102 11.0142 16.11 10.7488C15.9862 10.7034 16.1267 10.6689 16.0378 10.6274C15.6669 10.4566 15.3324 10.3198 15.0355 10.2127C14.7923 10.1417 14.1054 9.95847 13.8524 9.96518C12.7345 9.9317 13.1663 10.0158 13.8476 10.0609C14.0945 10.0543 14.7647 10.2331 15.0018 10.3024C15.5648 10.5201 16.1265 10.7737 16.5211 10.9192C16.7844 11.1855 18.3262 11.9534 18.3517 12.0086C18.3998 12.0815 18.0967 12.0285 18.3762 12.3007C18.4463 12.3518 20.3575 13.4548 19.5892 13.1861C19.4357 13.1302 18.5524 12.5422 18.3234 12.4168C18.7073 12.9693 20.0974 13.3628 20.223 13.4599C20.7303 13.8394 19.0716 13.0144 20.2469 13.8099C21.1419 14.4259 20.3928 13.7069 20.7869 13.8681C21.0109 13.9578 21.9095 14.8191 22.0321 14.5755C22.3957 14.79 22.111 14.7693 22.1481 14.8073C22.1847 14.8426 22.9073 15.246 23.092 15.4483C23.1142 15.4728 22.9501 15.53 22.9708 15.5588C23.0046 15.6021 23.452 15.9008 23.6319 16.0149C23.6442 16.0223 23.6776 16.0497 23.6897 16.0575C23.7315 16.0853 23.7589 16.1026 23.7651 16.1045C23.7779 16.108 23.7547 16.0344 23.7492 15.9776C23.7367 15.9696 23.7023 15.9415 23.6897 15.9338C23.6863 15.8948 23.6918 15.8639 23.7252 15.8725C23.7272 15.873 23.7294 15.8738 23.7318 15.8747C23.7447 15.8826 23.7798 15.9113 23.7925 15.9194C23.9066 15.9635 24.5078 16.4622 24.5671 16.4679C24.6478 16.4595 23.8307 15.8736 24.0463 15.8661C24.3884 16.1664 25.0549 16.5789 25.3923 16.7234C25.3066 16.6905 24.9284 16.3844 24.8092 16.2766C24.9885 16.1526 25.8111 16.848 25.4254 16.7328C25.6609 16.8213 25.5685 16.6814 25.7231 16.7079C25.7638 16.7149 26.0288 16.9454 26.1032 16.9674C26.1146 16.9672 25.8933 16.6653 25.975 16.6836C26.1293 16.7087 26.9062 17.4818 26.9043 17.5157C26.9518 17.6029 26.8502 17.5435 26.7015 17.4438C26.5539 17.3447 26.3553 17.2063 26.2999 17.213C26.2957 17.2231 26.6678 17.8265 26.6445 17.8263C26.5765 17.9806 26.12 17.3687 26.076 17.5285C26.1984 17.6876 26.3122 17.8436 26.4066 17.9811C25.8424 17.5881 24.7781 16.5906 24.4487 16.5533C25.2673 17.1189 26.1675 18.0061 25.8725 18.2427C25.7667 18.3561 25.3744 18.1025 25.3579 18.1434C25.3187 18.2982 25.8583 18.616 25.8556 18.6257C25.8611 18.6434 25.8603 18.6546 25.8546 18.6604C25.8176 18.7373 25.145 18.1597 25.075 18.1549C24.9745 18.1529 25.0793 18.6318 25.0336 18.6747C25.0178 18.6724 24.5077 18.2924 24.5933 18.5165C24.6826 18.7401 25.0632 19.1165 25.0628 19.1337C25.0975 19.2534 24.3811 18.6461 24.3295 18.6611C24.3071 18.6644 24.5965 19.0943 24.5804 19.1291C24.5665 19.1622 24.2396 18.9562 24.0581 18.941C23.9235 18.9281 24.1185 19.1868 24.068 19.1586C24.0347 19.1316 23.396 18.5816 23.3554 18.5727C23.2956 18.5507 23.3842 18.7477 23.3474 18.7486C23.2951 18.7497 23.1109 18.5555 23.1157 18.6054C23.1243 18.638 23.6945 19.5583 23.6226 19.6236C23.5147 19.7225 22.9388 18.7643 23.2928 19.8634C23.2952 19.8702 23.4997 20.0003 23.5014 20.0077C23.5317 20.1873 22.8722 19.7959 23.5576 20.4058C22.1804 19.3933 23.2553 20.426 22.8975 20.4429C22.7656 20.4493 22.2569 20.0675 22.2427 20.0782C22.2125 20.2136 22.4283 20.2693 22.441 20.3609C22.4484 20.4092 21.9312 20.1492 21.9754 20.2969C22.0018 20.3716 22.458 20.7416 22.4673 20.7656C22.5829 20.979 22.3176 20.8561 22.3169 20.9327C22.3171 20.9828 22.5642 21.2169 22.5656 21.2293C22.5657 21.2469 22.1244 21.0491 22.0153 21.0296C21.9338 21.0137 22.0936 21.2425 22.0436 21.2229C21.7528 21.106 21.4144 20.4688 21.6537 21.1767C21.6687 21.2202 21.8484 21.364 21.8502 21.3727C21.8826 21.5491 21.5612 21.2784 21.4411 21.2985C21.2425 21.3346 21.7605 21.661 21.3054 21.4185C21.5336 21.7458 21.6662 21.8563 22.0022 22.147C21.0848 21.3856 20.5166 21.4675 21.4683 22.2894C21.1855 22.0173 21.0631 22.2211 20.9721 22.1458C20.9233 22.1022 20.5845 21.5317 20.4845 22.1084C20.4745 22.1809 20.798 22.3478 20.6293 22.3759C19.9783 21.7951 20.5696 22.431 20.552 22.4418C20.4482 22.5616 19.9972 22.1895 19.45 21.7495L19.5136 21.7963C19.0055 21.4029 18.4953 20.9913 18.3219 20.8909C17.8914 20.6403 17.3957 20.5913 17.3076 20.5323C17.0152 20.3358 17.3243 20.3987 17.2834 20.318C17.2418 20.2351 16.282 19.8784 16.2493 19.8445C16.1146 19.697 16.3557 19.6831 16.3429 19.6663C16.1888 19.4581 15.0102 18.8522 14.7174 18.6468C14.6801 18.7305 15.3016 19.1142 14.8348 19.0059C14.2963 18.8852 14.4757 18.5217 14.4726 18.4984C13.7035 18.0516 12.8663 17.6133 12.34 17.4162L13.4639 17.6514C12.599 17.6057 11.8978 17.5681 11.3577 17.5958C10.8255 17.6049 10.4907 17.7653 10.7314 17.6528C10.7853 17.7521 10.6443 17.8288 10.7091 17.7928C10.7583 17.7638 10.9786 17.6964 10.988 17.7112C11.0438 17.768 10.8397 17.8315 10.7545 17.8767C10.7128 17.8973 10.7136 17.9096 10.7811 17.8779C10.8459 17.8482 10.9751 17.7622 11.0826 17.6484C10.8759 17.8354 10.7406 17.9538 10.6827 17.9862C10.8187 17.9001 10.9691 17.8052 11.1325 17.7009C11.1143 17.7303 11.0957 17.7586 11.0772 17.7855C11.1143 17.7855 11.1518 17.777 11.1894 17.7606C10.9556 18.1631 10.3728 18.4272 10.3786 18.6128C10.3773 18.6782 10.5159 18.6451 10.523 18.6478C10.5533 18.77 10.4707 18.7671 10.3845 18.6594C10.4465 18.7945 10.3473 18.7053 10.351 18.6596C10.3528 18.652 10.4326 18.7324 10.4975 18.6657C10.5131 18.6491 10.5416 18.5632 10.564 18.4666C10.5577 18.7086 10.5634 18.9231 10.6014 18.9778C10.6344 19.027 11.0539 18.6381 10.7257 18.5537C10.7322 18.5287 10.7382 18.5046 10.7439 18.4815C10.8245 18.8508 10.5692 18.5525 10.5514 18.672C10.55 18.6802 10.597 18.6881 10.6235 18.7242C10.6539 18.7523 10.6409 18.8506 10.6 18.8298C10.7431 18.9173 10.7807 18.9034 10.8007 18.7954C10.8206 18.6905 10.7898 18.5334 10.812 18.4979C10.8144 18.4941 10.8168 18.4907 10.8192 18.4878C10.8301 18.5379 10.8478 18.5339 10.8682 18.4919C10.9058 18.5388 10.9202 18.7105 10.8833 18.8207C10.8462 18.935 10.7938 18.946 10.7057 18.8889C10.9392 19.0118 10.7206 18.9293 10.7727 18.8707C10.8386 18.7996 10.8766 18.8806 10.9196 18.8264C11.0769 18.6419 10.8689 18.597 11.184 18.5054C10.7787 18.4003 11.081 18.245 11.482 18.0677C11.3968 18.2354 11.3133 18.3743 11.2707 18.4486C11.3722 18.3919 11.4923 18.31 11.6122 18.2044C11.3586 18.4744 11.1695 18.6996 11.0651 18.8543C11.0951 18.8609 11.1255 18.8673 11.1561 18.8735C11.1065 18.9248 11.0676 18.9672 11.0395 18.9979C11.0228 18.9768 11.0066 18.9551 10.9908 18.9328C10.9843 19.0818 10.9973 19.0627 10.9774 19.0408C10.961 19.0152 10.9245 18.98 10.9258 18.9747C10.9472 18.9106 11.0119 18.7183 11.0248 18.5048C10.9803 19.0011 10.9475 19.4658 10.9393 19.7762C10.9383 19.8172 10.9802 19.8265 11.0052 19.8892C11.0178 19.9192 11.0263 19.9635 11.0245 20.0089C11.0212 20.047 11.0156 20.1159 10.9705 20.0157C10.9376 19.9338 10.8866 19.9078 10.8513 19.9122C10.8084 19.8958 10.8058 19.9538 10.7261 19.6403C10.7652 19.2442 10.5089 18.6585 10.1939 18.2933C9.87492 17.9149 9.578 17.7313 9.26409 17.5466C9.2655 17.5642 9.26936 17.5787 9.28034 17.5863C9.43511 17.6914 9.49298 17.6159 9.50589 17.6233C9.59113 17.656 9.71252 17.726 9.90802 17.7632C9.91106 17.7627 9.84844 17.6318 9.95461 17.6934C9.97731 17.7059 10.0882 17.9249 10.3645 18.0651C10.1517 18.074 10.3009 18.1157 10.4013 18.1249C10.5189 18.137 10.6754 18.1323 10.8298 18.1033C10.6213 18.0707 10.4134 18.0357 10.3049 17.9989C10.3148 18.0586 12.3078 17.9292 11.8248 17.805C11.5277 17.7295 10.8536 18.0351 10.7946 17.7412C11.3071 17.8275 15.0621 17.6919 15.3514 17.7828C15.3912 17.7933 15.142 17.8834 15.1973 17.8966C15.2384 17.9057 16.1018 17.9034 16.2119 17.9441C16.2783 17.9676 15.9005 18.0152 15.9289 18.0503C15.9534 18.0739 17.027 18.1493 17.0922 18.0344C16.8263 18.0709 16.0859 18.0061 16.4794 17.9182C16.5288 17.9073 16.785 17.9928 16.8472 17.9794C17.4189 17.8532 15.7265 17.8301 15.4693 17.8276C16.5281 17.6962 18.1683 17.9399 19.4107 17.9279C19.9043 18.0601 18.6619 18.0306 19.22 18.1493C20.379 18.3995 19.5415 18.0339 19.5791 18.0237C19.8763 17.9423 20.8299 18.557 20.8623 18.1522C21.283 18.2514 21.1403 18.2889 21.7471 18.2945C21.6704 18.2584 21.5938 18.2226 21.5173 18.1869C21.6243 18.1604 21.7479 18.1559 21.8802 18.1675C22.3593 18.2197 22.8819 18.3571 23.7881 18.7386C24.2428 18.9574 24.9062 19.1836 25.8349 20.0885C26.2748 20.5221 26.6803 21.1829 26.8405 21.6C27.0141 22.0389 27.0296 22.1809 26.9418 21.9303C26.2433 20.2072 25.0502 19.62 24.5612 19.3561C23.9965 19.0807 23.6755 18.9914 23.4106 18.9017C22.9021 18.7408 22.6336 18.6641 22.5782 18.6553C22.4851 18.6458 22.2621 18.781 21.8206 18.7616C21.6206 18.7561 21.3615 18.6988 21.0051 18.533C20.7116 18.6929 21.5213 18.7866 21.8099 18.8678C21.9567 18.9031 21.9961 18.9322 21.8013 18.9535C21.764 18.9598 21.7158 18.9659 21.6555 18.9722C21.6955 18.9741 21.7435 18.9779 21.7983 18.9832C22.0919 19.0172 22.4674 19.0483 23.2402 19.2443C23.4472 19.3011 23.6769 19.3638 24.0427 19.5139C24.4146 19.7245 24.9266 19.7244 25.9928 21.0184C26.5156 21.6568 26.934 23.0151 26.7853 23.9658C26.6671 24.9235 26.3685 25.4087 26.1908 25.7247C25.8125 26.3259 25.6477 26.4465 25.6174 26.4914C25.5715 26.5327 25.4985 26.6207 25.3592 26.8092C25.2239 26.993 25.0312 27.2458 24.9016 27.4138C24.8772 27.4491 24.8596 27.4784 24.8486 27.5016C24.8384 27.5362 25.1486 27.6048 24.6509 27.9488C24.4251 28.1008 24.8562 27.6153 24.7311 27.6609C24.6257 27.7093 24.3212 27.9958 24.0953 28.25C23.862 28.5141 23.7016 28.7539 23.5794 29.0495C23.3214 29.6063 23.2762 30.6942 23.2948 31.1141C23.2951 31.1354 23.2952 31.1553 23.2954 31.1739C23.2956 31.2457 23.2103 31.2193 23.211 31.2897C23.214 31.5036 23.3334 32.2881 23.2857 32.6618C23.4585 31.8817 23.4418 33.4082 23.4111 33.7802C23.3681 34.351 23.2189 34.3077 23.1797 34.5512C23.0252 35.4943 23.3546 36.8405 23.0581 37.344C23.2226 37.3179 23.1927 37.5584 23.1359 37.7719C23.0775 37.993 22.9971 38.1373 22.9754 38.0768C23.013 38.0506 22.6558 37.2091 23.1658 37.683C22.9914 37.3573 22.3601 36.8452 22.0085 36.7452C21.9933 36.7238 21.9578 36.6931 21.8769 36.6825C21.8484 36.6794 21.8886 36.7768 21.8406 36.7693C21.8351 36.7684 21.8287 36.6706 21.7659 36.6674C21.4784 36.6574 21.2126 36.8436 21.2274 36.8904C21.2187 36.9506 21.3385 36.9584 21.2437 37.0475C21.2291 37.0614 21.2147 37.0753 21.2006 37.0889C21.2556 37.0838 21.3012 37.0687 21.3331 37.0523C21.2953 37.0812 21.2592 37.1081 21.2274 37.1313C21.5567 36.9406 21.7224 36.9447 21.8042 36.9414C21.8865 36.9437 21.903 36.9575 21.9132 36.959C21.8959 37.0375 21.8896 37.047 21.8136 37.0446C21.7417 37.0447 21.5563 37.0344 21.2665 37.1932C21.344 37.1282 21.4318 37.0574 21.4968 37.0267C21.5058 37.0226 21.5487 37.1367 21.557 37.1315C21.5568 37.1317 21.5571 37.1314 21.557 37.1315C21.6434 37.0948 22.1782 36.5534 21.9654 36.5552C21.9131 36.5539 21.6526 36.8041 21.3841 37.0126C21.4419 36.9378 21.3098 36.8721 21.3194 36.8581C21.4291 36.7062 21.9312 36.4294 22.0844 36.2858C22.1194 36.2548 22.0565 36.199 22.0615 36.1934C22.1994 36.0733 22.3288 36.2876 22.2688 35.9816C22.7186 35.9264 21.8783 36.478 22.0539 36.557C22.1215 36.597 22.5554 36.1978 22.8447 35.7358C23.1441 35.2737 23.2549 34.825 23.1449 34.7837C23.1701 34.7889 23.2085 34.7805 23.2603 34.7504C23.2954 34.7301 23.335 34.6739 23.3687 34.6051C23.4379 34.4768 23.4951 34.1878 23.4815 34.11C23.4773 34.0913 23.2543 34.0438 23.2571 34.0233C23.2665 34.0021 23.5919 33.2329 23.4915 32.843C23.4383 33.028 23.3829 33.2029 23.325 33.3683C23.4685 32.2937 23.3655 32.4141 23.2614 32.799C23.2586 32.8176 23.2479 32.8346 23.245 32.852C23.1622 33.1385 23.0612 33.4557 23.0425 33.4554C23.0073 33.4606 23.0491 33.0505 23.1007 32.6127C23.1536 32.1812 23.2235 31.7491 23.3151 31.9606C23.3434 32.0298 23.1621 32.9386 23.356 32.4997C23.3916 32.4281 23.3966 31.8069 23.4141 31.771C23.5443 31.5667 23.5794 32.9183 23.7456 32.7652C23.6308 32.4386 23.7433 32.0266 23.7287 31.6285C23.7223 31.4474 23.6104 31.3959 23.6096 31.3735C23.5977 31.0352 23.7072 31.2302 23.71 31.1167C23.7118 31.0585 23.4866 30.3592 23.832 30.5032C23.6625 28.1165 23.6042 29.8993 23.5591 31.2484C23.4546 30.8228 23.5489 29.9496 23.5348 29.5315C23.5297 29.3834 23.409 29.4676 23.3954 29.2134C23.3556 28.7381 23.63 26.0153 23.9164 25C23.852 25.5608 24.0065 25.42 24.0807 24.9968C24.1656 24.5571 23.9198 24.8895 23.9203 24.7998C23.9246 24.7483 24.0357 24.2432 24.2831 23.5759C24.5098 22.9226 25.0046 22.0488 25.2378 21.7281C25.3615 21.551 25.4865 21.3988 25.6107 21.2639C25.4706 21.4158 25.3487 21.5692 25.2378 21.7281C24.5341 22.8519 24.5534 23.1931 24.5804 23.1755C24.6504 23.143 24.7967 22.719 25.4005 21.8432C25.9047 21.0808 26.8644 20.4628 27.5257 20.274C26.8897 20.4664 25.9358 21.0731 25.4249 21.8605C25.3038 22.081 25.1992 22.3047 25.1163 22.5124C25.2012 22.341 25.3257 22.1277 25.4857 21.9035C25.9363 21.2294 26.7524 20.6535 27.376 20.4382C28.006 20.2073 28.4452 20.1866 28.7524 20.1774C29.3619 20.1767 29.5986 20.2491 29.7957 20.2877C30.1595 20.3749 30.2638 20.4235 30.3461 20.4549C30.6394 20.5649 30.9349 20.6654 31.0697 20.6653C31.1121 20.6651 30.9898 20.5279 31.0134 20.5278C31.2483 20.5365 32.0083 20.798 32.0509 20.7661C32.0869 20.742 31.7709 20.5905 31.9028 20.5703C31.9308 20.5662 32.2239 20.77 32.5464 20.7869C32.6658 20.7933 32.6115 20.6811 32.642 20.6802C32.8932 20.6705 32.7247 20.8195 33.1743 20.8574C33.5035 20.8827 33.7645 20.7481 34.1955 20.8467C32.7702 20.4675 33.9912 20.7129 34.5783 20.6904C34.6711 20.6857 34.6115 20.5026 35.1458 20.6201C33.9573 20.8834 35.4864 20.8269 35.752 20.8139C35.7674 20.8148 35.7737 20.9374 35.913 20.9375C35.9244 20.9371 35.9077 20.8556 36.0325 20.8462C36.6164 20.7954 36.6724 20.7803 36.6714 20.8102C36.6632 20.8374 36.5516 20.892 36.6535 20.9228C36.7562 20.952 37.1787 20.7675 37.2378 20.7432C37.256 20.7382 37.2717 20.8233 37.3374 20.8019C37.3427 20.8001 37.3478 20.7982 37.3527 20.7961C37.5963 20.7125 37.5942 20.6187 37.6206 20.6012C37.6173 20.6024 37.697 20.7142 37.6747 20.6763C37.6655 20.6674 37.6253 20.6359 37.621 20.5932C37.5996 20.5108 37.6788 20.5575 37.3212 20.6854C37.2258 20.73 37.0713 20.7671 36.9289 20.7372C36.6911 20.6896 37.1504 20.5955 37.2795 20.5391C37.4544 20.4842 37.4771 20.4731 37.4903 20.4688C37.5039 20.464 37.4083 20.5663 37.527 20.5406C37.633 20.5164 37.5079 20.2956 37.4051 20.4355C37.3967 20.4448 37.4387 20.6721 37.4539 20.6755C37.4677 20.6695 37.6043 20.6136 37.6186 20.6766C37.6235 20.6798 37.5592 20.7301 37.5783 20.7721C37.5981 20.8244 37.9404 21.2007 37.9499 21.2097C37.9611 21.2449 37.8811 21.1602 37.8776 21.1775C37.8748 21.1904 37.8802 21.2219 37.8909 21.2415C37.814 21.4356 37.7905 21.6857 37.6773 21.6859C37.6843 21.5774 37.7023 21.4742 37.7297 21.3765C37.6231 21.6385 37.6093 21.7438 37.5781 21.7618C37.5508 21.7834 37.5286 21.7326 37.5078 21.7793C37.4671 21.8842 37.6119 21.8605 37.643 22.0882C37.6468 22.1078 37.6562 22.277 37.7203 22.4827C37.6007 22.1892 37.4581 21.9198 37.426 21.9456C37.7039 22.3548 37.4602 22.2705 37.4648 22.2876C37.4815 22.3595 37.5761 22.423 37.636 22.5132C37.6322 22.4837 37.6268 22.4549 37.6179 22.4271C37.4352 21.4556 37.4163 22.4636 37.3397 22.2424C37.3078 22.1523 37.3887 21.9759 37.3854 21.9445C37.3705 21.8344 37.2527 21.8256 37.2683 21.7494C37.3098 21.5793 37.4551 21.798 37.4666 21.7819C37.5628 21.6507 37.6066 21.1358 37.327 21.391C37.3317 21.1603 37.5494 21.2326 37.5397 21.0581C37.5395 21.0515 37.5395 21.0451 37.5393 21.0389C37.4858 20.9657 37.4555 20.9568 37.4291 20.9754C37.3669 21.0542 37.3072 21.1995 37.2715 21.2608C37.0493 21.6943 37.0351 21.919 37.2417 22.6563C37.2249 22.6127 37.2068 22.5676 37.1874 22.5214C37.0954 22.3007 36.9068 22.1327 36.8697 22.0654C36.8454 22.0063 36.9973 21.4814 36.4968 21.8095C36.5051 21.7101 36.7765 21.4309 36.768 21.4476C36.7669 21.4692 36.6302 21.628 36.6256 21.6349C36.6241 21.6413 36.6346 21.6502 36.6497 21.6629C36.5608 21.5951 36.4664 21.5258 36.414 21.5062C36.3023 21.4657 36.2943 21.5593 36.1461 21.4906C35.8131 21.351 35.9873 21.2194 35.9644 21.1857C35.9068 21.0552 35.9 21.0964 35.8672 21.1452C35.8387 21.1971 35.8016 21.2706 35.7953 21.2812C35.793 21.2868 35.7913 21.2848 35.907 21.312C36.0155 21.3392 36.2628 21.3633 36.4203 21.345C36.1909 21.3502 35.9607 21.3789 35.8635 21.4179C35.976 21.3611 36.0839 21.307 36.1914 21.255C35.9817 21.1372 35.7767 21.3837 35.7437 21.146C35.7526 21.5336 35.2661 21.3446 35.1191 21.3839C35.0636 21.3982 35.0801 21.4624 35.0101 21.4786C34.7404 21.5382 34.0786 21.6383 33.9251 21.7147C33.2825 22.0239 35.0708 21.8278 35.1704 21.8465C34.9338 21.8675 33.4233 22.337 34.1706 22.3412C34.285 22.3419 34.4334 22.1281 34.4918 22.1079C34.8836 21.9739 34.6014 22.1967 34.6364 22.2039C34.6948 22.2147 34.923 22.0125 34.9939 22.0172C35.0162 22.0193 34.9043 22.1824 35.2656 22.1178C35.1272 22.2713 34.0363 22.4083 33.8887 22.4888C33.8365 22.5173 34.2495 22.6965 33.2089 22.7006C33.2279 22.7232 33.2469 22.7459 33.2657 22.7686C32.7283 22.9386 32.1766 23.131 31.6147 23.3396C31.6549 23.2594 31.9336 23.03 31.5411 23.1948C31.3151 23.2908 31.5322 23.3615 31.5127 23.3727C31.4459 23.4091 31.0464 23.5536 30.4606 23.7725C30.1697 23.881 29.8395 24.0059 29.4449 24.1517C29.231 24.2298 29.0485 24.2988 28.7055 24.4122C28.6256 24.4383 28.5052 24.4765 28.3789 24.5126C28.3269 24.5276 28.2109 24.5598 28.1001 24.5867C28.042 24.6008 27.9786 24.6155 27.9067 24.6306C27.8448 24.6436 27.7339 24.6666 27.5767 24.6906C27.4221 24.7138 27.2355 24.7379 26.9728 24.7496C26.9069 24.7525 26.836 24.7543 26.7589 24.7546C26.7203 24.7546 26.6801 24.7544 26.6382 24.7536C26.5598 24.7521 26.4715 24.7487 26.3769 24.7422C25.9978 24.7113 25.4881 24.6627 24.7322 24.3629C23.9686 24.0147 23.0159 23.594 22.0721 21.9845C21.2102 20.4191 21.3774 18.7937 21.6198 17.9832C21.7348 17.5644 21.9085 17.1851 21.9884 17.028C22.049 16.9068 22.1076 16.8006 22.1635 16.7055C22.2755 16.5153 22.3763 16.3684 22.4665 16.245C22.6471 15.9997 22.787 15.8444 22.9046 15.7183C22.9764 15.6419 23.0375 15.5807 23.0944 15.5254C23.2077 15.4155 23.2996 15.3337 23.382 15.2626C23.7096 14.9868 23.7574 14.9654 23.834 14.9063C23.8965 14.8607 23.9282 14.8379 23.9509 14.8214C23.9953 14.789 24.0053 14.7812 24.0086 14.779C24.0127 14.7763 23.9809 14.8035 23.9442 14.8423C23.8677 14.9204 23.7701 15.0531 23.7197 15.1321C23.6092 15.2554 23.3138 15.7997 23.3227 15.8381C23.2988 15.9325 23.2852 16.1229 23.3011 16.2553C23.3063 15.7525 23.3195 15.2097 23.3067 15.0552C23.2935 14.8964 23.1809 15.0496 23.1835 14.908C23.186 14.7769 23.3005 14.9103 23.3044 14.8713C23.3442 14.5115 23.1256 12.2303 23.1726 11.8554C23.1757 12.0791 23.4707 13.6556 23.5435 13.6419C23.5543 13.6325 23.6252 13.2295 23.58 13.151C23.6716 13.0119 23.3555 12.5765 23.3973 12.3494C23.4017 12.3248 23.5754 12.4079 23.5741 12.0082C23.5734 11.8718 23.414 11.5383 23.5157 11.238C23.4748 11.0974 23.3876 10.6184 23.4051 10.6455C23.4286 10.6599 23.4851 10.8831 23.9034 11.3318C24.303 11.7887 25.1975 12.244 25.7437 12.3221C25.5644 12.2974 25.461 12.3053 25.4317 12.3416C25.4234 12.3489 25.6585 12.4463 25.4836 12.4941C25.2744 12.5648 25.4781 12.2582 25.2774 12.2097C25.2682 12.2049 25.1105 12.2077 25.1614 12.2185C25.1852 12.2225 25.2745 12.2216 25.4066 12.1993C25.5358 12.179 25.6974 12.1325 25.717 12.1307C26.1445 12.0665 25.7098 12.3184 25.4597 12.4107C25.2015 12.5077 25.1724 12.5184 25.1722 12.5322C25.1819 12.5551 25.2015 12.5927 25.497 12.5466C25.6419 12.5222 25.8665 12.4624 26.1018 12.3624C26.3339 12.2662 26.5545 12.133 26.5823 12.1119C26.5764 12.1403 24.8264 12.7224 26.6389 11.8656C26.5953 11.8987 26.549 11.9347 26.5017 11.9726C26.5541 11.9537 26.6094 11.9327 26.668 11.9094C26.487 12.0497 26.3232 12.1559 26.1804 12.2409C26.3557 12.168 26.536 12.0699 26.7006 11.9586C26.4171 12.1449 26.3412 12.0481 26.2651 12.0888C26.0099 12.2201 25.9978 12.5499 25.761 12.342C25.6963 12.2877 25.6485 12.2053 25.6413 12.1949C25.5408 12.1333 25.7554 12.3492 25.625 12.1559C25.6191 12.1503 25.5758 12.1442 25.5496 12.1204C25.5275 12.0886 25.4837 12.1034 25.5746 11.9684C25.5994 11.93 25.6223 11.8931 25.6431 11.8581C25.6272 11.8948 25.6088 11.9343 25.5873 11.9768C25.59 12.0028 25.5929 12.0275 25.5962 12.0509C25.6083 12.0493 25.6261 12.0389 25.649 12.0173C25.9455 11.5727 25.9527 11.4654 25.9576 11.4979C25.9552 11.5273 25.9273 11.6493 25.9172 11.6751C25.8324 11.9136 25.7282 11.6495 25.691 11.94C25.8127 11.8655 25.8387 12.0431 25.8147 12.2645C25.7909 12.4811 25.719 12.7361 25.6328 12.6928C25.8368 12.8634 25.5534 13.831 25.512 14.3277C25.4828 14.6346 25.5395 15.283 25.5223 15.3831C25.5005 15.5048 25.3467 15.4586 25.2991 15.6782C25.2852 15.7411 25.3625 16.4109 25.1773 16.996C25.1415 17.1091 24.8676 17.3406 24.8099 17.1238C24.7105 16.7516 24.9575 16.0729 24.8013 16.0745C24.6325 16.0748 24.6883 17.0111 24.6582 17.2628C24.5158 18.425 24.3623 17.7469 24.3069 17.7741C24.173 17.8479 24.1581 18.4899 24.1461 18.5165C24.0908 18.6265 23.9998 18.1672 23.9204 18.1582C23.8163 18.1463 23.6119 18.763 23.5807 18.6207C23.5357 18.4174 23.7094 17.8504 23.7034 17.8142C23.6184 17.34 23.3563 17.9777 23.2335 18.1528C23.1956 18.2058 23.1424 17.9885 23.1303 18.033C22.9489 18.7148 23.4633 18.188 23.4178 18.6418C23.3779 19.0495 23.2331 18.5199 23.2241 18.536C23.2138 18.5547 23.1934 19.0437 23.1362 19.1176C23.1059 19.1567 22.8324 17.8783 22.6946 17.9272C22.7123 18.3326 22.732 18.7408 22.7537 19.146C22.5733 19.1736 22.7189 18.5925 22.7023 18.5324C22.6683 18.4101 22.5688 18.746 22.5125 18.7307C22.4766 18.7214 22.3579 18.3202 22.2957 18.6787C22.2743 18.803 22.3935 19.0657 22.2566 19.5137C22.1258 17.9391 22.0014 19.0259 21.9366 19.0701C21.872 19.1153 21.739 18.3584 21.7455 19.2736C21.3955 19.3065 21.6353 19.251 21.5796 18.9897C21.512 18.6697 21.3777 19.4039 21.4953 18.2402C21.329 18.3022 21.3182 19.239 21.305 19.29C21.2922 19.3328 21.216 19.122 21.1873 19.196C20.8545 20.0707 21.0103 19.4687 20.8039 19.7208C20.785 19.7418 20.6985 20.5791 20.6781 19.94C20.6429 18.781 20.8916 18.3036 20.4014 18.0932C20.16 18.9491 20.4639 19.994 20.4665 20.2566C20.4695 20.654 20.3734 20.241 20.3445 20.2898C20.335 20.305 20.3396 20.6527 20.3315 20.6564C19.9495 20.8977 20.3441 19.1215 20.2962 18.5594C20.2358 18.7089 20.1756 18.8583 20.1157 19.0065C20.1179 18.8041 20.1206 18.5971 20.1238 18.3944C19.9859 19.3646 20.0791 18.428 19.7805 18.176C19.7133 18.1194 19.8132 18.7646 19.6429 18.0267C19.5834 18.5664 19.5255 18.3912 19.6001 18.8829C19.4768 18.868 19.367 17.7629 19.3212 17.3244C19.1342 18.8579 19.6092 17.9938 19.3409 19.3152C19.488 19.564 19.471 18.9296 19.4952 18.9823C19.5813 19.17 19.4291 19.6016 19.7378 20.1289C19.7887 20.214 19.9528 19.8589 19.9384 20.3876C19.9365 20.4481 19.7967 20.7852 19.787 20.7796C19.6804 20.7353 19.724 20.3986 19.6796 20.3834C19.6375 20.3705 19.6589 20.747 19.6473 20.747C19.5133 20.7579 19.5993 20.4341 19.5569 20.4805C19.4646 20.5802 19.1635 21.9313 19.2659 20.1671C19.4018 21.6304 19.4095 20.3568 19.3612 19.7852C19.3489 19.6403 19.2696 19.5998 19.2456 19.393C19.2147 19.126 19.2601 18.8139 19.2489 18.6752C19.2367 18.5259 19.0257 19.3675 19.1141 18.145C18.9072 18.7645 19.0867 19.8645 18.9489 20.476C18.6701 21.7064 18.6333 19.6118 18.6152 19.391C18.6093 19.3329 18.4978 19.525 18.4918 19.4866C18.4815 19.4248 18.5587 18.2314 18.4743 18.1107C18.3882 17.9909 18.4662 18.5482 18.3726 18.5829C18.3075 18.6078 18.2402 17.1587 18.1735 17.9398C18.1267 18.4798 18.3585 19.4753 18.0856 19.6385C18.0767 18.845 18.0742 18.0534 18.0804 17.2563C17.9618 17.6874 17.8457 18.1211 17.7319 18.5526C17.7218 17.6591 17.8651 16.8904 17.7586 16.0287C17.3386 18.0684 17.5229 15.3494 17.4919 15.3121C17.4677 15.3007 17.1577 16.1025 17.1038 16.2306C17.0246 15.5133 17.1313 13.2714 16.711 14.5584C16.8004 14.3257 16.6599 13.7329 16.6461 13.7381C16.491 13.806 16.5017 15.0696 16.3844 14.8562C16.2461 14.6091 16.4752 14.2884 16.4864 13.9188C16.5722 11.9775 15.7157 12.5149 16.1699 10.3276C16.1352 10.3683 16.1006 10.4091 16.0661 10.4503C16.1454 10.0295 16.2375 9.58111 16.3845 9.04218C16.5717 8.46941 16.6095 7.96417 17.4286 6.61704C18.7531 4.66041 20.3334 3.82022 20.9998 3.37188C22.579 2.38792 23.5487 2.3701 24.3205 2.27611C25.2529 2.06076 26.529 2.05871 27.592 2.1998C29.1113 2.41089 30.6974 3.41572 31.4786 4.31788C32.3031 5.22887 32.6426 5.96455 32.8728 6.48253C32.9746 6.70971 33.1815 7.33337 33.2834 7.83195C33.3908 8.33148 33.4348 8.74181 33.4366 8.80052C33.451 9.03359 33.1537 7.82941 33.2098 8.39716C33.2189 8.45786 33.3561 9.14603 33.4352 9.69701C33.5206 10.258 33.5824 10.7264 33.6408 10.6473C33.6367 10.4197 33.4701 9.65487 33.4735 9.5084C33.5066 9.01598 33.7891 10.6293 33.8428 12.0057C33.9158 13.4165 33.9047 14.7517 33.9545 14.8782C33.9946 14.7639 34.0346 14.6488 34.0746 14.5331C34.0606 14.861 34.0458 15.1826 34.0315 15.4972ZM26.2126 11.8975C26.34 11.7907 26.3978 11.6566 26.3985 11.64C26.4018 11.6167 26.3704 11.6675 26.3748 11.7291C26.386 11.8872 26.8035 12.4449 26.3393 12.1632C26.3523 11.9696 26.3689 11.7933 26.3739 11.6929C26.3675 11.6081 26.407 11.5268 26.2126 11.8975ZM23.0586 10.791C23.1122 10.7256 23.3874 10.652 23.3012 10.7907C23.2924 10.8127 22.9992 10.9403 23.0586 10.791ZM25.1563 12.5184C25.148 12.5142 25.2012 12.5234 25.2109 12.5287C25.2483 12.5883 25.1908 12.6068 25.169 12.6024C25.1463 12.5979 25.1588 12.5678 25.1563 12.5184ZM32.6371 22.7347C32.2908 22.8583 32.6217 23.0218 32.8069 22.8529C32.8187 22.8422 32.6601 22.7267 32.6371 22.7347ZM32.3844 22.8085C32.0391 22.6772 31.6259 23.3134 32.0542 23.1178C32.0971 23.0978 32.3996 22.8149 32.3844 22.8085ZM23.4584 11.2504C23.4755 11.2007 23.398 11.0737 23.3417 10.9817C23.2807 10.8834 23.2355 10.8236 23.2116 10.7966C23.1755 10.8138 23.189 10.8563 23.2393 10.9383C23.2888 11.0205 23.3913 11.1544 23.4584 11.2504ZM23.8374 15.1546C23.8704 15.1689 23.773 15.3376 23.6864 15.5626C23.5967 15.7871 23.5486 16.0021 23.501 16.0198C23.5256 15.9655 23.549 15.7384 23.63 15.5165C23.7082 15.2945 23.8108 15.1397 23.8374 15.1546ZM29.8645 23.7643C29.83 23.7646 29.3691 23.9576 29.403 24.01C29.6698 23.9964 30.0326 23.7589 29.8645 23.7643ZM35.5974 22.0532C35.61 22.0375 35.3175 21.6795 35.9232 21.8585C36.0089 21.8855 35.7305 22.0233 35.7608 22.0342C35.8263 22.0527 35.8752 22.0594 35.9133 22.057C35.6638 22.1195 35.3767 22.185 35.344 22.1668C35.193 22.0794 35.5936 22.0587 35.5974 22.0532ZM35.7571 21.5907C35.8019 21.5414 36.0237 21.7403 36.0922 21.8267C36.1026 21.8409 35.9447 21.9303 36.0999 22.0329C36.2283 22.119 36.1463 21.8518 36.3617 22.038C36.359 22.0364 36.356 22.0348 36.3527 22.0333C36.2766 21.9967 36.2729 22.0861 36.2811 22.143C36.2426 22.1318 36.2156 22.1242 36.2203 22.1308C36.2243 22.1363 36.2403 22.148 36.2645 22.1645C36.2171 22.1181 36.1719 22.0181 36.1184 22.0808C36.0817 22.116 36.1431 22.1688 36.2202 22.2222C36.1461 22.162 36.0868 22.1146 36.0537 22.0954C35.921 22.0198 35.985 22.2217 35.8152 22.0612C35.7185 21.9694 35.9046 21.8384 35.8887 21.8131C35.8815 21.8023 35.773 21.7596 35.722 21.728C35.6699 21.6957 35.6575 21.6592 35.7571 21.5915C35.7571 21.5912 35.7571 21.591 35.7571 21.5907ZM35.9807 22.0393C35.9626 22.0488 35.9404 22.0553 35.9133 22.057C35.9358 22.0513 35.9586 22.0451 35.9807 22.0393ZM25.7905 12.3797C25.8299 12.433 25.9061 12.4844 25.9068 12.3442C25.8397 12.3187 25.7674 12.39 25.7905 12.3797ZM36.1915 21.8409C36.5431 21.8699 36.3036 21.9552 35.9807 22.0393C36.0809 21.9872 36.0689 21.8338 36.1915 21.8409ZM23.58 13.151C23.5649 13.1739 23.5404 13.189 23.4995 13.1925C23.542 13.1322 23.5659 13.1261 23.58 13.151ZM23.5456 14.4319C23.6812 14.8833 23.655 13.9609 23.5648 13.9741C23.5313 13.9762 23.5404 14.4132 23.5456 14.4319ZM33.0884 22.6084C33.0491 22.6078 33.4897 22.0773 32.7754 22.5918C33.212 22.5047 32.7786 22.6807 32.7936 22.7112C32.8406 22.7946 33.5197 22.496 33.6821 22.4973C33.7581 22.2979 33.2172 22.61 33.0893 22.6081C33.089 22.6082 33.0887 22.6083 33.0884 22.6084ZM36.7752 20.5282C36.7466 20.5267 36.7208 20.5368 36.6983 20.5543C36.5703 20.7063 36.4647 21.0053 36.4145 21.2382C36.5229 21.1363 36.6169 20.8204 36.7476 20.5828C36.7565 20.5637 36.7657 20.5452 36.7752 20.5282ZM10.0847 17.6904C10.1976 17.6993 10.3091 17.7147 10.4076 17.7335C10.2273 17.7158 10.2865 17.7322 10.3089 17.7407C10.3458 17.7512 10.3899 17.7635 10.4339 17.7768C10.5153 17.803 10.5728 17.8327 10.5741 17.8589C10.5772 17.8852 10.522 17.9079 10.4398 17.9189C10.394 17.9243 10.3475 17.9267 10.3051 17.925C10.2779 17.9255 10.2072 17.9117 10.3828 17.9243C10.331 17.9113 10.277 17.8944 10.222 17.873C10.2023 17.8675 10.0298 17.7219 10.0847 17.6904ZM26.1416 27.1362C25.9818 27.13 26.079 26.9173 26.1047 26.91C26.1298 26.8682 26.3745 26.6955 26.8402 25.9338C26.9361 25.7624 27.1392 25.4363 27.328 24.8424C27.5246 24.2694 27.6005 23.3479 27.5217 22.7703C27.4483 22.1938 27.3932 21.9666 27.5436 22.4762C27.7078 22.9057 27.7808 24.5821 27.2441 25.6426C27.2125 25.5742 26.9308 26.0725 26.6614 26.3902C26.3931 26.7206 26.1706 26.9277 26.1481 26.9473C26.1278 26.9549 26.12 27.0167 26.1416 27.1362ZM36.3818 21.7124C36.3956 21.6936 36.4145 21.6792 36.4367 21.6684C36.3182 21.6261 36.0379 21.6637 35.9091 21.642C35.9584 21.7496 36.2899 21.7706 36.4395 21.7225C36.4185 21.7192 36.3989 21.7158 36.3818 21.7124ZM14.8061 17.9618C14.9956 17.978 15.1293 17.8256 15.0959 17.8121C14.9471 17.7502 14.5918 17.8705 14.8061 17.9618ZM35.2506 21.8361C35.2227 21.7667 35.7126 21.619 35.7643 21.7919C35.6641 21.7905 35.2732 21.8758 35.2506 21.8361ZM36.6213 20.9635C36.6151 21.0484 36.7287 20.8274 36.8512 20.6424C36.8797 20.6055 36.9059 20.5649 36.9115 20.5349C36.8798 20.5163 36.826 20.5561 36.7866 20.6052C36.6931 20.7445 36.6246 20.9193 36.6213 20.9635ZM17.8886 18.0052C18.0601 18.0267 18.4903 18.0539 18.5419 17.9944C18.6058 17.9191 17.9717 17.9117 17.8886 18.0052ZM16.3971 20.7271C16.3964 20.7597 15.7976 20.6088 15.607 20.4267C15.2465 20.078 16.3892 20.6943 16.3971 20.7271ZM13.0195 18.0291C12.4891 17.8821 13.0767 18.0243 13.0549 17.8693C12.6966 17.8632 11.8227 17.8592 12.4247 18.0096C12.5411 18.0387 12.8506 18.019 13.0195 18.0291ZM13.5072 18.0818C13.5622 18.0317 13.9512 17.8753 13.6164 17.885C13.4637 17.8897 13.2183 18.0652 13.5072 18.0818ZM13.3594 18.9494C13.0738 18.6268 14.6336 19.6 14.6755 19.6673C14.6935 19.6931 14.7034 19.7132 14.7074 19.7274C14.7897 19.7262 15.1025 19.9103 15.0813 20.0271C14.9922 19.9605 14.736 19.8141 14.7128 19.7858C14.7029 19.7738 14.696 19.7638 14.6922 19.7557C14.5306 19.7615 13.4043 18.9949 13.3594 18.9494ZM12.1732 18.3863C12.611 18.1984 12.7023 18.5509 12.6556 18.5591C12.1475 18.677 12.4856 18.4382 12.4698 18.4253C12.4316 18.4033 12.0956 18.5096 12.1746 18.3863C12.1741 18.3863 12.1737 18.3863 12.1732 18.3863ZM12.8703 18.6262C12.8848 18.6275 13.1965 18.8029 13.2087 18.8166C13.4115 19.0534 12.5397 18.5642 12.8703 18.6262ZM36.4657 21.8396C36.4816 21.9353 36.3241 21.9134 36.3452 21.8635C36.3484 21.8607 36.456 21.7659 36.4657 21.8396ZM13.77 18.0489C13.8416 18.0689 15.8028 18.1893 15.6893 17.9992C15.5177 18.0115 13.296 17.8901 13.77 18.0489ZM24.1658 29.2522C24.2125 29.1551 24.3258 29.335 24.2438 29.3599C24.2124 29.3705 24.1539 29.2774 24.1658 29.2522ZM34.51 21.8195C34.2641 21.978 34.2439 21.6408 34.5037 21.6985C34.5138 21.7008 34.5196 21.8133 34.51 21.8195ZM24.9746 28.313C24.7038 28.6986 24.5896 28.6726 24.5361 28.5701C24.5086 28.4383 24.5277 28.2651 25.1867 27.6671C25.2003 27.6533 25.2137 27.6396 25.2271 27.626C25.2182 27.6434 25.2091 27.661 25.1998 27.6788C25.1838 27.7283 25.1685 27.7767 25.154 27.8241C25.1868 27.7903 25.219 27.7568 25.2504 27.7237C25.6957 27.2274 25.7897 27.0845 25.8552 27.0165C25.9122 26.9526 25.9168 26.9539 25.9027 26.9771C25.8767 27.0129 25.7151 27.2638 25.291 27.7598C25.1533 27.9187 25.0468 28.0411 24.9905 28.1147C24.8987 28.2352 25.052 28.207 24.9758 28.3127C24.9754 28.3128 24.975 28.3129 24.9746 28.313ZM23.9557 29.9087C23.7096 30.1462 23.6924 30.0134 23.7476 29.7852C23.8026 29.5565 23.9396 29.3216 23.9592 29.2141C24.0297 29.476 23.9289 29.7392 24.2086 29.4326C24.1357 29.6836 24.0877 29.7936 24.0463 29.797C24.0055 29.8055 23.9773 29.7342 23.9678 29.7456C23.9457 29.7717 23.9766 29.8905 23.9557 29.9087ZM24.3467 28.9005C24.3476 28.8754 24.5316 28.7604 24.5849 28.675C24.5946 28.8764 24.3287 29.0733 24.3467 28.9005ZM11.2201 18.3871C11.1451 18.3056 11.0276 18.288 10.9394 18.3696C10.9859 18.4098 11.1026 18.4075 11.2201 18.3871ZM25.79 11.4431C25.7962 11.3852 25.6831 11.661 25.8145 11.6065C25.8197 11.6051 25.8383 11.5267 25.8395 11.4884C25.8429 11.4423 25.8208 11.4525 25.79 11.4431ZM19.4937 18.338C19.5496 18.3516 21.0672 18.4825 20.5523 18.3205C20.3968 18.268 19.0145 18.1854 19.4937 18.338ZM11.7662 18.1249C11.8814 18.1254 12.3769 18.1029 12.3874 18.0773C12.4207 17.9882 11.8129 18.0395 11.7662 18.1249ZM25.5577 11.9907C25.5411 11.9998 25.4671 12.627 25.5304 12.5675C25.6455 12.4392 25.6098 11.908 25.5577 11.9907ZM36.9185 22.1943C36.9382 22.231 36.851 22.3288 36.8553 22.3434C36.8608 22.3585 36.9469 22.5476 37.0082 22.741C36.8943 22.4381 36.8426 22.1982 36.8233 22.5047C36.8234 22.5249 36.8439 22.628 36.899 22.7807C36.8337 22.5939 36.7387 22.3159 36.668 22.132C36.5958 21.9426 36.5524 21.8441 36.5447 21.8183C36.6655 21.6998 36.6667 22.025 36.7271 22.1296C36.7373 22.1451 36.8646 22.0974 36.9177 22.1942C36.918 22.1943 36.9183 22.1943 36.9185 22.1943ZM11.1087 18.3879C11.1114 18.3358 11.2701 18.2745 11.5023 18.2538C11.7278 18.2323 12.0044 18.2527 11.996 18.3149C11.6235 18.3227 11.3101 18.3495 11.1087 18.3879ZM10.903 18.4027C10.8433 18.3421 10.9398 18.2925 11.0566 18.3115C11.0509 18.3805 10.8926 18.4137 10.903 18.4027ZM14.546 18.5154C14.6964 18.492 14.2372 18.3362 14.3407 18.3082C14.4059 18.2905 14.7413 18.3511 14.8475 18.3059C14.8776 18.2912 14.5401 18.1451 14.4397 18.1502C14.2998 18.1568 14.4337 18.2695 14.2821 18.2687C13.7749 18.266 13.3274 18.1854 12.8585 18.1876C12.816 18.188 13.1451 18.2663 12.7839 18.2655C12.7324 18.2655 12.3907 18.149 11.9692 18.1683C11.5847 18.3197 11.2465 18.3487 10.9199 18.3376C10.7574 18.3319 10.6003 18.3161 10.4578 18.2997C10.3878 18.2915 10.3254 18.2831 10.2808 18.2763C10.2465 18.2708 10.2026 18.2602 10.337 18.2761C10.2362 18.2625 10.1341 18.2546 10.0292 18.2572C10.037 18.2784 10.1753 18.3429 10.322 18.3916C10.1989 18.3884 10.2381 18.4053 10.2594 18.4133C10.2846 18.4223 10.3212 18.4286 10.3255 18.4295C11.0046 18.5106 12.95 18.4884 13.9896 18.5024C14.265 18.5049 14.1341 18.4271 14.2512 18.4254C14.3444 18.4243 14.2301 18.5649 14.546 18.5154ZM25.7047 11.4482C25.6022 11.3186 25.6515 11.4366 25.6084 11.5988C25.7406 11.5757 25.7153 11.3181 25.7047 11.4482ZM10.6285 19.1026C10.6243 19.2297 10.5627 19.5734 10.6052 19.5959C10.6571 19.6424 10.7203 19.1446 10.6285 19.1026ZM36.8043 20.6675C36.8002 20.6727 36.605 20.6872 36.5957 20.6829C36.4146 20.5887 36.9838 20.5465 36.8043 20.6675ZM30.4894 19.9702C30.4821 19.969 30.4749 19.9679 30.4678 19.9668C30.3509 19.9726 29.8668 19.8019 28.9023 19.6646C30.3193 19.7683 30.4018 19.9132 30.4761 19.9334C30.4912 19.9449 30.4971 19.9571 30.4894 19.9702ZM23.0641 33.5419C23.2195 33.5417 23.0271 34.0057 22.9934 34.0618C22.9377 34.0286 22.9548 33.5596 23.0641 33.5419ZM10.9921 17.9718C10.8082 18.095 10.7616 17.8505 10.7589 17.9672C10.7735 17.9786 10.8719 18.4569 10.9505 18.2255C10.9717 18.1755 10.7811 18.1599 10.9921 17.9718ZM25.5306 27.263C25.5541 27.1526 25.6522 26.9924 25.7204 26.8939C25.7916 26.7918 25.8368 26.7495 25.8602 26.7275C25.8828 26.7583 25.8761 26.7868 25.817 26.8741C25.7623 26.9554 25.6244 27.1375 25.5306 27.263ZM25.2847 13.1307C25.1215 13.2988 25.1413 14.2284 25.2544 14.0092C25.2677 13.9784 25.2642 13.247 25.2847 13.1307ZM35.9373 21.195C35.8996 21.1234 35.9354 21.0989 35.998 21.1082C36.0613 21.1189 36.1871 21.159 36.2484 21.2163C36.1848 21.2114 35.9291 21.2055 35.9373 21.195ZM23.363 31.4144C23.3669 31.4343 23.3318 31.8286 23.3247 31.8437C23.1896 32.1582 23.288 31.0453 23.363 31.4144ZM32.6805 20.6042C32.5309 20.6762 31.6397 20.4381 31.4592 20.3032C31.68 20.2202 32.865 20.5232 32.6805 20.6042ZM10.5979 18.5325C10.6877 18.4147 10.8393 18.2902 11.0209 18.1622C11.0315 18.2059 10.9162 18.3213 10.8158 18.4054C10.7131 18.4911 10.6248 18.5447 10.5979 18.5325ZM23.2614 32.799C23.2586 32.8176 23.2479 32.8346 23.245 32.852C23.2504 32.8341 23.2561 32.8164 23.2614 32.799ZM9.45061 18.2717C9.53319 18.3354 9.56198 18.1949 9.55708 18.1889C9.50381 18.1222 9.36603 18.2003 9.45061 18.2717ZM25.5156 11.3623C25.3925 11.3269 25.431 11.5614 25.3655 11.7461C25.4723 11.709 25.5186 11.3838 25.5156 11.3623ZM23.6171 30.5227C23.458 30.7299 23.3847 29.8272 23.519 29.7153C23.5941 29.7079 23.6271 30.4738 23.6171 30.5227ZM36.2755 21.0727C36.2536 20.972 35.8537 21.1314 35.946 21.17C36.007 21.1921 36.2918 21.1325 36.2755 21.0727ZM23.6627 29.397C23.6518 29.3285 23.7885 29.2402 23.8287 29.3039C23.8812 29.3809 23.6668 29.4124 23.6627 29.397ZM16.6817 18.654C16.7434 18.6703 17.5738 18.6018 17.2358 18.4864C17.0007 18.4062 16.9599 18.5489 16.9031 18.5472C16.8382 18.5428 15.5191 18.3255 16.6817 18.654ZM23.4564 37.7385C23.401 37.6034 23.4276 37.3626 23.4171 37.1269C23.4791 37.2391 23.5279 37.6912 23.4564 37.7385ZM36.0278 21.0131C36.0209 20.9819 35.9073 20.9101 35.9899 20.95C36.0665 20.9797 36.138 21.0247 35.9626 21.0371C35.9529 21.0385 35.8924 21.0286 35.9215 21.0418C35.9446 21.0526 36.0305 21.0863 36.0278 21.0131ZM10.9921 17.9718C11.0173 17.9537 11.0463 17.9277 11.0792 17.8895C11.043 17.9228 11.0153 17.9503 10.9921 17.9718ZM10.3731 19.248C10.3062 19.1544 10.2598 19.6076 10.2969 19.7119C10.3815 19.7606 10.3799 19.2724 10.3731 19.248ZM23.316 37.1128C23.2698 36.9813 23.3094 36.7121 23.3048 36.5194C23.3704 36.5555 23.3803 37.0619 23.316 37.1128ZM23.2112 34.4185C23.1882 34.4551 23.1686 34.4911 23.1539 34.5229C23.1051 34.633 23.0784 34.7517 23.1324 34.7801C23.1192 34.778 23.1033 34.7801 23.0849 34.7871C23.068 34.7934 23.0157 34.9859 22.9458 35.0513C22.7425 35.2398 22.9842 34.7932 23.1094 34.5059C23.1688 34.3841 23.2402 34.2161 23.2834 34.189C23.3274 34.1526 23.3449 34.3042 23.3039 34.5804C23.3008 34.5971 23.2974 34.6147 23.2936 34.6331C23.287 34.6113 23.2801 34.5897 23.2729 34.5685C23.2524 34.521 23.2318 34.471 23.2112 34.4185ZM33.86 20.9626C34.022 21.0833 34.5053 21.0005 34.3859 20.95C34.3056 20.9182 33.7014 20.8441 33.86 20.9626ZM23.9769 26.5566C23.9985 26.4914 24.0191 25.7827 23.9751 25.7458C23.8525 26.1657 23.8601 26.8842 23.9769 26.5566ZM35.1344 21.182C35.2362 21.2017 35.3684 21.0438 35.3567 21.0364C35.2593 20.9752 34.968 21.0844 35.1344 21.182ZM10.6223 17.7663C10.478 17.8428 10.3062 18.2071 10.3596 18.3154C10.3362 18.3115 10.2941 18.3201 10.236 18.3423C10.2359 18.3425 10.2361 18.3423 10.236 18.3423C10.2158 18.3479 10.0978 18.4881 10.0647 18.5404C10.027 18.603 10.0692 18.5092 10.0793 18.4263C10.0437 18.9975 10.0563 19.2399 10.1873 18.4353C10.1966 18.4707 10.2025 18.5199 10.2053 18.5649C10.2076 18.5804 10.1187 18.5485 10.1228 18.587C10.1235 18.5886 10.1953 18.619 10.1972 18.6241C10.1997 18.6305 10.2084 18.6371 10.2518 18.5778C10.2918 18.5231 10.3742 18.4106 10.3832 18.3511C10.3949 18.3596 10.4095 18.3634 10.4282 18.3606C10.568 18.3567 10.7138 17.7212 10.6223 17.7663ZM23.8864 27.8347C23.9218 27.7164 23.9233 27.3095 23.8587 27.2624C23.8074 27.4647 23.8016 28.1188 23.8864 27.8347ZM36.1552 20.7596C36.0889 20.6549 36.0368 20.7523 36.0199 20.8057C36.0097 20.8204 36.0166 20.811 36.0666 20.8126C36.1136 20.8127 36.1805 20.813 36.1552 20.7596ZM24.8536 22.9301C24.2984 24.1264 24.3707 24.1773 24.3991 24.1034C24.4477 24.0187 24.6043 23.6944 24.5963 23.8798C24.6548 23.5862 24.7365 23.2671 24.8536 22.9301ZM13.4395 17.8932C13.31 17.8726 13.3527 17.798 13.4581 17.7668L12.2996 17.5243C12.3374 17.5121 12.391 17.5262 12.4248 17.5874C12.4509 17.6342 12.3019 17.6679 12.2547 17.6443L13.4516 17.8947C13.4474 17.8944 13.4434 17.8938 13.4395 17.8932ZM19.3682 21.9458C19.3589 21.8828 19.3932 21.8742 19.4434 21.8946L19.3779 21.8464C19.5157 21.9036 19.7571 22.1907 19.5262 22.1269C19.5149 22.1223 19.3776 21.9797 19.3228 21.9204L19.39 21.9698C19.3773 21.9568 19.3693 21.948 19.3682 21.9458ZM14.263 18.5072C14.0953 18.5503 14.0166 18.5203 13.7288 18.3275C14.194 18.5473 13.8269 18.2188 14.263 18.5072ZM23.1449 34.7837C23.1401 34.7827 23.1364 34.7821 23.1324 34.7801C23.1369 34.7807 23.141 34.782 23.1449 34.7837ZM36.0731 21.1592C36.1975 21.2594 36.5145 21.2314 36.4131 21.1347C36.405 21.1268 36.1213 21.0834 36.0731 21.1592ZM10.3596 18.3154C10.3804 18.3188 10.3858 18.3307 10.3832 18.3511C10.3722 18.343 10.365 18.3314 10.3596 18.3154ZM34.119 21.1603C34.1411 21.0876 33.5564 20.9923 33.5306 20.9961C33.1734 21.0836 33.8782 21.144 34.119 21.1603ZM34.4708 20.9269C34.444 20.9408 34.6706 21.0931 34.7666 20.9955C34.8425 20.9192 34.5743 20.8729 34.4708 20.9269ZM15.3442 19.095C15.517 19.2014 15.762 19.3552 15.7583 19.4635C15.6484 19.3766 15.3045 19.1506 15.3442 19.095ZM19.1782 21.652C18.9111 21.5957 18.4472 21.2678 18.1596 21.0471C18.2364 20.9232 18.968 21.5418 19.1782 21.652ZM10.9203 17.5462C10.9211 17.5437 10.9323 17.5294 10.9492 17.5086C10.8421 17.5963 10.6641 17.7624 10.7489 17.7828C10.8414 17.8071 10.9524 17.6802 11.0119 17.5743C10.9537 17.5955 10.9089 17.5852 10.9203 17.5462ZM35.3348 20.8691C35.5147 20.7731 35.0431 20.6394 34.8623 20.8375C34.7736 20.9357 35.3079 20.8821 35.3348 20.8691ZM37.0203 21.2114C37.194 21.1277 36.7267 21.0988 36.6514 21.2029C36.7509 21.2023 36.9598 21.242 37.0203 21.2114ZM24.399 25.4234C24.9787 24.0511 24.3045 24.703 24.2859 24.991C24.2827 25.0306 24.3847 25.458 24.399 25.4234ZM24.5127 15.4204C24.5445 15.5603 24.7222 15.0568 24.6311 14.9848C24.5734 14.9405 24.4921 15.329 24.5127 15.4204ZM21.3331 37.0523C21.3496 37.0395 21.3666 37.0262 21.3841 37.0126C21.3734 37.0262 21.3568 37.04 21.3331 37.0523ZM38.0714 21.2996C37.8301 20.9665 38.0018 21.2325 37.9935 21.2357C37.978 21.2394 37.8903 21.1615 37.8202 21.2078C37.8907 21.131 37.9039 21.0675 37.8787 21.0286C37.8563 21.0116 37.8881 20.9703 37.4303 21.0689C37.2776 21.0913 37.0894 21.1152 37.0862 21.143C37.0775 21.2437 37.3854 21.1495 37.3841 21.1548C37.3964 21.1628 37.4882 21.3669 37.5258 21.4046C37.5318 21.4076 37.5371 21.4091 37.5416 21.4087C37.6039 21.4 37.8656 21.3271 37.9529 21.2946C38.0565 21.2568 38.0496 21.2722 38.0714 21.2996ZM27.9376 20.4751C27.1686 20.602 26.0733 21.3 25.6173 21.9966C25.4723 22.1342 25.3798 22.1914 25.3257 22.3144C25.3016 22.3718 25.3759 22.4375 25.3024 22.6229C25.4016 22.4307 25.5213 22.2241 25.6552 22.0235C26.2352 21.1377 27.3431 20.5863 27.9376 20.4751ZM37.6567 21.2833C37.684 21.3633 37.7362 21.282 37.7958 21.1867C37.8094 21.1724 37.8204 21.1294 37.8165 21.1231C37.7828 21.0688 37.6946 21.0852 37.6867 21.1238C37.6571 21.184 37.6442 21.2445 37.6567 21.2833ZM34.4025 21.2755C34.4317 21.2874 35.0118 21.3647 35.0085 21.2944C34.8635 21.2398 34.0798 21.1587 34.4025 21.2755ZM25.1969 22.8376C24.9295 23.3166 24.5893 24.0568 24.7627 24.0129C24.7628 24.0123 24.763 24.0117 24.7632 24.0111C24.8659 23.6488 24.9951 23.2672 25.1969 22.8376ZM35.9267 20.4698C35.5551 20.2706 35.7626 20.5488 36.0586 20.5983C36.1362 20.4833 35.9864 20.5025 35.9267 20.4698ZM34.7572 20.4671C34.6505 20.4347 33.5597 20.74 33.7579 20.8262C33.8298 20.852 34.4311 20.5949 34.4608 20.6001C34.5063 20.604 34.3398 20.7819 34.6614 20.6866C34.6324 20.6437 34.7954 20.4742 34.7572 20.4671ZM35.6238 20.3504C35.244 20.218 35.2131 20.5665 35.4791 20.5267C35.5822 20.5124 35.6765 20.3703 35.6238 20.3504ZM36.2412 20.2982C36.2637 20.2736 36.332 20.2399 36.3684 20.3262C36.3567 20.332 36.3452 20.3384 36.3341 20.3452C36.3458 20.345 36.3576 20.3448 36.3693 20.3446C36.3235 20.3592 36.2125 20.3487 36.2023 20.3517C36.2214 20.2912 36.2155 20.3207 36.2412 20.2982C36.2412 20.2982 36.2411 20.2982 36.2412 20.2982ZM21.4708 22.4047C21.3281 22.1348 21.8334 22.5735 21.8616 22.6391C21.8752 22.7629 21.5243 22.5132 21.4708 22.4047ZM21.3527 18.0501C21.3119 18.1485 21.1854 18.212 21.2446 18.4346C21.3424 18.2145 21.4409 17.9953 21.5399 17.7763C21.335 17.5966 21.3976 17.9421 21.3527 18.0501ZM20.5609 18.8813C20.5566 18.8493 20.2284 19.0155 20.4546 18.6107C20.6061 18.3396 20.7153 19.8414 20.5704 20.1097C20.5073 19.8093 20.5958 19.1537 20.5609 18.8813ZM19.1241 21.5041C19.0979 21.5218 19.0633 20.9463 19.0823 20.8781C19.1811 20.5267 19.2621 21.4102 19.1241 21.5041ZM19.2048 19.6682C19.1373 19.9375 19.1068 19.3377 19.147 19.1603C19.2074 19.1449 19.2144 19.6256 19.2048 19.6682ZM21.6172 16.5579C21.5021 16.2082 21.0159 16.4501 21.4413 16.6288C21.4614 16.6373 21.6212 16.5739 21.6172 16.5579ZM18.8006 20.9386C18.8656 20.6683 18.9015 21.2648 18.8648 21.4468C18.8043 21.4628 18.7909 20.9803 18.8006 20.9386ZM21.746 16.0062C21.5118 15.6505 21.3253 16.1706 21.353 16.2158C21.4717 16.4001 22.1546 16.6231 22.3 16.6631C21.4093 16.1334 21.8541 16.1737 21.746 16.0062ZM20.0679 15.2544C19.7337 15.1012 20.4477 15.7052 20.6769 15.6824C20.5233 15.5867 20.1629 15.2972 20.0679 15.2544ZM18.2805 13.9114C18.1224 13.791 17.6339 13.4464 17.5034 13.4685C17.7014 13.5654 18.1665 13.942 18.2805 13.9114ZM18.0229 13.4615C17.8093 13.2012 17.5767 13.45 17.9389 13.5502C17.953 13.5542 18.0295 13.4728 18.0229 13.4615ZM16.5204 12.469C16.39 12.2495 16.0264 12.4237 16.3289 12.592C16.4189 12.6419 16.5337 12.4934 16.5204 12.469ZM21.6634 15.2517C21.4559 15.0406 21.0189 15.022 21.5149 15.3912C21.3167 15.298 21.1167 15.2046 20.9176 15.113C21.5154 15.6735 21.644 15.3776 21.8279 15.5198C22.0853 15.7209 21.9128 15.9226 21.8132 15.9542C22.0491 15.9674 22.6447 16.347 23.1529 16.6873C23.1622 16.6929 23.1875 16.7137 23.1966 16.7195C23.3563 16.8314 23.5089 16.9407 23.641 17.0339C23.5246 16.9208 23.3895 16.7903 23.2458 16.6534C23.2364 16.6474 23.2103 16.626 23.2007 16.6202C22.8149 16.2651 22.3577 15.8551 22.0346 15.5926C21.9079 15.4893 21.7387 15.4604 21.6291 15.3754C21.4536 15.2387 21.6746 15.2641 21.6644 15.2523C21.6641 15.2521 21.6637 15.2519 21.6634 15.2517ZM13.4526 11.3621C12.8751 11.1814 13.2348 11.5244 13.5594 11.4842C13.5735 11.4804 13.4672 11.3666 13.4526 11.3621ZM17.8179 21.7115C17.9568 20.9251 18.1266 21.4994 17.8763 19.8511C18.0583 20.5466 18.0137 19.8914 18.0891 20.0277C18.1486 20.1384 18.0932 20.5381 18.2193 20.3066C18.0795 20.614 18.1103 21.9608 18.0899 22.0168C18.0899 22.0162 18.0899 22.0157 18.0899 22.0151C18.077 22.0496 17.7745 21.9654 17.8179 21.7115ZM18.7157 13.1865C18.7448 12.7449 18.3575 13.2371 18.1758 12.751C17.4796 12.8819 19.4421 13.5141 19.4231 13.9863C17.6302 12.8036 20.4091 15.079 19.4629 13.7725C20.3867 14.6218 19.8436 13.9288 20.0453 13.9676C20.2605 14.0092 20.7945 14.4671 20.8444 14.3256C20.8441 14.3254 20.8437 14.3252 20.8434 14.325C20.483 14.0977 20.1199 13.8729 19.7528 13.6507C19.9369 14.1426 19.2526 13.5922 19.1307 13.2163C18.9923 13.2058 18.8547 13.1963 18.7157 13.1865ZM20.5948 14.7393C20.5664 14.7099 19.7683 14.2402 19.7849 14.3277C19.8679 14.426 20.9831 15.1077 20.5948 14.7393ZM24.0033 17.0724C23.7999 16.9105 23.5375 16.667 23.3258 16.5459C23.3159 16.5397 23.2885 16.5172 23.2784 16.5111C23.205 16.4714 23.1379 16.4464 23.082 16.4445C23.1315 16.4802 23.1848 16.5212 23.2404 16.5646C23.2502 16.5706 23.2769 16.5925 23.2866 16.5987C23.5337 16.7994 23.8212 17.0513 24.0033 17.0724ZM5.85624 13.3312C5.58949 13.7419 6.6426 12.7174 6.26397 12.9354C6.24749 12.9417 5.87135 13.306 5.85624 13.3312ZM17.8391 12.732C17.5125 12.4045 17.5094 12.8426 17.8395 12.9201C17.8589 12.9247 17.8541 12.747 17.8391 12.732ZM17.7745 21.074C17.6806 21.0439 17.7581 19.9025 17.7619 19.7008C17.8451 19.8161 17.8798 21.1065 17.7745 21.074ZM24.7163 17.2C24.4569 16.6675 23.8698 16.3871 23.5427 16.2548C23.5315 16.2476 23.5005 16.2223 23.4891 16.2153C23.3646 16.1689 23.2764 16.1406 23.2557 16.1229C23.182 16.0595 23.3905 16.028 23.3748 16.012C23.3404 15.9755 22.4881 15.3875 22.4396 15.3679C22.4057 15.354 22.4417 15.631 22.2298 15.5623C22.4458 15.6372 22.9637 15.9902 23.4156 16.3186C23.4265 16.3252 23.4563 16.3495 23.467 16.3564C23.8821 16.67 24.254 16.9802 24.3006 17.0041C24.3773 17.044 24.0189 16.4717 24.7153 17.1992C24.7156 17.1995 24.7159 17.1998 24.7163 17.2ZM23.0835 15.9446C23.2441 16.1651 22.6479 15.7542 22.5226 15.6283C22.2452 15.3459 23.0629 15.9158 23.0835 15.9446ZM21.6977 14.8803C21.641 14.8169 21.0271 14.3813 20.9204 14.427C21.1479 14.7278 21.828 15.0238 21.6977 14.8803ZM13.0224 10.678C12.8279 10.6793 12.2473 10.5854 12.2077 10.6704C12.4307 10.6614 12.9903 10.7602 13.0224 10.678ZM17.1247 17.1437C17.0428 17.4643 17.0414 16.7143 17.0852 16.4963C17.1412 16.4872 17.1313 17.1164 17.1247 17.1437ZM18.1756 11.996C18.1091 11.9049 15.8231 10.7445 15.3152 10.6221C15.7755 10.8374 17.9962 12.0387 18.084 12.0761C18.1167 12.0843 18.1868 12.0072 18.1756 11.996ZM22.5684 14.7748C22.8158 14.7957 22.8478 14.9999 22.8692 15.0171C23.0769 15.1852 23.545 15.4839 23.3771 15.511C23.0223 15.1972 22.0744 14.7316 22.5684 14.7748ZM12.8742 10.1085C12.0224 10.118 13.6352 10.3209 13.4169 10.1828C13.4075 10.1742 12.9659 10.1072 12.8742 10.1085ZM18.4329 12.1046C18.6582 12.1047 20.6668 13.4638 20.9726 13.6803C20.5857 13.6467 20.4301 13.3772 20.0338 13.1353C19.9262 13.0701 19.9138 13.1533 19.9023 13.1462C19.7176 13.0333 19.9021 13.045 19.7893 12.9722C19.7264 12.9232 18.143 12.0908 18.4329 12.1046ZM22.7183 14.7745C22.8366 14.7874 23.6223 15.3028 23.9639 15.5489C23.9782 15.5576 24.0173 15.5896 24.0314 15.5986C24.128 15.6709 24.1892 15.7197 24.1981 15.7315C24.2938 15.8627 24.1757 15.8064 23.9751 15.6742C23.9613 15.6654 23.9232 15.6342 23.9092 15.6257C23.5152 15.3782 22.773 14.8317 22.7183 14.7745ZM18.3182 11.847C18.6624 11.7945 19.6321 12.5519 18.8627 12.2111C18.7912 12.1793 18.5459 11.9244 18.3182 11.847ZM12.9733 9.90798C12.9456 9.89717 12.0127 9.82379 11.9822 9.89635C12.1518 9.91686 13.4467 9.99882 12.9733 9.90798ZM13.4256 9.69917C13.4045 9.69977 13.5952 9.84161 13.2034 9.80447C13.1667 9.80171 13.128 9.64808 12.584 9.68134C12.4733 9.68843 12.2935 9.7818 12.3062 9.78829C12.9304 10.0342 14.3849 9.67627 13.4256 9.69917ZM22.8086 14.6912C22.7786 14.5941 23.0421 14.5514 23.1309 14.7285C23.1684 14.8045 22.9916 14.8161 22.8086 14.6912ZM9.61651 9.97286C9.97546 9.86368 9.59232 9.87136 9.04032 9.97652C8.49322 10.0711 7.73433 10.3563 7.6629 10.4091C7.72477 10.4192 8.24192 10.2439 8.70296 10.1452C9.16853 10.0395 9.57911 9.98502 9.61651 9.97286ZM16.2907 16.3475C16.2907 16.3479 16.2907 16.3483 16.2907 16.3487C16.3346 15.9379 16.4163 16.1974 16.4201 16.1782C16.5989 15.3068 16.3784 15.5286 16.3603 15.389C16.3233 15.0883 16.5759 15.1536 16.5012 14.6437C16.607 15.4847 16.5874 14.7236 16.6803 14.7064C17.0567 14.6381 16.4403 15.7962 16.5023 16.2087C16.5104 16.266 16.6491 15.8518 16.676 15.9993C16.7615 16.4767 16.1303 17.9193 16.2907 16.3475ZM23.2494 14.7918C23.3802 14.8035 23.8275 15.1341 24.0901 15.3717C24.1052 15.3808 24.1465 15.4146 24.1614 15.4241C24.3462 15.5964 24.4445 15.7217 24.2926 15.6518C24.2782 15.6451 24.2009 15.5933 24.092 15.5173C24.0775 15.5081 24.0374 15.4752 24.0227 15.4664C23.6764 15.2355 23.0033 14.7692 23.2494 14.7918ZM30.5405 38.4248C30.4034 38.9327 31.0211 37.8965 31.0244 37.6402C31.0337 37.5263 30.6048 38.2123 30.5405 38.4248ZM32.3507 31.5085C32.3522 31.0804 31.9741 30.6327 32.0137 31.1503C32.0182 31.2047 32.2937 31.5538 32.3507 31.5085ZM15.2968 27.2938C14.9999 27.8891 15.27 27.9086 15.377 27.4518C15.4173 27.2915 15.3066 27.2755 15.2968 27.2938ZM26.2038 43.8344C26.2695 43.8051 26.8302 43.3507 26.7675 43.3182C26.5549 43.4558 25.828 44.0255 26.2038 43.8344ZM15.3167 27.0822C15.2597 27.4685 15.608 26.885 15.6001 26.3676C15.5278 26.6069 15.3213 27.042 15.3167 27.0822ZM17.771 10.8684C17.5144 10.8495 16.9334 10.5035 16.5457 10.3382C16.58 10.193 17.532 10.7591 17.771 10.8684ZM32.0591 33.3954C32.0044 32.9435 31.8299 33.886 31.9656 33.8158C31.9748 33.8039 32.0624 33.4127 32.0591 33.3954ZM15.5533 27.2593C15.8127 27.1816 14.9982 27.0503 15.2201 27.2026C15.2327 27.2087 15.5386 27.2635 15.5533 27.2593ZM11.9336 27.1848C12.1406 27.2118 12.9988 27.2011 12.6641 27.1202C12.6101 27.1075 11.9549 27.108 11.9336 27.1848ZM16.2613 15.3588C16.1112 15.4687 16.1843 14.7869 16.2165 14.689C16.229 14.6519 16.4554 15.2167 16.2613 15.3588ZM14.8057 31.1265C14.8243 31.3259 14.786 31.8414 14.8597 31.934C14.8481 31.6878 14.9561 31.0619 14.8057 31.1265ZM31.7438 35.5602C31.9928 35.1416 32.0816 34.4208 31.8537 34.5689C31.7382 35.3641 32.0673 34.4847 31.7438 35.5602ZM15.9943 24.9009C15.8494 25.1579 15.9377 25.4409 15.9592 25.4153C16.1647 25.1733 16.1943 24.6822 15.9943 24.9009ZM15.74 41.9316C15.7082 41.9604 15.903 42.3445 16.1717 42.6959C16.435 43.0488 16.7602 43.346 16.6869 43.2306C16.6622 43.1927 16.3758 42.8572 16.1544 42.5282C15.9324 42.2068 15.7627 41.9015 15.74 41.9316ZM6.37764 10.5586C5.76891 10.8242 7.47837 9.73951 7.94877 9.74794C8.07986 9.77315 7.73283 9.89911 7.31579 10.0855C6.90017 10.2649 6.41499 10.5378 6.37764 10.5586ZM20.4183 27.4141C20.4236 27.4342 20.3787 27.4263 20.2561 27.3647C20.1389 27.303 19.9464 27.2011 19.6278 26.9308C19.3226 26.6597 18.773 26.1464 18.3814 25.1262C17.9717 24.1035 18.0732 22.8506 18.2784 22.2467C18.7131 21.0131 18.9255 21.0128 18.9866 20.9073C19.0217 20.8769 19.0363 20.8758 19.0328 20.8993C19.0266 20.9278 19.009 20.9633 18.9009 21.1484C18.8497 21.2525 18.708 21.4132 18.474 22.0289C18.2339 22.5578 18.0027 24.1985 18.6338 25.427C19.2163 26.5976 19.7911 26.932 20.0371 27.142C20.3007 27.3359 20.4146 27.398 20.4183 27.4141ZM14.458 27.4937C15.0093 27.3485 12.7023 27.2269 13.3081 27.4165C13.3532 27.4286 14.4102 27.5043 14.458 27.4937ZM10.5417 27.3956C10.6458 27.4119 10.6293 27.8356 10.0801 27.6604C10.0091 27.6378 10.3514 27.5357 10.29 27.5086C10.2821 27.504 10.1695 27.4938 10.0019 27.4785C9.80971 27.4599 9.61762 27.4502 9.15243 27.3851C8.89691 27.3412 8.67848 27.2973 8.65259 27.2969C8.58433 27.2966 8.64057 27.4424 8.57023 27.4456C8.493 27.4541 7.67507 27.1751 7.21412 27.0329C6.34653 26.7707 6.20367 26.8038 6.13027 26.7819C5.91597 26.6984 5.58528 26.4759 5.16288 26.2587C4.71679 26.0322 4.20919 25.7233 3.82716 25.4608C2.37288 24.4089 1.98426 23.3041 1.74115 22.6723C1.51495 22.0075 1.45511 21.5704 1.40585 21.1983C1.32163 20.4681 1.3344 19.9979 1.34858 19.5714C1.38616 18.7386 1.47972 18.1547 1.59926 17.7219C1.60805 17.6686 1.61742 17.6166 1.62729 17.5657C1.61982 17.6178 1.61295 17.6701 1.60669 17.7225C1.48132 18.7543 1.33855 19.3965 1.6756 21.6667C1.54815 21.3508 1.49174 22.0485 2.32119 23.5724C2.72086 24.3217 3.66809 25.1335 3.8014 25.2055C3.87057 25.253 3.70161 25.163 3.33178 24.843C2.96439 24.5288 2.44963 23.9344 2.11141 23.2971C2.29769 23.5755 2.4912 24.3194 3.89467 25.3625C4.75286 26.0779 7.76145 27.2298 9.16378 27.2976C9.82618 27.3746 9.98132 27.361 10.194 27.3746C10.3753 27.3825 10.4951 27.3884 10.5404 27.3956C10.5408 27.3956 10.5413 27.3956 10.5417 27.3956ZM32.5333 29.9008C32.6663 30.138 32.6813 28.9354 32.5232 28.8454C32.4919 28.9857 32.5181 29.865 32.5333 29.9008ZM32.0588 36.8817C32.0304 37.0406 32.1944 37.2369 31.9354 37.8834C31.8861 38.003 31.8212 38.1355 31.7355 38.2813C31.7351 38.2821 31.7347 38.283 31.7343 38.2839C31.5785 38.5451 31.6507 38.2025 31.6066 38.244C31.5924 38.2655 31.0891 39.0381 31.3805 38.3385C31.7646 37.324 31.6397 38.1702 31.8079 37.8346C31.8215 37.8062 31.8367 37.77 31.8537 37.7242C31.9026 37.6328 32.0984 36.4674 32.0352 36.5366C32.0315 36.5391 31.9706 36.8763 31.9396 36.9279C31.8276 37.1198 31.775 36.9929 31.7622 37.0209C31.747 37.0547 31.6771 37.3571 31.5529 37.7369C31.3728 38.3066 31.0694 38.9736 30.9258 39.0743C30.8866 39.1016 31.2006 38.4419 31.4506 37.6978C31.7106 36.9408 31.8473 36.2708 31.8719 36.2215C31.9014 36.159 32.1288 36.2445 32.1685 36.1808C32.2001 36.1357 32.3205 35.0837 32.3536 34.9683C32.366 34.9325 32.3774 34.9054 32.3864 34.8857C32.293 35.0176 32.425 34.1498 32.5006 34.1918C32.5339 34.2077 32.4309 34.8024 32.4192 34.8258C32.4153 34.835 32.4107 34.8427 32.4071 34.8501C32.4616 34.7937 32.4108 35.2794 32.3355 35.7659C32.2644 36.2447 32.1629 36.7321 32.2973 36.4911C32.1804 37.206 32.1377 36.3342 32.0588 36.8817ZM30.7139 40.2239C30.7314 40.1478 30.7483 40.0714 30.7648 39.9948C30.1683 41.1091 29.2223 42.1105 28.2475 43.0535C27.9955 43.294 28.395 43.1315 28.0297 43.4141C27.7349 43.6402 27.3241 43.793 27.4581 43.6385C27.4942 43.602 28.1156 43.1776 28.3674 42.9065C29.1092 42.1077 28.8058 42.2064 28.8504 42.1603C28.895 42.1093 29.4128 41.6573 29.6388 41.3525C30.2026 40.5812 30.395 40.2029 31.1332 39.0272C30.8371 39.7759 31.2163 39.4948 30.7139 40.2239ZM18.7428 27.8877C18.7094 27.9695 18.2356 27.8642 18.0608 27.867C18.0924 27.7839 18.5689 27.8879 18.7428 27.8877ZM32.4396 20.8699C32.4922 20.6623 32.1034 21.1979 31.7292 21.6129C31.3573 22.0352 31.0235 22.3683 31.3108 22.1682C31.4407 22.099 32.2407 21.2129 32.4396 20.8699ZM28.1121 13.5659C28.2631 13.4717 27.5723 13.6119 27.609 13.7132C27.6243 13.7436 28.0886 13.579 28.1121 13.5659ZM14.0968 38.2083C14.086 38.1581 14.0837 37.5497 14.0924 37.536C14.1587 37.3422 14.1845 37.7125 14.1934 38.059C14.202 38.3977 14.1868 38.7098 14.0968 38.2083ZM35.7436 11.6281C35.4264 11.6866 35.6251 11.6987 35.9287 11.6954C36.7638 11.6457 38.0624 11.8552 37.2367 11.6699C37.1883 11.6537 36.3864 11.5846 35.9248 11.6177C35.8261 11.6217 35.7545 11.6261 35.7436 11.6281ZM41.039 13.0077C40.8786 12.8885 39.7842 12.2662 39.7152 12.3031C39.6894 12.3285 40.0339 12.5104 40.348 12.6868C40.667 12.863 40.958 13.0256 41.039 13.0077ZM15.6274 24.4812C15.4262 24.4995 16.228 23.3517 16.487 23.0016C16.6731 22.9909 15.8255 24.0217 15.6274 24.4812ZM13.9873 31.6954C13.9807 31.4825 13.9752 31.2953 13.9706 31.119C13.9507 29.5391 14.1506 28.7665 14.1707 28.8546C14.2064 28.9257 14.1099 29.8124 14.0934 31.1189C14.0888 31.349 14.0785 31.5991 14.0608 31.8775C13.9614 31.8799 13.9931 31.8878 13.9873 31.6954ZM15.0046 25.5865C15.0128 25.8208 14.7624 26.4183 14.6398 26.8273C14.5867 26.7385 14.8894 25.8921 15.0046 25.5865ZM33.9557 17.439C33.9858 17.7141 33.8387 18.4669 33.5945 19.0631C33.3573 19.6633 33.0721 20.0884 33.1469 19.8808C33.1647 19.8339 33.4642 19.1987 33.6491 18.5647C33.8434 17.9327 33.9331 17.3359 33.9557 17.439ZM13.9396 37.8238C13.7857 37.9169 13.8118 36.6315 13.8526 36.5649C13.9823 36.1885 13.8862 37.6729 13.9396 37.8238ZM20.2453 28.1167C20.6613 28.3878 20.9653 28.4695 21.0338 28.4848C21.1143 28.5007 21.0526 28.4716 20.9872 28.4633C21.0209 28.416 21.1066 28.4148 21.0801 28.4089C21.0503 28.3915 20.8899 28.4184 20.2453 28.1167ZM17.5915 21.397C17.6031 21.3787 17.7811 21.1895 17.8346 21.136C17.8227 21.1518 17.8176 21.1603 17.8173 21.1624C17.8242 21.2166 17.8451 21.2255 17.8907 21.1859C17.8116 21.3006 17.4444 21.6558 17.5915 21.397ZM15.1357 16.8732C15.1324 16.8576 15.1542 16.503 15.1593 16.4907C15.2852 16.179 15.2194 17.242 15.1357 16.8732Z" fill="#D2E100"/>
</g>
<defs>
<clipPath id="clip0_2145_410">
<rect width="46" height="44" fill="white" transform="translate(1 2)"/>
</clipPath>
</defs>
</svg>
